<svg width="114" height="114" viewBox="0 0 114 114" fill="none" xmlns="http://www.w3.org/2000/svg">
<ellipse cx="56.8619" cy="56.8238" rx="56.8619" ry="56.536" fill="#2D2B2C"/>
<mask id="mask0_4764_935" style="mask-type:alpha" maskUnits="userSpaceOnUse" x="0" y="0" width="114" height="114">
<ellipse cx="56.8619" cy="56.8238" rx="56.8619" ry="56.536" fill="white"/>
</mask>
<g mask="url(#mask0_4764_935)">
<path fill-rule="evenodd" clip-rule="evenodd" d="M98.8963 18.4062C97.6924 16.616 95.9203 14.6873 93.5696 13.921C92.6073 13.6072 89.5038 12.4311 89.9658 10.4664C90.0537 10.0925 90.7844 9.40815 92.0728 9.12695C92.304 9.0765 92.6918 9.01364 93.1855 9.01364C94.5093 9.01364 96.5922 9.46646 98.446 11.8269C100.225 14.0922 99.7557 16.5606 98.8963 18.4062M94.2344 25.8267C93.5104 27.9217 91.9649 29.6085 89.8812 30.5766L69.927 39.8496C65.64 41.8416 60.4587 40.1718 58.3771 36.1274L27.2599 -24.3298C26.2972 -26.1998 26.146 -28.3274 26.8346 -30.3211C27.5582 -32.4156 29.1041 -34.1028 31.1874 -35.0709L51.142 -44.3435C55.4286 -46.3355 60.6099 -44.6661 62.6919 -40.6213L74.5501 -17.5818C73.5332 -16.7278 72.8263 -15.6374 72.5189 -14.4129C72.0706 -12.6272 72.3431 -10.8309 73.285 -9.35414C74.0198 -8.20245 75.5174 -6.70588 78.4813 -6.11701C79.3944 -5.93547 80.0826 -5.69727 80.5937 -5.46611C80.3554 -5.0869 80.1413 -4.68618 79.9655 -4.25404C78.85 -1.51315 78.6167 2.25413 83.8388 4.63649C85.3552 5.32833 86.6515 5.8866 87.613 6.29352C86.5411 7.14416 85.7859 8.23092 85.5035 9.43223C84.6078 13.24 87.1506 16.6161 92.1395 18.2425C92.8489 18.4741 93.5171 19.0179 94.1128 19.6816L93.8091 19.8355C94.7718 21.7059 94.9226 23.8335 94.2344 25.8267M41.2663 14.5025C41.2447 14.56 41.2167 14.6254 41.1834 14.6957C40.9951 13.8897 40.7973 12.7959 40.5931 11.5735L41.7208 13.764C41.5283 13.9732 41.3717 14.2205 41.2663 14.5025M77.6588 -28.6699C79.6571 -31.5183 80.5523 -31.1287 81.3421 -30.7839C82.8618 -30.1214 82.4127 -28.5818 82.239 -28.1261C81.168 -25.3161 79.3559 -21.8255 78.4145 -20.0717L75.6801 -25.3844C76.09 -26.1808 76.764 -27.3945 77.6588 -28.6699M93.2584 -7.59464C90.0624 -9.06681 86.9494 -9.38606 84.3995 -8.48373C83.4506 -9.21527 81.873 -10.082 79.3807 -10.5774C78.293 -10.7937 77.5236 -11.2122 77.1562 -11.7883C76.8158 -12.3213 76.8646 -12.9118 76.9654 -13.3134C77.0258 -13.5545 77.2345 -14.0176 77.9531 -14.4117C78.9916 -14.9812 81.5877 -15.6585 87.3089 -13.7931C91.3788 -12.4665 92.8093 -9.79794 93.2584 -7.59464M92.6259 4.46947C92.2235 3.76357 91.6265 3.04733 90.7559 2.67681L90.2148 2.44854C89.2704 2.05155 87.6895 1.387 85.7524 0.503283C83.9637 -0.312617 83.5184 -0.840285 84.214 -2.55024C84.544 -3.36077 85.1005 -3.89794 85.9149 -4.19238C87.4579 -4.75065 89.6853 -4.36234 92.0252 -3.12836C95.8639 -1.1037 97.2836 1.59666 96.2751 4.91071C95.0945 4.54391 93.8656 4.39132 92.6259 4.46947M102.06 9.02988C101.525 8.34838 100.943 7.73801 100.326 7.20124C102.041 2.8149 101.179 -1.28321 97.972 -4.43184C98.3686 -8.56841 96.9014 -15.4533 88.7387 -18.1148C86.7449 -18.7649 84.9116 -19.1916 83.237 -19.4042C84.2609 -21.3776 85.6135 -24.1255 86.525 -26.5161C87.8464 -29.9824 86.4421 -33.5288 83.1853 -34.9489C78.0511 -37.1878 74.9255 -32.7328 73.8987 -31.2693C73.6475 -30.9116 73.4134 -30.5592 73.193 -30.2164L66.7724 -42.691C63.5802 -48.8928 55.6974 -51.4832 49.1997 -48.4635L29.2446 -39.1905C26.0257 -37.6947 23.6304 -35.0688 22.4998 -31.7961C21.4051 -28.6256 21.6463 -25.2387 23.1793 -22.2601L32.6097 -3.93809C32.0281 -4.20151 31.4012 -4.4335 30.7205 -4.62455C27.6612 -5.48304 24.9997 -5.03602 23.4196 -3.39801C21.5967 -1.50817 21.4001 1.48415 22.8185 5.75057C24.4448 10.6418 24.0907 12.3406 23.4484 15.4247C22.9893 17.628 22.4182 20.3698 22.3532 24.9236C22.2782 30.1697 23.081 34.3021 24.2136 37.5099C24.7418 40.539 25.5658 47.9015 22.5086 53.7146C20.035 58.4181 8.64547 84.4053 5.29248 92.0763C4.78884 93.2297 5.32414 94.5662 6.48596 95.0657V95.0657C7.64653 95.5645 8.99331 95.0384 9.49653 93.8868C12.8162 86.2951 24.1986 60.3303 26.5706 55.8199C28.2735 52.5815 28.9967 49.0387 29.2229 45.8062C30.0315 46.6084 30.6047 46.9988 30.6918 47.0559C31.0833 47.3139 31.527 47.4375 31.9665 47.4375C32.7092 47.4375 33.4386 47.0831 33.8781 46.4252C34.578 45.379 34.3014 43.9746 33.2466 43.2799C33.0779 43.1629 30.4922 41.3032 28.6822 36.4607C28.5272 35.618 28.3981 35.0932 28.3739 34.9985L28.2027 35.0411C27.4167 32.4486 26.8755 29.1462 26.9351 24.9881C26.9943 20.8672 27.4946 18.465 27.9357 16.3457C28.631 13.0081 29.1804 10.3714 27.17 4.32471C26.1857 1.36381 26.4515 0.0359627 26.7293 -0.252269C27.0151 -0.547945 28.1198 -0.627346 29.4745 -0.247309C30.9084 0.155058 34.2664 1.09709 35.3236 7.65737C35.4394 8.37857 35.5473 9.05717 35.6485 9.69443C36.1659 12.9485 36.5079 15.0981 36.9541 16.5979C37.6543 18.953 38.9336 20.1547 40.7561 20.1696C42.2633 20.1907 43.3747 19.393 44.1525 18.4882L54.2964 38.1967C56.5842 42.6414 61.2794 45.2309 66.1488 45.2305C68.0742 45.2305 70.0283 44.8253 71.8695 43.9697L78.2835 40.9889C74.681 45.5072 69.7454 51.0791 65.3169 53.937C61.4477 56.4344 60.3863 56.5675 57.529 56.0518C56.2172 55.8145 54.9596 56.7408 54.8363 58.091C54.7272 59.2877 55.6407 60.3393 56.8325 60.5494C57.6661 60.6958 58.4184 60.7893 59.1278 60.8244L34.1047 111.354L38.2171 113.36L64.9082 59.4631C65.7813 59.016 66.7307 58.4503 67.8146 57.751C76.1444 52.3747 85.4806 39.1644 87.0299 36.9247L91.8242 34.6966C95.0431 33.2009 97.4384 30.5749 98.5689 27.3022C98.741 26.8043 98.876 26.3011 98.9822 25.7949L100.321 24.3955C102.943 21.6538 106.681 14.914 102.06 9.02988" fill="#FCC537"/>
<path fill-rule="evenodd" clip-rule="evenodd" d="M67.591 -5.45508C66.9569 -5.92738 66.2495 -6.26287 65.4677 -6.46154C64.6863 -6.66021 63.8312 -6.7577 62.9024 -6.75525C61.9736 -6.75197 61.0055 -6.71223 59.9973 -6.63604C58.9894 -6.55985 58.1992 -6.61597 57.6253 -6.8044C57.0519 -6.99324 56.5949 -7.40902 56.2533 -8.05214C55.9168 -8.68666 55.8147 -9.26628 55.9478 -9.79184C56.0805 -10.317 56.44 -10.7291 57.0264 -11.0265C57.6831 -11.3603 58.3185 -11.3742 58.9321 -11.0683C59.5452 -10.7614 60.0919 -10.1568 60.5715 -9.25277L65.0734 -11.5401C64.1978 -13.1918 63.0108 -14.3183 61.5132 -14.92C60.3124 -15.4026 59.0296 -15.4951 57.6672 -15.2108L56.8402 -16.7695C56.3291 -17.7329 55.1057 -18.1123 54.1213 -17.6121L53.7182 -17.4069C52.7338 -16.9071 52.3462 -15.7094 52.8572 -14.7459L53.6286 -13.2917C52.509 -12.4045 51.7385 -11.3734 51.33 -10.1929C50.8227 -8.7268 50.9583 -7.2595 51.7372 -5.79057C52.2031 -4.91273 52.7413 -4.23765 53.3528 -3.76494C53.9643 -3.29223 54.6612 -2.95674 55.443 -2.75807C56.2249 -2.5594 57.0787 -2.46887 58.0046 -2.4873C58.9308 -2.50533 59.9211 -2.56186 60.9754 -2.65648C62.0302 -2.75069 62.8346 -2.69089 63.3883 -2.47583C63.9421 -2.26037 64.4012 -1.80936 64.7654 -1.12323C65.0927 -0.505917 65.1764 0.0667468 65.0173 0.594761C64.8574 1.12237 64.4757 1.53978 63.8713 1.84659C63.046 2.26605 62.2717 2.3316 61.5484 2.04199C60.826 1.75279 60.2019 1.11294 59.6762 0.122046L55.1873 2.40287C56.1416 4.20197 57.4278 5.38826 59.0455 5.96216C60.4685 6.46682 62.0565 6.44511 63.8086 5.89907L64.8817 7.92265C65.3928 8.8861 66.6166 9.26501 67.601 8.76485L68.0041 8.56003C68.9885 8.05987 69.3757 6.86252 68.8646 5.89907L67.745 3.78783C68.716 2.95915 69.3761 2.01044 69.7243 0.941718C70.1902 -0.486665 70.0286 -1.94372 69.2401 -3.42986C68.7746 -4.3077 68.2251 -4.98236 67.591 -5.45508" fill="#FCC537"/>
</g>
</svg>
