<svg width="100" height="100" viewBox="0 0 100 100" fill="none" xmlns="http://www.w3.org/2000/svg">
<circle cx="50.0841" cy="49.9769" r="49.1822" fill="#2D2B2C"/>
<mask id="mask0_4605_1233" style="mask-type:alpha" maskUnits="userSpaceOnUse" x="0" y="0" width="100" height="100">
<circle cx="50.0841" cy="49.9769" r="49.1822" fill="white"/>
</mask>
<g mask="url(#mask0_4605_1233)">
<path fill-rule="evenodd" clip-rule="evenodd" d="M5.48359 36.2755C5.05208 35.8275 0.996838 31.6134 -1.69628 28.894C-1.25769 28.3025 -0.603526 27.6508 0.0474512 27.5856C2.81384 27.3094 4.37173 27.7117 5.10235 28.8919C5.56642 29.642 6.58732 30.8753 7.81954 32.2658C7.94697 32.8562 8.34662 33.3786 8.94273 33.6404C9.00114 33.6659 9.0599 33.6878 9.11901 33.707C10.3799 35.0847 11.725 36.5039 12.873 37.6979C11.5898 37.5378 10.4532 37.383 9.59265 37.2488C8.53565 37.0834 7.08254 36.7306 5.48359 36.2755M-12.2411 31.89C-12.445 31.9715 -12.6421 32.0618 -12.8354 32.1564C-13.1897 30.9773 -13.3274 29.6474 -12.5101 29.0413C-10.0495 27.2184 -7.23147 28.9461 -6.35358 29.766C-5.70154 30.3748 -4.21162 31.8815 -2.62471 33.5055C-3.75038 33.0461 -4.69906 32.6108 -5.33305 32.2449C-7.32952 31.0924 -9.91219 30.9596 -12.2411 31.89M16.2645 30.7289C17.9247 31.4412 18.5583 32.0568 20.25 33.7027C20.976 34.4085 21.8794 35.2876 23.0872 36.381C24.204 37.3918 25.1467 38.2309 25.9201 38.9028C24.2125 38.8482 21.5502 38.6322 18.7895 38.3577C18.6974 38.16 18.5778 37.972 18.4157 37.808C16.6829 36.0544 14.3187 33.5992 12.3063 31.4164C13.0542 30.5986 14.3169 29.8945 16.2645 30.7289M70.668 34.0477C67.9568 33.0985 66.5621 31.6711 64.6315 29.6951C61.8793 26.8794 58.4552 23.3751 49.9415 19.8269C46.4116 18.3556 44.3988 17.9126 42.6221 17.5215C40.3435 17.02 38.5439 16.6237 33.7495 13.7392C29.4359 11.1434 26.2851 11.5961 23.2153 15.2526C22.2001 16.4618 21.7827 18.0432 22.0086 19.8262C22.4581 23.3797 25.3371 27.1287 27.9488 28.9953C29.906 30.3943 31.8076 32.8286 32.8476 34.2793C31.8628 35.3677 30.8355 36.3881 29.9314 37.1921C29.398 36.7667 28.2235 35.7771 25.6996 33.4919C24.5434 32.4453 23.6673 31.5935 22.964 30.9089C21.1912 29.1851 20.1215 28.1445 17.7979 27.1482C14.3083 25.6518 11.5112 26.771 9.71893 28.5196C9.10335 27.796 8.6414 27.2098 8.41308 26.8411C6.0782 23.0673 1.24666 23.5504 -0.339894 23.7091C-2.27336 23.9025 -3.67726 25.1446 -4.55125 26.2213C-7.00224 24.4585 -11.1835 23.2097 -14.8278 25.9107C-17.9159 28.1994 -17.1835 32.2321 -15.9662 34.9377C-16.2511 35.4063 -16.4766 35.9057 -16.632 36.4302C-17.8501 40.543 -16.3262 44.5003 -12.5559 47.015C-10.2504 48.5528 -6.86772 49.903 -1.83689 51.4663C-1.75796 51.6062 -1.66734 51.7412 -1.55088 51.8626C-1.17636 52.2526 7.73343 61.4472 17.6485 63.7724C21.0298 64.5657 32.5502 65.0956 38.4182 64.5197C44.0257 63.9696 57.0495 64.9072 61.6952 65.6042C63.932 65.94 70.6248 67.4325 77.0974 68.8758C84.0047 70.4165 91.1474 72.0092 94.374 72.5472C94.4826 72.5653 94.5903 72.5741 94.6965 72.5741C95.631 72.5741 96.4558 71.8987 96.6143 70.946C96.7913 69.8848 96.0749 68.8811 95.0143 68.7043C91.8918 68.1833 84.8012 66.6023 77.9445 65.0733C71.1052 63.5478 64.6453 62.1077 62.2729 61.7514C57.338 61.0108 44.0229 60.0552 38.0388 60.6421C32.2065 61.2141 21.313 60.6301 18.537 59.9791C14.2262 58.9682 10.006 56.3647 6.81413 53.9651C7.12104 54.0494 7.45008 54.118 7.74582 54.2208C16.2608 57.1793 18.051 58.0644 18.0765 58.0839H19.2053C20.7616 58.0839 21.5888 56.2467 20.5572 55.0815V55.0815C20.2712 54.8389 19.9257 53.517 8.77379 50.4633C-1.28326 47.7092 -7.31693 45.8274 -10.3959 43.7731C-12.7042 42.2339 -13.6164 39.9607 -12.8986 37.5371C-12.8019 37.2109 -12.6239 36.8981 -12.3824 36.6119C-12.2957 36.5354 -12.2196 36.4504 -12.1495 36.3615C-11.7892 36.0148 -11.3283 35.7201 -10.7977 35.5083C-9.58526 35.0238 -8.23694 35.0663 -7.2787 35.6195C-3.91266 37.5626 5.15041 40.4973 8.99149 41.098C11.7745 41.5329 25.0705 43.1615 28.0752 42.7322C30.947 42.3217 35.1304 37.661 36.7956 35.6765L37.7113 34.5853L36.9495 33.3814C36.82 33.1771 33.7403 28.3464 30.2118 25.825C28.3509 24.495 26.1622 21.6361 25.8716 19.3367C25.7406 18.3018 26.0836 17.8931 26.1969 17.7585C28.1286 15.457 29.2224 15.5615 31.7431 17.0777C37.0841 20.2916 39.2628 20.7712 41.7857 21.3265C43.4027 21.6825 45.2356 22.0859 48.4438 23.4233C56.2254 26.6665 59.212 29.7227 61.8474 32.4191C63.8849 34.5046 65.8103 36.4745 69.3813 37.7251C77.422 40.5409 92.1987 43.2344 97.7046 44.0306C98.7687 44.1847 99.7567 43.4466 99.9103 42.3816C100.064 41.3169 99.3262 40.3287 98.2621 40.175C92.8727 39.3954 78.4418 36.7703 70.668 34.0477Z" fill="#FCC537"/>
</g>
</svg>
