<svg width="99" height="100" viewBox="0 0 99 100" fill="none" xmlns="http://www.w3.org/2000/svg">
<circle cx="49.1822" cy="50.1088" r="49.1822" fill="#2D2B2C"/>
<mask id="mask0_4605_1273" style="mask-type:alpha" maskUnits="userSpaceOnUse" x="0" y="0" width="99" height="100">
<circle cx="49.1822" cy="50.1088" r="49.1822" fill="white"/>
</mask>
<g mask="url(#mask0_4605_1273)">
<path fill-rule="evenodd" clip-rule="evenodd" d="M65.1988 32.2827C66.4376 27.9695 66.9725 22.7994 63.4765 20.6344C59.5875 18.2263 56.0168 19.1829 52.8632 23.4765C50.1 27.2382 46.8091 36.833 43.9544 45.7228L43.7893 46.2359C43.5752 46.9021 43.3802 47.5544 43.1974 48.1969C42.6819 48.0154 41.926 47.5922 41.2795 46.8168C40.5148 45.899 39.7373 44.2664 40.3754 41.6974L40.4136 41.5439L44.9857 -15.104C45.1348 -16.8808 46.5828 -18.2693 48.3537 -18.334L70.7104 -19.1503C71.7229 -19.1878 72.6745 -18.7999 73.377 -18.058C74.0791 -17.3166 74.4187 -16.346 74.3318 -15.3128L70.5272 33.7688C70.5241 33.8069 70.5247 33.8447 70.5241 33.8825C69.263 33.0717 67.5874 32.3002 65.7396 32.2659C65.5565 32.262 65.3764 32.2687 65.1988 32.2827M82.9093 11.8514C83.0915 13.1507 83.4644 15.8106 75.6481 17.1817L76.1399 10.835C76.1938 10.8255 76.2473 10.8154 76.3008 10.8011C77.6776 10.4366 80.9681 9.98367 82.3529 10.9102C82.6855 11.1323 82.8464 11.4051 82.9093 11.8514M80.209 25.182C80.6063 25.4289 80.818 25.7416 80.9177 26.2278C81.0995 27.1161 80.9876 27.8146 80.5646 28.426C79.957 29.3046 78.411 30.4591 74.5567 31.2608L75.0506 24.8889C76.5667 24.6045 78.988 24.4227 80.209 25.182M78.4977 -2.37322C78.5294 -2.37637 78.5613 -2.37846 78.593 -2.38126C79.9694 -2.49773 81.4389 -2.41939 82.278 -1.88041C82.6395 -1.64817 82.83 -1.35228 82.9155 -0.897947C82.9631 -0.543644 82.9898 -0.230263 83.001 0.0523398C82.9871 0.804665 82.7514 1.24711 82.5484 1.53251C81.7434 2.66537 79.7615 3.55655 76.6552 4.1903L77.1495 -2.1847C77.5193 -2.2529 77.934 -2.31446 78.3705 -2.35993C78.4133 -2.36447 78.455 -2.36937 78.4977 -2.37322M88.8928 35.1675C86.9029 34.9346 85.1754 35.2063 83.7201 35.7103C83.0399 34.9836 81.8442 34.1179 79.8043 33.6387C81.5672 32.8427 82.8605 31.8424 83.7034 30.6235C84.7371 29.1286 85.06 27.3883 84.6627 25.4506C84.3517 23.9344 83.507 22.7096 82.2193 21.909C80.7639 21.0042 78.9294 20.7684 77.2993 20.7957C81.1901 20.0266 87.6283 17.9595 86.6954 11.3135C86.4809 9.78364 85.7114 8.53606 84.4698 7.70574C83.8112 7.2654 83.0573 6.9758 82.2714 6.79183C85.0138 5.71423 86.8855 3.85143 86.8205 0.0929498C86.8271 -0.392861 86.7889 -0.896859 86.7034 -1.4187C86.7002 -1.44073 86.6989 -1.46137 86.6961 -1.48375C86.6943 -1.49424 86.6915 -1.50404 86.6902 -1.51453C86.6874 -1.52957 86.6867 -1.54391 86.6839 -1.5586C86.6808 -1.57748 86.6749 -1.59497 86.6714 -1.61351C86.4343 -3.08353 85.6804 -4.28599 84.4764 -5.09288C82.4295 -6.46497 79.4629 -6.39223 77.4553 -6.12606L78.1432 -15.0008C78.3198 -17.1032 77.5916 -19.1849 76.1453 -20.7123C74.699 -22.2397 72.6716 -23.0717 70.5719 -22.9951L48.2156 -22.1788C44.5146 -22.0435 41.4886 -19.1415 41.1757 -15.4219L40.8834 -11.8009C40.5178 -12.2496 40.1087 -12.6578 39.6492 -13.0012C38.2797 -14.0243 36.6378 -14.3716 34.8999 -14.0057C28.6243 -12.6836 28.5256 -8.92271 28.4113 -4.5672C28.3887 -3.71274 28.3633 -2.74392 28.2976 -1.71039C27.9448 3.85073 25.0467 9.87108 21.5563 12.2935C19.3607 13.8174 10.4307 16.6102 -4.98551 20.5942L-6.36714 20.9524C-7.38937 21.2189 -8.00319 22.2689 -7.73799 23.2975C-7.51484 24.1639 -6.73905 24.7389 -5.88887 24.7385C-5.73002 24.7385 -5.56875 24.7186 -5.40782 24.6766L-4.03454 24.3205C7.08903 21.4459 20.2974 17.8406 23.7273 15.4605C28.2309 12.3351 31.6795 5.37461 32.1133 -1.46556C32.1835 -2.57044 32.21 -3.57739 32.2332 -4.46542C32.3462 -8.76637 32.3667 -9.54143 35.6833 -10.2399C36.3555 -10.3815 36.8748 -10.2812 37.3666 -9.91462C38.9669 -8.72195 39.847 -5.10827 40.026 -3.10872C40.0412 -2.93104 40.0823 -2.76211 40.1414 -2.60262L36.6284 40.9245C36.4459 41.7027 36.3507 42.4687 36.3312 43.2161C33.5026 43.5463 26.6643 44.4214 20.5316 45.8043C12.8064 47.5468 -9.64689 53.4842 -9.87247 53.5441C-10.8937 53.8144 -11.5037 54.8661 -11.2353 55.8937C-11.0094 56.7573 -10.235 57.3284 -9.3876 57.3284C-9.22667 57.3284 -9.06296 57.3081 -8.90029 57.2648C-8.67506 57.2053 13.7104 51.2857 21.3676 49.5589C27.42 48.1935 34.3848 47.3163 36.9895 47.0138C37.4414 48.1295 38.1177 49.1392 39.0103 49.9965C39.9867 50.9345 41.1514 51.5984 42.2731 51.9226C40.3131 61.2191 41.5814 67.7155 42.3933 71.866L42.4767 72.2941C43.1288 75.6497 43.8194 77.2439 44.3738 78.525C44.9932 79.9552 45.402 80.8999 45.4923 84.2547C45.5646 86.9492 45.9988 97.656 46.0172 98.1103C46.0592 99.1452 46.9063 99.9556 47.9261 99.9556C47.9521 99.9556 47.9789 99.9549 48.0053 99.9539C49.0602 99.9105 49.8805 99.0148 49.8374 97.9536C49.8329 97.8424 49.3859 86.8188 49.3143 84.1509C49.2041 80.0482 48.59 78.6307 47.8792 76.9885C47.3738 75.8211 46.801 74.4983 46.2288 71.5558L46.1447 71.1231C45.1899 66.2423 43.7475 58.8666 47.4276 47.4202L47.5931 46.9057C49.1193 42.1525 53.1742 29.5267 55.9381 25.7633C58.3997 22.4119 59.9613 22.9747 61.4733 23.911C63.3485 25.0722 61.8146 31.2419 59.8703 35.7509C57.6632 38.7011 56.5196 42.5561 56.3291 43.2367C56.0427 44.2587 56.6336 45.3199 57.6489 45.6091C57.8227 45.6585 57.9975 45.6819 58.1699 45.6819C59.0031 45.6819 59.7698 45.1289 60.0086 44.2825C60.4299 42.7884 61.1577 40.977 62.0378 39.4391C62.4489 38.7512 63.0117 38.1118 63.1813 37.7347C63.9693 36.7572 64.8153 36.1122 65.6404 36.1122C65.6502 36.1122 65.6602 36.1126 65.67 36.1126C66.85 36.1346 68.0957 36.8341 68.9911 37.4927C68.0356 38.3255 67.3818 39.0085 67.1938 39.2097C66.4704 39.9826 66.5069 41.1984 67.2744 41.9269C67.6435 42.2774 68.1148 42.4508 68.5855 42.4508C69.0933 42.4508 69.6001 42.2487 69.9761 41.8482C71.4992 40.2264 75.39 36.9534 77.716 37.1867C78.7946 37.2954 79.5398 37.527 80.0507 37.7652C78.8759 38.7176 78.2374 39.5783 78.1748 39.6647C77.5561 40.5191 77.7421 41.7101 78.5867 42.3389C79.431 42.9678 80.6256 42.7873 81.2565 41.942C81.3628 41.7996 83.9137 38.4577 88.4513 38.989C89.5688 39.1198 90.7662 40.1355 91.8225 41.8493C94.4043 46.0379 95.3233 52.7585 93.8704 56.8311C93.2299 58.6267 92.8114 58.6078 91.8055 58.5627C91.6894 58.5578 91.5691 58.5526 91.4464 58.5498C91.3095 53.1027 90.4277 48.0522 90.3745 47.7535C90.1889 46.7081 89.1948 46.0124 88.1569 46.1985C87.1177 46.3849 86.4257 47.3842 86.6109 48.4299C86.6279 48.5279 88.3318 58.2871 87.3217 64.766C86.2505 71.6376 84.5084 92.0214 84.4347 92.8857C84.3447 93.944 85.1243 94.8758 86.1764 94.9667C86.2317 94.9713 86.287 94.9737 86.3419 94.9737C87.3234 94.9737 88.159 94.2168 88.2442 93.2141C88.2619 93.0039 90.0485 72.1018 91.0992 65.3623C91.2466 64.4162 91.3422 63.4173 91.3992 62.3967C91.4781 62.3992 91.5625 62.403 91.6359 62.4062C93.013 62.4674 95.8763 62.5954 97.4693 58.1308C99.2965 53.0089 98.243 44.9663 95.0717 39.821C93.3633 37.0496 91.2268 35.4403 88.8928 35.1675Z" fill="#FCC537"/>
</g>
</svg>
