<svg width="134" height="134" viewBox="0 0 134 134" fill="none" xmlns="http://www.w3.org/2000/svg">
<circle cx="67.0444" cy="66.7934" r="66.4077" fill="#2D2B2C"/>
<mask id="mask0_4605_893" style="mask-type:alpha" maskUnits="userSpaceOnUse" x="0" y="0" width="134" height="134">
<circle cx="67.0444" cy="66.7934" r="66.4077" fill="white"/>
</mask>
<g mask="url(#mask0_4605_893)">
<path fill-rule="evenodd" clip-rule="evenodd" d="M88.6707 42.7241C90.3433 36.9003 91.0656 29.9194 86.3453 26.9962C81.0941 23.7447 76.2728 25.0363 72.0148 30.8337C68.2837 35.9128 63.8403 48.8681 59.9858 60.8714L59.7629 61.5642C59.4738 62.4638 59.2105 63.3446 58.9636 64.2121C58.2676 63.967 57.2469 63.3956 56.3739 62.3486C55.3414 61.1094 54.2916 58.9049 55.1533 55.4362L55.2049 55.2289L61.3782 -21.2592C61.5796 -23.6582 63.5347 -25.5331 65.9259 -25.6204L96.1126 -26.7227C97.4797 -26.7732 98.7647 -26.2495 99.7132 -25.2478C100.661 -24.2466 101.12 -22.9361 101.002 -21.5411L95.8653 44.7307C95.8611 44.7822 95.862 44.8332 95.8611 44.8842C94.1584 43.7895 91.8958 42.7477 89.401 42.7014C89.1536 42.6962 88.9105 42.7052 88.6707 42.7241M112.584 15.1369C112.83 16.8914 113.334 20.4829 102.78 22.3341L103.444 13.7646C103.517 13.7518 103.589 13.7381 103.661 13.7188C105.52 13.2267 109.963 12.6151 111.833 13.8661C112.282 14.166 112.499 14.5343 112.584 15.1369M108.938 33.1364C109.475 33.4699 109.76 33.892 109.895 34.5485C110.14 35.748 109.989 36.6911 109.418 37.5166C108.598 38.7029 106.51 40.2618 101.306 41.3442L101.973 32.7407C104.02 32.3568 107.289 32.1112 108.938 33.1364M106.627 -4.06963C106.67 -4.07388 106.713 -4.07672 106.756 -4.0805C108.614 -4.23776 110.599 -4.13197 111.731 -3.40423C112.22 -3.09065 112.477 -2.69113 112.592 -2.07767C112.657 -1.59928 112.693 -1.17614 112.708 -0.794556C112.689 0.221261 112.371 0.818662 112.097 1.20402C111.01 2.73365 108.334 3.93695 104.139 4.79267L104.807 -3.81509C105.306 -3.90718 105.866 -3.9903 106.455 -4.05169C106.513 -4.05783 106.57 -4.06444 106.627 -4.06963M120.663 46.6193C117.976 46.3048 115.643 46.6717 113.678 47.3522C112.76 46.3709 111.146 45.2021 108.391 44.5551C110.771 43.4802 112.518 42.1296 113.656 40.4838C115.052 38.4654 115.488 36.1154 114.951 33.4992C114.531 31.4519 113.391 29.7981 111.652 28.7171C109.687 27.4954 107.21 27.1771 105.009 27.2139C110.262 26.1754 118.955 23.3844 117.696 14.4107C117.406 12.345 116.367 10.6605 114.691 9.53937C113.801 8.94481 112.783 8.55378 111.722 8.30537C115.425 6.85036 117.952 4.33514 117.865 -0.739696C117.874 -1.39566 117.822 -2.07617 117.707 -2.78078C117.702 -2.81053 117.7 -2.83839 117.697 -2.86861C117.694 -2.88278 117.691 -2.89601 117.689 -2.91017C117.685 -2.93048 117.684 -2.94984 117.68 -2.96968C117.676 -2.99518 117.668 -3.01879 117.663 -3.04382C117.343 -5.0287 116.325 -6.65231 114.7 -7.7418C111.936 -9.59445 107.93 -9.49622 105.22 -9.13684L106.148 -21.1198C106.387 -23.9585 105.403 -26.7694 103.451 -28.8317C101.498 -30.894 98.7603 -32.0175 95.9252 -31.9141L65.739 -30.8119C60.7417 -30.6291 56.6559 -26.7108 56.2335 -21.6884L55.8388 -16.7991C55.3451 -17.4051 54.7927 -17.9562 54.1722 -18.4199C52.3231 -19.8013 50.1061 -20.2702 47.7595 -19.7762C39.2861 -17.9911 39.1528 -12.913 38.9984 -7.032C38.9679 -5.87829 38.9336 -4.57014 38.8449 -3.17463C38.3686 4.3342 34.4554 12.4631 29.7426 15.7339C26.7779 17.7915 14.7203 21.5625 -6.09518 26.9419L-7.9607 27.4255C-9.34095 27.7854 -10.1698 29.2031 -9.81168 30.592C-9.51038 31.7617 -8.46287 32.5381 -7.31492 32.5376C-7.10045 32.5376 -6.88269 32.5107 -6.66539 32.4541L-4.81113 31.9733C10.2083 28.0919 28.0427 23.2239 32.6739 20.0102C38.7548 15.7901 43.4113 6.3918 43.997 -2.84406C44.0918 -4.33591 44.1275 -5.69552 44.159 -6.89458C44.3115 -12.7019 44.3392 -13.7484 48.8174 -14.6915C49.725 -14.8827 50.4262 -14.7472 51.0903 -14.2523C53.251 -12.6419 54.4393 -7.76258 54.681 -5.06271C54.7016 -4.8228 54.757 -4.5947 54.8368 -4.37935L50.0934 54.3926C49.847 55.4434 49.7184 56.4776 49.6922 57.4868C45.8729 57.9326 36.6396 59.1142 28.359 60.9815C17.9281 63.3342 -12.3891 71.3512 -12.6937 71.432C-14.0726 71.797 -14.8962 73.2171 -14.5339 74.6046C-14.2289 75.7706 -13.1832 76.5418 -12.039 76.5418C-11.8217 76.5418 -11.6007 76.5144 -11.3811 76.4558C-11.0769 76.3755 19.1487 68.3826 29.4877 66.0511C37.6599 64.2074 47.064 63.023 50.581 62.6145C51.1912 64.121 52.1044 65.4844 53.3096 66.6419C54.6279 67.9085 56.2006 68.8048 57.7151 69.2426C55.0686 81.7951 56.7812 90.5667 57.8775 96.171L57.9901 96.749C58.8705 101.28 59.8031 103.432 60.5516 105.162C61.3879 107.093 61.9399 108.369 62.0619 112.899C62.1595 116.537 62.7457 130.994 62.7705 131.607C62.8273 133.004 63.971 134.099 65.348 134.099C65.3832 134.099 65.4193 134.098 65.455 134.096C66.8794 134.038 67.987 132.828 67.9288 131.395C67.9227 131.245 67.3191 116.361 67.2225 112.758C67.0737 107.219 66.2444 105.305 65.2847 103.088C64.6023 101.511 63.8288 99.7251 63.0564 95.7521L62.9428 95.1679C61.6536 88.5776 59.7059 78.6187 64.675 63.1633L64.8984 62.4686C66.9592 56.0507 72.4342 39.0028 76.1662 33.9213C79.4898 29.3962 81.5985 30.1561 83.64 31.4203C86.1719 32.9882 84.1009 41.3187 81.4755 47.407C78.4954 51.3905 76.9513 56.5957 76.6941 57.5147C76.3074 58.8946 77.1053 60.3274 78.4761 60.718C78.7108 60.7845 78.9468 60.8162 79.1796 60.8162C80.3046 60.8162 81.3399 60.0695 81.6623 58.9267C82.2311 56.9092 83.2139 54.4634 84.4022 52.3869C84.9572 51.4581 85.7172 50.5947 85.9462 50.0856C87.0101 48.7657 88.1524 47.8949 89.2666 47.8949C89.2797 47.8949 89.2933 47.8953 89.3065 47.8953C90.8998 47.9251 92.5818 48.8696 93.7908 49.7588C92.5006 50.8833 91.6179 51.8056 91.364 52.0771C90.3873 53.1208 90.4366 54.7624 91.4728 55.7461C91.9713 56.2193 92.6076 56.4535 93.2431 56.4535C93.9288 56.4535 94.613 56.1805 95.1208 55.6398C97.1774 53.45 102.431 49.0306 105.571 49.3456C107.028 49.4925 108.034 49.8051 108.724 50.1267C107.138 51.4127 106.275 52.5749 106.191 52.6915C105.356 53.8453 105.607 55.4533 106.747 56.3024C107.887 57.1515 109.5 56.9078 110.352 55.7664C110.496 55.5742 113.94 51.0618 120.067 51.7791C121.576 51.9558 123.192 53.3272 124.619 55.6412C128.105 61.2969 129.346 70.3713 127.384 75.8702C126.519 78.2948 125.954 78.2693 124.596 78.2083C124.439 78.2017 124.276 78.1946 124.111 78.1909C123.926 70.836 122.735 64.0166 122.663 63.6133C122.413 62.2018 121.071 61.2625 119.669 61.5137C118.266 61.7654 117.332 63.1146 117.582 64.5267C117.605 64.6589 119.905 77.8362 118.541 86.5842C117.095 95.8626 114.743 123.386 114.643 124.552C114.522 125.982 115.574 127.24 116.995 127.362C117.07 127.369 117.144 127.372 117.218 127.372C118.544 127.372 119.672 126.35 119.787 124.996C119.811 124.712 122.223 96.4893 123.642 87.3894C123.841 86.112 123.97 84.7632 124.047 83.3852C124.154 83.3885 124.268 83.3937 124.367 83.3979C126.226 83.4806 130.092 83.6534 132.243 77.6251C134.71 70.7094 133.288 59.85 129.006 52.9026C126.699 49.1605 123.814 46.9877 120.663 46.6193Z" fill="#FCC537"/>
</g>
</svg>
