<svg width="105" height="80" viewBox="0 0 105 80" fill="none" xmlns="http://www.w3.org/2000/svg">
<path fill-rule="evenodd" clip-rule="evenodd" d="M76.9695 70.4029C76.6006 71.2517 75.9146 71.8817 75.0383 72.177C74.1611 72.4722 73.2341 72.3853 72.4276 71.9324L23.0408 44.2038C21.5888 43.3885 20.9924 41.5631 21.6826 40.0476L36.8193 6.80767C37.2128 5.94313 37.9628 5.29853 38.8768 5.03941C39.167 4.95678 39.4637 4.91638 39.7588 4.91638C40.3922 4.91638 41.018 5.1032 41.5561 5.46439L88.5828 37.0172C89.8784 37.8863 90.3672 39.5558 89.7457 40.9872L76.9695 70.4029ZM3.51392 48.7875L15.2004 11.2905C15.5426 10.1926 16.3178 9.31353 17.3274 8.87884C17.6972 8.71936 18.0758 8.6343 18.4505 8.61455L6.11762 44.1455C4.9395 47.5393 6.46924 51.2404 9.58366 52.5649L51.6152 70.965L5.28262 52.9883C3.71705 52.3808 2.95674 50.5749 3.51392 48.7875V48.7875ZM24.3544 5.79496C25.2313 5.45018 26.145 5.48906 26.9274 5.90401C26.9715 5.9274 27.0158 5.94745 27.0607 5.96629L11.8044 40.9198C10.3673 44.2121 11.6058 48.0208 14.624 49.5904L33.2501 59.278L10.9065 49.4968C9.36132 48.8394 8.6587 47.0101 9.27266 45.2416L22.1515 8.13734C22.5286 7.05106 23.3314 6.19746 24.3544 5.79496V5.79496ZM32.9538 4.09657C33.5262 3.92129 34.1013 3.90307 34.6366 4.03369C34.2987 4.45533 34.0087 4.91979 33.7801 5.42254L18.6433 38.6622C17.239 41.7452 18.4524 45.4594 21.4062 47.1177L68.7799 73.7159C67.9692 73.4757 67.1469 73.1421 66.4328 72.7703L16.1647 46.6256C14.6751 45.8509 14.1164 43.9727 14.8652 42.2567L30.5764 6.26155C31.0367 5.20777 31.903 4.41857 32.9538 4.09657V4.09657ZM102.116 58.9881C102.397 59.1713 102.713 59.2591 103.026 59.2591C103.572 59.2591 104.107 58.9915 104.427 58.4997C104.93 57.7266 104.711 56.6916 103.938 56.1879L90.5685 47.4782L92.8093 42.3189C94.0737 39.407 93.079 36.0102 90.4434 34.2419L43.4167 2.68915C41.8111 1.61198 39.8247 1.29697 37.9658 1.82462C37.8668 1.85257 37.769 1.88416 37.6722 1.91666C37.5656 1.7912 37.4454 1.67486 37.2993 1.58221C35.7371 0.591913 33.7968 0.344035 31.9762 0.901761C30.6879 1.29606 29.5523 2.05427 28.6802 3.07008C28.6207 3.02725 28.5588 2.98685 28.4923 2.95161C26.8581 2.08526 24.9045 1.98835 23.1321 2.68521C21.7706 3.22106 20.6213 4.16944 19.8167 5.38543C18.5602 5.14211 17.2324 5.28154 16.0066 5.8098C14.1004 6.6306 12.6444 8.2658 12.0117 10.2956L0.325198 47.7929C-0.743611 51.2222 0.903327 54.8729 4.07514 56.1035L56.8971 76.5981L57.4555 76.8171C60.3677 77.9638 63.3403 79.0352 65.6847 79.0352C66.5167 79.0352 67.27 78.9004 67.9125 78.5857C68.1235 78.4824 68.3181 78.3615 68.4967 78.2254C68.735 78.2697 68.9737 78.2983 69.2124 78.2983C69.6189 78.2983 70.0252 78.2257 70.43 78.0522C70.7804 77.9022 71.0928 77.6904 71.3712 77.417C71.9639 77.3885 72.5478 77.2916 73.0968 77.0923C73.9397 76.7864 74.6235 76.2727 75.1212 75.5899C75.4527 75.5331 75.7816 75.4526 76.1041 75.3438C77.8618 74.7518 79.2938 73.4364 80.0328 71.7347L89.2185 50.5861L102.116 58.9881Z" fill="#FCC537"/>
</svg>
