<svg width="18" height="24" viewBox="0 0 18 24" fill="none" xmlns="http://www.w3.org/2000/svg">
<path fill-rule="evenodd" clip-rule="evenodd" d="M15.3835 10.9307C14.8277 10.521 14.2076 10.23 13.5222 10.0577C12.8372 9.88537 12.0876 9.80081 11.2734 9.80294C10.4592 9.80578 9.61053 9.84025 8.72664 9.90634C7.84312 9.97242 7.15039 9.92375 6.64735 9.7603C6.14468 9.59651 5.74401 9.23587 5.44461 8.67804C5.14961 8.12766 5.06009 7.6249 5.17677 7.16904C5.29308 6.71354 5.60825 6.3561 6.1223 6.09814C6.69798 5.80857 7.25496 5.79649 7.79285 6.0619C8.33037 6.32803 8.80956 6.85246 9.23004 7.63663L13.1765 5.65259C12.409 4.21999 11.3684 3.24289 10.0556 2.72094C9.00292 2.30239 7.87834 2.22209 6.68404 2.46867L5.95902 1.11672C5.51102 0.281039 4.43854 -0.0479762 3.57556 0.385855L3.22223 0.563864C2.35925 0.99734 2.01949 2.03626 2.46749 2.87195L3.14371 4.13329C2.16222 4.90289 1.48673 5.7972 1.12863 6.8212C0.683929 8.09284 0.802809 9.36556 1.48563 10.6397C1.894 11.4011 2.36585 11.9867 2.90191 12.3967C3.43797 12.8067 4.04888 13.0977 4.73427 13.27C5.41966 13.4424 6.16816 13.5209 6.97977 13.5049C7.79175 13.4893 8.65986 13.4402 9.58411 13.3582C10.5087 13.2764 11.2139 13.3283 11.6994 13.5148C12.1848 13.7017 12.5873 14.0929 12.9065 14.6881C13.1934 15.2235 13.2668 15.7202 13.1274 16.1782C12.9872 16.6359 12.6526 16.9979 12.1228 17.2641C11.3992 17.6279 10.7204 17.6847 10.0864 17.4335C9.45312 17.1827 8.90606 16.6277 8.44522 15.7682L4.51009 17.7466C5.34665 19.3071 6.47417 20.3361 7.89228 20.8338C9.13978 21.2716 10.5318 21.2527 12.0677 20.7791L13.0085 22.5343C13.4565 23.37 14.5294 23.6987 15.3923 23.2649L15.7457 23.0872C16.6086 22.6534 16.948 21.6148 16.5 20.7791L15.5185 18.9479C16.3698 18.2291 16.9484 17.4062 17.2537 16.4792C17.662 15.2402 17.5204 13.9764 16.8292 12.6873C16.4212 11.9259 15.9394 11.3407 15.3835 10.9307" fill="#FCC537"/>
</svg>
