<svg width="96" height="95" viewBox="0 0 96 95" fill="none" xmlns="http://www.w3.org/2000/svg">
<ellipse cx="47.5161" cy="47.3092" rx="47.5161" ry="47.299" fill="#2D2B2C"/>
<mask id="mask0_4764_903" style="mask-type:alpha" maskUnits="userSpaceOnUse" x="0" y="0" width="96" height="95">
<ellipse cx="47.5161" cy="47.3092" rx="47.5161" ry="47.299" fill="white"/>
</mask>
<g mask="url(#mask0_4764_903)">
<path fill-rule="evenodd" clip-rule="evenodd" d="M62.9902 30.1658C64.187 26.0178 64.7038 21.0457 61.3263 18.9636C57.569 16.6477 54.1193 17.5677 51.0725 21.6969C48.4029 25.3144 45.2235 34.5419 42.4655 43.0912L42.306 43.5847C42.0992 44.2255 41.9108 44.8528 41.7341 45.4707C41.2361 45.2961 40.5058 44.8891 39.8812 44.1434C39.1424 43.2608 38.3912 41.6906 39.0078 39.22L39.0447 39.0724L43.4619 -15.4063C43.6059 -17.1151 45.0049 -18.4504 46.7158 -18.5127L68.3151 -19.2977C69.2933 -19.3337 70.2127 -18.9607 70.8913 -18.2473C71.5697 -17.5342 71.8978 -16.6008 71.8138 -15.6072L68.1381 31.595C68.1351 31.6317 68.1357 31.668 68.1351 31.7043C66.9168 30.9247 65.2979 30.1826 63.5127 30.1497C63.3358 30.146 63.1618 30.1524 62.9902 30.1658ZM80.1008 10.5168C80.2768 11.7664 80.6371 14.3245 73.0855 15.643L73.5607 9.53936C73.6127 9.53028 73.6644 9.52053 73.7161 9.50673C75.0463 9.15624 78.2253 8.72065 79.5632 9.61168C79.8845 9.82527 80.04 10.0876 80.1008 10.5168ZM77.492 23.337C77.8758 23.5745 78.0803 23.8752 78.1767 24.3427C78.3523 25.1971 78.2442 25.8688 77.8355 26.4568C77.2485 27.3017 75.7548 28.412 72.0311 29.183L72.5083 23.0551C73.9731 22.7817 76.3123 22.6068 77.492 23.337ZM75.8385 -3.16307C75.869 -3.1661 75.8999 -3.16812 75.9305 -3.17081C77.2603 -3.28282 78.6801 -3.20748 79.4907 -2.68914C79.8399 -2.46579 80.0239 -2.18123 80.1066 -1.7443C80.1526 -1.40356 80.1784 -1.10218 80.1892 -0.830397C80.1757 -0.10688 79.9481 0.318621 79.7519 0.593092C78.9742 1.68257 77.0595 2.53963 74.0584 3.14912L74.5359 -2.98178C74.8932 -3.04737 75.2938 -3.10657 75.7156 -3.15029C75.7569 -3.15467 75.7972 -3.15938 75.8385 -3.16307ZM85.8812 32.9402C83.9587 32.7162 82.2898 32.9775 80.8838 33.4622C80.2266 32.7633 79.0714 31.9308 77.1006 31.4699C78.8038 30.7044 80.0533 29.7424 80.8677 28.5702C81.8663 27.1325 82.1783 25.4588 81.7945 23.5953C81.4939 22.1372 80.6779 20.9593 79.4338 20.1893C78.0278 19.3192 76.2554 19.0924 74.6805 19.1187C78.4394 18.379 84.6596 16.3911 83.7583 9.99954C83.5511 8.52829 82.8076 7.32848 81.6081 6.52996C80.9718 6.10648 80.2434 5.82797 79.4841 5.65104C82.1336 4.61471 83.9419 2.82323 83.8792 -0.791323C83.8855 -1.25853 83.8486 -1.74323 83.766 -2.24508C83.763 -2.26628 83.7616 -2.28612 83.7589 -2.30765C83.7572 -2.31774 83.7546 -2.32716 83.7532 -2.33725C83.7505 -2.35171 83.7499 -2.3655 83.7472 -2.37963C83.7441 -2.39779 83.7384 -2.41461 83.7351 -2.43244C83.5061 -3.84617 82.7777 -5.00259 81.6145 -5.77858C79.6369 -7.09813 76.7708 -7.02817 74.8312 -6.7722L75.4958 -15.3071C75.6664 -17.329 74.9629 -19.331 73.5656 -20.7999C72.1683 -22.2688 70.2096 -23.069 68.181 -22.9953L46.5821 -22.2103C43.0064 -22.0801 40.0829 -19.2893 39.7807 -15.7121L39.4983 -12.2297C39.145 -12.6612 38.7498 -13.0538 38.3058 -13.3841C36.9827 -14.3679 35.3964 -14.702 33.7174 -14.3501C27.6544 -13.0787 27.5591 -9.46176 27.4486 -5.27303C27.4268 -4.45129 27.4023 -3.51956 27.3388 -2.52561C26.998 2.82256 24.198 8.61238 20.8259 10.942C18.7046 12.4076 10.0771 15.0934 -4.81681 18.9249L-6.15163 19.2694C-7.13923 19.5257 -7.73226 20.5354 -7.47604 21.5247C-7.26045 22.3579 -6.51094 22.9108 -5.68956 22.9105C-5.5361 22.9105 -5.38029 22.8913 -5.22481 22.851L-3.89805 22.5086C6.84869 19.744 19.6096 16.2768 22.9233 13.9878C27.2743 10.9821 30.6062 4.2881 31.0252 -2.29016C31.0931 -3.35273 31.1186 -4.32112 31.1411 -5.17514C31.2502 -9.3114 31.2701 -10.0568 34.4743 -10.7285C35.1237 -10.8647 35.6254 -10.7682 36.1006 -10.4157C37.6466 -9.26868 38.4969 -5.79338 38.6698 -3.87039C38.6846 -3.69952 38.7242 -3.53706 38.7813 -3.38367L35.3873 38.4767C35.211 39.2251 35.119 39.9618 35.1002 40.6806C32.3675 40.9981 25.7608 41.8397 19.8359 43.1697C12.3723 44.8454 -9.32028 50.5555 -9.53821 50.613C-10.5248 50.873 -11.1141 51.8845 -10.8549 52.8727C-10.6366 53.7032 -9.88846 54.2525 -9.06977 54.2525C-8.91429 54.2525 -8.75613 54.233 -8.59897 54.1913C-8.38137 54.1341 13.2458 48.4411 20.6435 46.7805C26.4909 45.4674 33.2197 44.6238 35.7362 44.3328C36.1728 45.4058 36.8263 46.3769 37.6886 47.2013C38.6319 48.1034 39.7572 48.7419 40.8408 49.0537C38.9472 57.9942 40.1726 64.2418 40.957 68.2334L41.0376 68.6451C41.6676 71.8722 42.3348 73.4053 42.8704 74.6374C43.4688 76.0128 43.8637 76.9213 43.951 80.1477C44.0209 82.7391 44.4403 93.0358 44.4581 93.4728C44.4987 94.4681 45.3171 95.2474 46.3023 95.2474C46.3275 95.2474 46.3534 95.2467 46.3789 95.2457C47.3981 95.204 48.1906 94.3426 48.1489 93.3221C48.1445 93.2151 47.7127 82.6136 47.6435 80.0478C47.5371 76.1023 46.9437 74.739 46.257 73.1598C45.7687 72.037 45.2153 70.7649 44.6626 67.9351L44.5813 67.519C43.6589 62.825 42.2653 55.7318 45.8208 44.7237L45.9806 44.2289C47.4551 39.6577 51.3726 27.5153 54.0429 23.896C56.4211 20.673 57.9299 21.2142 59.3906 22.1147C61.2023 23.2314 59.7204 29.1648 57.8419 33.5012C55.7095 36.3385 54.6047 40.0459 54.4207 40.7004C54.144 41.6833 54.7149 42.7038 55.6958 42.982C55.8637 43.0294 56.0326 43.0519 56.1991 43.0519C57.0041 43.0519 57.7449 42.5201 57.9755 41.7061C58.3825 40.2692 59.0857 38.5272 59.936 37.0482C60.3331 36.3866 60.8769 35.7717 61.0408 35.4091C61.802 34.469 62.6194 33.8487 63.4166 33.8487C63.426 33.8487 63.4357 33.849 63.4451 33.849C64.5852 33.8702 65.7887 34.543 66.6537 35.1763C65.7306 35.9772 65.099 36.6341 64.9173 36.8275C64.2185 37.5709 64.2537 38.7401 64.9952 39.4407C65.3518 39.7778 65.8072 39.9446 66.2618 39.9446C66.7525 39.9446 67.2421 39.7502 67.6054 39.3651C69.0769 37.8053 72.8359 34.6576 75.0831 34.882C76.1251 34.9866 76.8451 35.2093 77.3387 35.4384C76.2037 36.3543 75.5868 37.1821 75.5264 37.2651C74.9286 38.0869 75.1083 39.2322 75.9243 39.837C76.74 40.4417 77.8941 40.2682 78.5036 39.4552C78.6064 39.3183 81.0708 36.1044 85.4547 36.6153C86.5343 36.7411 87.6912 37.7179 88.7117 39.3661C91.206 43.3943 92.0939 49.8576 90.6903 53.7742C90.0714 55.5011 89.6671 55.4829 88.6952 55.4395C88.5831 55.4348 88.4669 55.4298 88.3484 55.4271C88.2161 50.1885 87.3641 45.3315 87.3127 45.0442C87.1334 44.0388 86.173 43.3698 85.1703 43.5487C84.1663 43.728 83.4977 44.689 83.6767 45.6947C83.6931 45.7889 85.3392 55.1745 84.3634 61.4053C83.3284 68.0138 81.6454 87.617 81.5742 88.4482C81.4872 89.466 82.2404 90.3621 83.2569 90.4495C83.3103 90.4539 83.3637 90.4563 83.4167 90.4563C84.3651 90.4563 85.1723 89.7284 85.2546 88.764C85.2717 88.5619 86.9978 68.4601 88.0129 61.9787C88.1553 61.0689 88.2476 60.1082 88.3027 59.1267C88.3789 59.1291 88.4605 59.1328 88.5314 59.1358C89.8618 59.1947 92.6282 59.3178 94.1672 55.0241C95.9325 50.0984 94.9147 42.3637 91.8508 37.4155C90.2003 34.7502 88.1361 33.2025 85.8812 32.9402Z" fill="#FCC537"/>
</g>
</svg>
