<svg width="113" height="114" viewBox="0 0 113 114" fill="none" xmlns="http://www.w3.org/2000/svg">
<ellipse cx="56.519" cy="56.6822" rx="56.4583" ry="56.4727" fill="#2D2B2C"/>
<mask id="mask0_4605_1462" style="mask-type:alpha" maskUnits="userSpaceOnUse" x="0" y="0" width="113" height="114">
<ellipse cx="56.519" cy="56.6822" rx="56.4583" ry="56.4727" fill="white"/>
</mask>
<g mask="url(#mask0_4605_1462)">
<path fill-rule="evenodd" clip-rule="evenodd" d="M5.32078 40.9497C4.82543 40.4353 0.170249 35.5966 -2.92129 32.4741C-2.41782 31.7949 -1.66687 31.0466 -0.919591 30.9718C2.25606 30.6546 4.04442 31.1166 4.88314 32.4716C5.41586 33.333 6.58779 34.749 8.0023 36.3457C8.14859 37.0236 8.60736 37.6235 9.29166 37.924C9.35871 37.9533 9.42617 37.9785 9.49403 38.0005C10.9415 39.5825 12.4856 41.2121 13.8034 42.583C12.3304 42.3992 11.0256 42.2214 10.0377 42.0673C8.82436 41.8774 7.15628 41.4723 5.32078 40.9497M-15.0261 35.9142C-15.2601 36.0077 -15.4865 36.1114 -15.7083 36.22C-16.1151 34.8662 -16.2732 33.3391 -15.3349 32.6433C-12.5103 30.5501 -9.27534 32.5339 -8.26759 33.4753C-7.51908 34.1744 -5.80874 35.9044 -3.98706 37.7691C-5.27926 37.2416 -6.36829 36.7418 -7.09607 36.3217C-9.3879 34.9984 -12.3527 34.8459 -15.0261 35.9142M17.6963 34.5811C19.6021 35.3989 20.3295 36.1057 22.2714 37.9956C23.1049 38.8061 24.1419 39.8155 25.5283 41.0709C26.8104 42.2316 27.8925 43.195 28.7804 43.9665C26.8201 43.9039 23.764 43.6558 20.5948 43.3406C20.4892 43.1137 20.3518 42.8977 20.1657 42.7095C18.1766 40.696 15.4626 37.8768 13.1525 35.3704C14.0111 34.4314 15.4605 33.6229 17.6963 34.5811M80.1486 38.3917C77.0364 37.3018 75.4353 35.6629 73.2191 33.394C70.0597 30.1609 66.129 26.1372 56.3558 22.063C52.3037 20.3736 49.9931 19.8649 47.9537 19.4159C45.338 18.84 43.272 18.385 37.7684 15.0729C32.8166 12.0924 29.1996 12.6121 25.6757 16.8107C24.5103 18.1991 24.0312 20.0149 24.2905 22.0622C24.8065 26.1424 28.1114 30.4472 31.1095 32.5904C33.3562 34.1968 35.5392 36.9919 36.733 38.6577C35.6025 39.9075 34.4233 41.0791 33.3855 42.0023C32.7731 41.5139 31.4248 40.3776 28.5275 37.7537C27.2004 36.5519 26.1946 35.5738 25.3872 34.7877C23.3522 32.8084 22.1242 31.6136 19.4569 30.4696C15.4511 28.7513 12.2401 30.0364 10.1827 32.0442C9.47605 31.2134 8.94576 30.5403 8.68366 30.117C6.00336 25.7838 0.457039 26.3385 -1.36424 26.5207C-3.58374 26.7427 -5.19534 28.1689 -6.19862 29.4053C-9.01221 27.3812 -13.8121 25.9472 -17.9955 29.0486C-21.5405 31.6766 -20.6997 36.3071 -19.3023 39.4137C-19.6294 39.9518 -19.8883 40.5252 -20.0666 41.1275C-21.4649 45.8499 -19.7156 50.3938 -15.3875 53.2812C-12.7409 55.0471 -8.8578 56.5973 -3.0827 58.3924C-2.99209 58.5531 -2.88806 58.708 -2.75437 58.8475C-2.32445 59.2953 7.90346 69.8528 19.2854 72.5226C23.1669 73.4336 36.3917 74.042 43.1278 73.3807C49.5648 72.7492 64.5154 73.8257 69.8484 74.626C72.4161 75.0115 80.099 76.7253 87.5292 78.3825C95.4584 80.1516 103.658 81.9805 107.362 82.5982C107.486 82.619 107.61 82.6291 107.732 82.6291C108.805 82.6291 109.751 81.8536 109.934 80.7596C110.137 79.5412 109.314 78.3886 108.097 78.1857C104.512 77.5875 96.3727 75.772 88.5016 74.0164C80.6505 72.2648 73.2349 70.6112 70.5115 70.2021C64.8466 69.3517 49.5616 68.2545 42.6922 68.9284C35.9971 69.5852 23.492 68.9145 20.3054 68.1671C15.3568 67.0064 10.5123 64.0169 6.84816 61.2616C7.20047 61.3584 7.57819 61.4372 7.91769 61.5552C17.6924 64.9523 19.7474 65.9686 19.7767 65.9909H21.0719C22.8588 65.9909 23.8087 63.8815 22.6244 62.5435V62.5435C22.2961 62.2649 21.8995 60.7471 9.09774 57.2407C-2.44717 54.0783 -9.37346 51.9176 -12.9079 49.5589C-15.5578 47.7914 -16.6049 45.1813 -15.7808 42.3984C-15.6699 42.0238 -15.4655 41.6647 -15.1884 41.3361C-15.0888 41.2483 -15.0015 41.1507 -14.921 41.0486C-14.5073 40.6505 -13.9783 40.3121 -13.3691 40.0689C-11.9774 39.5126 -10.4296 39.5614 -9.32957 40.1966C-5.46556 42.4277 4.9383 45.7975 9.34764 46.4872C12.5424 46.9866 27.8054 48.8565 31.2546 48.3636C34.5513 47.8923 39.3536 42.5407 41.2651 40.2621L42.3163 39.0091L41.4418 37.6268C41.2931 37.3921 37.7578 31.8454 33.7073 28.9502C31.5711 27.4231 29.0586 24.1403 28.725 21.5002C28.5747 20.3118 28.9684 19.8425 29.0984 19.688C31.3159 17.0453 32.5715 17.1653 35.4652 18.9063C41.5962 22.5966 44.0974 23.1472 46.9934 23.7849C48.8497 24.1936 50.9538 24.6568 54.6365 26.1925C63.5694 29.9165 66.9978 33.4257 70.0231 36.5218C72.3621 38.9164 74.5722 41.1783 78.6715 42.6143C87.9018 45.8475 104.865 48.9403 111.185 49.8545C112.407 50.0314 113.541 49.1839 113.717 47.961C113.893 46.7385 113.047 45.6039 111.825 45.4274C105.638 44.5323 89.0725 41.5179 80.1486 38.3917Z" fill="#FCC537"/>
</g>
</svg>
