<svg width="17" height="18" viewBox="0 0 17 18" fill="none" xmlns="http://www.w3.org/2000/svg">
<path fill-rule="evenodd" clip-rule="evenodd" d="M11.9765 9.78455C11.5412 11.0741 10.7308 12.1348 9.69382 12.771C8.76944 13.3385 7.77709 13.4874 6.89907 13.1906C6.0207 12.8938 5.32149 12.1728 4.93075 11.1602C4.49191 10.0252 4.49052 8.69001 4.92587 7.40049C5.64774 5.26304 7.37973 3.84203 9.07024 3.84203C9.38499 3.84203 9.69905 3.89121 10.004 3.99445C10.8821 4.29128 11.5809 5.0126 11.972 6.02482C12.4105 7.15982 12.4122 8.49503 11.9765 9.78455M11.2313 0.359635C7.28453 -0.974528 2.82645 1.63276 1.29349 6.1724C0.571274 8.31021 0.593233 10.5729 1.35414 12.5436C2.1628 14.6371 3.69611 16.1575 5.6714 16.8255C6.37549 17.0637 7.10014 17.1816 7.82828 17.1816C9.14305 17.1816 10.4686 16.7969 11.699 16.0414C13.4983 14.9367 14.8873 13.1509 15.6092 11.0127C16.331 8.87491 16.3094 6.61224 15.5485 4.64187C14.7402 2.54836 13.2066 1.02759 11.2313 0.359635" fill="#FCC537"/>
</svg>
