<svg width="134" height="134" viewBox="0 0 134 134" fill="none" xmlns="http://www.w3.org/2000/svg">
<circle cx="67.1021" cy="66.7936" r="66.4077" fill="#2D2B2C"/>
<mask id="mask0_4605_853" style="mask-type:alpha" maskUnits="userSpaceOnUse" x="0" y="0" width="134" height="134">
<circle cx="67.1021" cy="66.7936" r="66.4077" fill="white"/>
</mask>
<g mask="url(#mask0_4605_853)">
<path fill-rule="evenodd" clip-rule="evenodd" d="M6.88144 48.2934C6.2988 47.6884 0.82326 41.9984 -2.81308 38.3266C-2.22089 37.528 -1.33761 36.648 -0.458638 36.56C3.27664 36.187 5.38016 36.7303 6.36668 38.3237C6.99328 39.3366 8.37173 41.0018 10.0355 42.8793C10.2076 43.6766 10.7472 44.3819 11.5521 44.7354C11.631 44.7698 11.7103 44.7994 11.7901 44.8253C13.4926 46.6856 15.3089 48.6018 16.8589 50.214C15.1263 49.9978 13.5916 49.7888 12.4296 49.6076C11.0024 49.3842 9.0404 48.9079 6.88144 48.2934M-17.051 42.372C-17.3263 42.482 -17.5925 42.6039 -17.8535 42.7316C-18.332 41.1396 -18.5179 39.3438 -17.4143 38.5256C-14.0919 36.0641 -10.2869 38.3969 -9.10153 39.504C-8.22113 40.3261 -6.20938 42.3605 -4.06667 44.5532C-5.58659 43.9329 -6.86754 43.3452 -7.72357 42.8511C-10.4193 41.295 -13.9065 41.1157 -17.051 42.372M21.4378 40.8043C23.6795 41.766 24.535 42.5972 26.8192 44.8195C27.7995 45.7726 29.0193 46.9596 30.6501 48.4359C32.1581 49.8007 33.4309 50.9337 34.4752 51.8409C32.1695 51.7672 28.5748 51.4755 24.8471 51.1049C24.7229 50.838 24.5613 50.5841 24.3424 50.3627C22.0028 47.995 18.8105 44.6799 16.0933 41.7325C17.1032 40.6283 18.8081 39.6776 21.4378 40.8043M94.8958 45.2854C91.2351 44.0037 89.3519 42.0764 86.7451 39.4084C83.029 35.6065 78.4056 30.8749 66.9101 26.084C62.1439 24.0974 59.4262 23.4991 57.0273 22.9712C53.9507 22.294 51.5207 21.7589 45.0472 17.8642C39.2227 14.3592 34.9683 14.9704 30.8235 19.9076C29.4527 21.5403 28.8891 23.6756 29.1941 26.083C29.8011 30.8811 33.6884 35.9432 37.2148 38.4634C39.8574 40.3524 42.4251 43.6393 43.8293 45.5981C42.4996 47.0677 41.1126 48.4455 39.8918 49.5311C39.1716 48.9567 37.5857 47.6206 34.1778 44.535C32.6168 43.1219 31.4338 41.9717 30.4841 41.0473C28.0905 38.7198 26.6461 37.3147 23.5087 35.9695C18.7969 33.9489 15.0201 35.4601 12.6002 37.8212C11.769 36.8441 11.1452 36.0527 10.8369 35.5548C7.6843 30.4593 1.16059 31.1116 -0.981644 31.3258C-3.59228 31.587 -5.48788 33.2641 -6.66797 34.7179C-9.97739 32.3378 -15.6231 30.6515 -20.5437 34.2985C-24.7135 37.3888 -23.7246 42.834 -22.0808 46.4872C-22.4656 47.1198 -22.7701 47.7942 -22.9799 48.5024C-24.6246 54.0556 -22.5669 59.3989 -17.4761 62.7943C-14.3632 64.8708 -9.79576 66.6938 -3.00295 68.8047C-2.89636 68.9936 -2.77401 69.1758 -2.61676 69.3398C-2.11107 69.8664 9.91926 82.2812 23.307 85.4208C27.8725 86.492 43.4278 87.2074 51.351 86.4298C58.9224 85.6871 76.5076 86.953 82.7804 87.8942C85.8007 88.3475 94.8375 90.3628 103.577 92.3116C112.904 94.3919 122.548 96.5425 126.905 97.2689C127.051 97.2933 127.197 97.3052 127.34 97.3052C128.602 97.3052 129.715 96.3933 129.93 95.1068C130.169 93.6741 129.201 92.3187 127.769 92.0801C123.553 91.3766 113.979 89.2418 104.721 87.1773C95.4861 85.1176 86.7638 83.1731 83.5605 82.692C76.8972 81.692 58.9186 80.4017 50.8386 81.1942C42.9637 81.9665 28.2549 81.1779 24.5067 80.2989C18.6861 78.9341 12.9878 75.4186 8.67799 72.1786C9.09238 72.2924 9.53666 72.3851 9.93599 72.5239C21.4333 76.5186 23.8504 77.7137 23.8849 77.74H25.4091C27.5103 77.74 28.6273 75.2593 27.2344 73.686V73.686C26.8482 73.3584 26.3817 71.5736 11.324 67.4503C-2.25542 63.7316 -10.4023 61.1908 -14.5596 58.4171C-17.6764 56.3387 -18.9081 53.2694 -17.9388 49.9969C-17.8083 49.5564 -17.5679 49.1342 -17.2419 48.7477C-17.1248 48.6444 -17.0221 48.5297 -16.9274 48.4096C-16.4409 47.9414 -15.8186 47.5436 -15.1021 47.2576C-13.4651 46.6034 -11.6445 46.6607 -10.3507 47.4077C-5.80573 50.0313 6.43156 53.9939 11.6179 54.805C15.3757 55.3923 33.3285 57.5912 37.3854 57.0115C41.2631 56.4573 46.9117 50.1643 49.16 47.4847L50.3965 46.0113L49.3679 44.3858C49.193 44.1099 45.0347 37.5873 40.2704 34.1828C37.7577 32.387 34.8025 28.5268 34.4101 25.4221C34.2332 24.0247 34.6964 23.4728 34.8493 23.2911C37.4576 20.1836 38.9345 20.3247 42.3381 22.372C49.5496 26.7114 52.4914 27.3589 55.8979 28.1088C58.0812 28.5894 60.5561 29.1341 64.8879 30.9399C75.3949 35.3191 79.4275 39.4457 82.9859 43.0865C85.7371 45.9023 88.3367 48.5622 93.1584 50.2508C104.015 54.0527 123.967 57.6897 131.402 58.7647C132.838 58.9728 134.172 57.9761 134.38 56.5381C134.587 55.1005 133.591 53.7663 132.154 53.5587C124.878 52.5061 105.392 48.9615 94.8958 45.2854Z" fill="#FCC537"/>
</g>
</svg>
