<svg width="115" height="114" viewBox="0 0 115 114" fill="none" xmlns="http://www.w3.org/2000/svg">
<ellipse cx="57.1107" cy="56.9175" rx="57.1107" ry="56.4536" fill="#2D2B2C"/>
<mask id="mask0_4764_976" style="mask-type:alpha" maskUnits="userSpaceOnUse" x="0" y="0" width="115" height="114">
<ellipse cx="57.1107" cy="56.9175" rx="57.1107" ry="56.4536" fill="white"/>
</mask>
<g mask="url(#mask0_4764_976)">
<path fill-rule="evenodd" clip-rule="evenodd" d="M75.7095 36.456C77.148 31.5051 77.7691 25.5706 73.7096 23.0856C69.1936 20.3215 65.0473 21.4195 61.3853 26.3479C58.1766 30.6656 54.3552 41.679 51.0404 51.8831L50.8487 52.4721C50.6001 53.2368 50.3736 53.9856 50.1613 54.7231C49.5628 54.5147 48.6849 54.0289 47.9342 53.1389C47.0463 52.0854 46.1434 50.2114 46.8844 47.2626L46.9288 47.0864L52.2379 -17.9366C52.411 -19.9761 54.0925 -21.5699 56.1489 -21.6441L82.1095 -22.5812C83.2853 -22.6241 84.3904 -22.1789 85.206 -21.3274C86.0213 -20.4763 86.4157 -19.3622 86.3148 -18.1763L81.8968 38.1618C81.8932 38.2056 81.894 38.2489 81.8932 38.2923C80.4289 37.3617 78.4831 36.476 76.3375 36.4367C76.1248 36.4323 75.9157 36.4399 75.7095 36.456ZM96.2751 13.004C96.4866 14.4954 96.9196 17.5486 87.8433 19.1223L88.4144 11.8373C88.4769 11.8265 88.5391 11.8148 88.6012 11.7984C90.1999 11.38 94.0209 10.8601 95.6289 11.9236C96.0152 12.1786 96.202 12.4917 96.2751 13.004ZM93.1395 28.3055C93.6008 28.5889 93.8466 28.9478 93.9624 29.5058C94.1735 30.5256 94.0435 31.3273 93.5523 32.029C92.8468 33.0375 91.0516 34.3628 86.5759 35.2829L87.1495 27.969C88.91 27.6426 91.7216 27.4339 93.1395 28.3055ZM91.1521 -3.32367C91.1889 -3.32728 91.226 -3.32969 91.2627 -3.3329C92.861 -3.46659 94.5675 -3.37666 95.5418 -2.75801C95.9615 -2.49143 96.1827 -2.15179 96.282 -1.63029C96.3373 -1.2236 96.3684 -0.86389 96.3813 -0.539505C96.3652 0.324047 96.0915 0.831902 95.8558 1.1595C94.921 2.45984 92.6197 3.48278 89.0126 4.21024L89.5865 -3.10728C90.016 -3.18557 90.4975 -3.25622 91.0044 -3.30841C91.054 -3.31363 91.1025 -3.31925 91.1521 -3.32367ZM103.223 39.7673C100.912 39.4999 98.9061 39.8119 97.2162 40.3904C96.4263 39.5561 95.0379 38.5625 92.6691 38.0125C94.7162 37.0988 96.218 35.9506 97.1968 34.5515C98.3971 32.8356 98.7721 30.8379 98.3108 28.6138C97.9495 26.8734 96.9687 25.4675 95.4734 24.5486C93.7834 23.51 91.6532 23.2394 89.7603 23.2707C94.2783 22.3879 101.754 20.0152 100.671 12.3866C100.422 10.6305 99.5284 9.19851 98.0867 8.24543C97.3219 7.73999 96.4465 7.40757 95.5339 7.1964C98.7184 5.95949 100.892 3.82128 100.816 -0.492868C100.824 -1.0505 100.78 -1.62902 100.68 -2.228C100.677 -2.2533 100.675 -2.27698 100.672 -2.30268C100.67 -2.31472 100.667 -2.32596 100.665 -2.33801C100.662 -2.35527 100.661 -2.37173 100.658 -2.38859C100.654 -2.41027 100.647 -2.43034 100.643 -2.45162C100.368 -4.13898 99.4925 -5.51922 98.0944 -6.4454C95.7176 -8.02035 92.2727 -7.93685 89.9415 -7.63133L90.7402 -17.8181C90.9453 -20.2313 90.0997 -22.6209 88.4203 -24.3741C86.7408 -26.1273 84.3866 -27.0823 81.9484 -26.9944L55.9881 -26.0574C51.6905 -25.902 48.1766 -22.5711 47.8134 -18.3015L47.474 -14.1451C47.0494 -14.6602 46.5743 -15.1287 46.0407 -15.5229C44.4505 -16.6972 42.5439 -17.0959 40.5258 -16.676C33.2386 -15.1584 33.124 -10.8414 32.9912 -5.842C32.965 -4.86122 32.9355 -3.74916 32.8592 -2.56283C32.4496 3.82048 29.0842 10.7309 25.0312 13.5115C22.4816 15.2606 12.112 18.4664 -5.78934 23.0394L-7.39369 23.4505C-8.58071 23.7565 -9.29349 24.9617 -8.98553 26.1424C-8.72641 27.1368 -7.82555 27.7968 -6.83832 27.7964C-6.65387 27.7964 -6.4666 27.7735 -6.27973 27.7253L-4.68506 27.3167C8.2317 24.017 23.5693 19.8787 27.5521 17.1467C32.7817 13.5592 36.7863 5.56966 37.2901 -2.2818C37.3716 -3.55003 37.4023 -4.70585 37.4293 -5.72517C37.5605 -10.662 37.5843 -11.5516 41.4355 -12.3534C42.2161 -12.516 42.8191 -12.4007 43.3902 -11.98C45.2485 -10.611 46.2704 -6.46307 46.4783 -4.16789C46.496 -3.96394 46.5436 -3.77003 46.6123 -3.58697L42.533 46.3754C42.3211 47.2687 42.2105 48.1479 42.1879 49.0058C38.9033 49.3848 30.9626 50.3893 23.8413 51.9767C14.8707 53.9768 -11.2022 60.7921 -11.4641 60.8607C-12.6499 61.1711 -13.3583 62.3783 -13.0467 63.5578C-12.7843 64.549 -11.8851 65.2046 -10.9011 65.2046C-10.7142 65.2046 -10.5241 65.1813 -10.3352 65.1315C-10.0737 65.0633 15.9205 58.2685 24.812 56.2864C31.8401 54.7191 39.9277 53.7122 42.9523 53.365C43.477 54.6456 44.2624 55.8047 45.2989 56.7887C46.4326 57.8654 47.7851 58.6274 49.0876 58.9995C46.8116 69.6705 48.2844 77.1273 49.2272 81.8915L49.3241 82.3829C50.0813 86.2346 50.8833 88.0644 51.527 89.535C52.2463 91.1766 52.7209 92.261 52.8258 96.1118C52.9098 99.2047 53.4139 111.494 53.4353 112.016C53.4841 113.204 54.4677 114.134 55.6519 114.134C55.6822 114.134 55.7133 114.133 55.7439 114.132C56.9689 114.082 57.9214 113.054 57.8714 111.836C57.8661 111.708 57.3471 99.055 57.2639 95.9926C57.136 91.2834 56.4228 89.6562 55.5974 87.7714C55.0106 86.4313 54.3454 84.9129 53.6811 81.5354L53.5834 81.0388C52.4747 75.4363 50.7997 66.9702 55.0731 53.8315L55.2653 53.2409C57.0375 47.785 61.746 33.2925 64.9556 28.9727C67.8139 25.1259 69.6273 25.7718 71.383 26.8465C73.5605 28.1794 71.7794 35.2613 69.5216 40.437C66.9587 43.8233 65.6308 48.2483 65.4096 49.0295C65.077 50.2026 65.7632 51.4207 66.9421 51.7527C67.1439 51.8093 67.3469 51.8362 67.5471 51.8362C68.5146 51.8362 69.405 51.2015 69.6822 50.2299C70.1714 48.5148 71.0166 46.4357 72.0385 44.6704C72.5159 43.8808 73.1694 43.1469 73.3664 42.7141C74.2814 41.592 75.2638 40.8517 76.2219 40.8517C76.2332 40.8517 76.2449 40.8521 76.2562 40.8521C77.6265 40.8774 79.073 41.6803 80.1127 42.4363C79.0032 43.3922 78.244 44.1762 78.0257 44.4071C77.1858 45.2943 77.2281 46.6898 78.1193 47.526C78.548 47.9283 79.0952 48.1274 79.6417 48.1274C80.2314 48.1274 80.8199 47.8954 81.2566 47.4357C83.0252 45.5741 87.5432 41.8172 90.2442 42.085C91.4966 42.2098 92.3619 42.4756 92.9552 42.749C91.591 43.8422 90.8496 44.8302 90.777 44.9294C90.0585 45.9101 90.2745 47.2771 91.2552 47.999C92.2356 48.7208 93.6228 48.5136 94.3554 47.5433C94.4789 47.3799 97.441 43.5439 102.71 44.1537C104.008 44.3039 105.398 45.4697 106.625 47.4369C109.623 52.2449 110.69 59.959 109.003 64.6337C108.259 66.6948 107.773 66.6731 106.605 66.6214C106.47 66.6157 106.33 66.6097 106.188 66.6065C106.029 60.3541 105.005 54.5569 104.943 54.2141C104.728 53.0141 103.573 52.2156 102.368 52.4291C101.161 52.6431 100.358 53.7901 100.573 54.9905C100.593 55.1029 102.571 66.305 101.398 73.7417C100.154 81.6293 98.1315 105.027 98.046 106.019C97.9414 107.234 98.8467 108.303 100.068 108.408C100.133 108.413 100.197 108.416 100.261 108.416C101.4 108.416 102.371 107.547 102.47 106.396C102.49 106.154 104.565 82.1621 105.785 74.4262C105.956 73.3403 106.067 72.1937 106.133 71.0222C106.225 71.025 106.323 71.0295 106.408 71.0331C108.007 71.1033 111.332 71.2503 113.182 66.1255C115.304 60.2465 114.08 51.0148 110.398 45.1088C108.414 41.9276 105.933 40.0805 103.223 39.7673Z" fill="#FCC537"/>
</g>
</svg>
