<svg width="19" height="21" viewBox="0 0 19 21" fill="none" xmlns="http://www.w3.org/2000/svg">
<path fill-rule="evenodd" clip-rule="evenodd" d="M13.7583 11.9232C13.2462 13.4396 12.293 14.6869 11.0733 15.4351C9.98603 16.1024 8.8188 16.2775 7.78605 15.9285C6.75289 15.5794 5.93046 14.7316 5.47087 13.5409C4.9547 12.2063 4.95306 10.6362 5.46513 9.11977C6.3142 6.60629 8.35142 4.93528 10.3398 4.93528C10.7101 4.93528 11.0795 4.99311 11.4382 5.11452C12.4709 5.46357 13.293 6.31179 13.753 7.50209C14.2687 8.83676 14.2708 10.4069 13.7583 11.9232ZM12.8817 0.840247C8.23944 -0.728631 2.99574 2.33735 1.19263 7.67563C0.343141 10.1895 0.36897 12.8503 1.26397 15.1677C2.21513 17.6295 4.01865 19.4174 6.34203 20.2029C7.1702 20.483 8.02256 20.6216 8.87902 20.6216C10.4255 20.6216 11.9847 20.1692 13.4319 19.2808C15.5482 17.9818 17.182 15.8818 18.0311 13.3675C18.8802 10.8536 18.8548 8.19285 17.9598 5.87583C17.009 3.41403 15.2051 1.62571 12.8817 0.840247Z" fill="#FCC537"/>
</svg>
