<svg width="36" height="35" viewBox="0 0 36 35" fill="none" xmlns="http://www.w3.org/2000/svg">
<path fill-rule="evenodd" clip-rule="evenodd" d="M17.0033 4.22528C17.423 4.18586 17.8395 4.16667 18.2533 4.16667C25.0273 4.16667 30.8323 9.34139 31.4771 16.2183C31.8085 19.7533 30.7434 23.2055 28.4784 25.9394C26.2128 28.673 23.0187 30.3609 19.4838 30.6923C15.9521 31.0238 12.4974 29.959 9.76321 27.6933C7.02935 25.4283 5.34144 22.2339 5.01 18.6993C4.32619 11.4023 9.70634 4.90945 17.0033 4.22528M7.21892 30.764C10.3477 33.3563 14.2 34.7395 18.2128 34.7395C18.7579 34.7395 19.3063 34.7141 19.8564 34.6624C24.4513 34.2316 28.6038 32.0373 31.5485 28.4834C34.4935 24.9292 35.878 20.4416 35.4469 15.8463V15.846C34.5576 6.36017 26.1184 -0.633557 16.6308 0.255088C7.14501 1.14444 0.150215 9.58534 1.03992 19.0711C1.47034 23.6668 3.66503 27.8189 7.21892 30.764" fill="#FCC537"/>
</svg>
