<svg width="121" height="91" viewBox="0 0 121 91" fill="none" xmlns="http://www.w3.org/2000/svg">
<path fill-rule="evenodd" clip-rule="evenodd" d="M88.7086 80.2434C88.2851 81.218 87.4977 81.9414 86.4918 82.2804C85.4848 82.6195 84.4206 82.5197 83.4948 81.9996L26.8016 50.1607C25.1348 49.2245 24.4502 47.1286 25.2425 45.3884L42.6186 7.22123C43.0703 6.22854 43.9312 5.48839 44.9804 5.19086C45.3136 5.09599 45.6542 5.0496 45.993 5.0496C46.7201 5.0496 47.4384 5.26411 48.0561 5.67883L102.04 41.9088C103.527 42.9067 104.088 44.8237 103.375 46.4673L88.7086 80.2434ZM4.38593 55.4238L17.8013 12.3685C18.1941 11.1079 19.084 10.0985 20.2429 9.59935C20.6675 9.41623 21.1021 9.31856 21.5323 9.29589L7.37483 50.0937C6.02242 53.9906 7.77846 58.2403 11.3536 59.7611L59.6033 80.8887L6.41629 60.2473C4.61912 59.5497 3.74632 57.4761 4.38593 55.4238V55.4238ZM28.3095 6.05838C29.3161 5.66249 30.3649 5.70714 31.2632 6.1836C31.3137 6.21046 31.3646 6.23348 31.4162 6.2551L13.9028 46.3899C12.2531 50.1702 13.6749 54.5435 17.1395 56.3457L38.5212 67.4693L12.8721 56.2383C11.0983 55.4835 10.2917 53.383 10.9965 51.3523L25.7807 8.74798C26.2136 7.50067 27.1352 6.52054 28.3095 6.05838V6.05838ZM38.181 4.10818C38.8381 3.90692 39.4982 3.88599 40.1127 4.03598C39.7248 4.52011 39.3919 5.05343 39.1295 5.6307L21.7534 43.7975C20.1413 47.3375 21.5342 51.6023 24.925 53.5064L79.3072 84.0474C78.3766 83.7715 77.4327 83.3886 76.6128 82.9616L18.9081 52.9414C17.1981 52.0519 16.5567 49.8953 17.4163 47.9249L35.4518 6.59408C35.9802 5.38409 36.9747 4.47791 38.181 4.10818V4.10818ZM117.575 67.1365C117.898 67.3468 118.261 67.4476 118.62 67.4476C119.246 67.4476 119.86 67.1404 120.228 66.5756C120.806 65.6879 120.555 64.4996 119.667 63.9213L104.319 53.9204L106.892 47.9964C108.343 44.6528 107.201 40.7525 104.176 38.7221L50.1919 2.49218C48.3487 1.25533 46.0684 0.893625 43.9345 1.49949C43.8209 1.53158 43.7087 1.56786 43.5975 1.60518C43.4751 1.46112 43.3371 1.32753 43.1695 1.22115C41.3761 0.0840578 39.1488 -0.200564 37.0589 0.439835C35.5799 0.892579 34.2763 1.76319 33.2752 2.92958C33.2069 2.8804 33.1358 2.834 33.0595 2.79354C31.1835 1.79876 28.9409 1.6875 26.9064 2.48765C25.3434 3.10293 24.0241 4.19189 23.1004 5.58814C21.6581 5.30875 20.1339 5.46885 18.7267 6.07541C16.5385 7.01787 14.8671 8.89547 14.1407 11.2262L0.725359 54.2818C-0.50157 58.2194 1.38902 62.4113 5.03007 63.8243L65.6665 87.3569L66.3075 87.6083C69.6506 88.9251 73.063 90.1553 75.7542 90.1553C76.7092 90.1553 77.574 90.0004 78.3116 89.6391C78.5538 89.5205 78.7772 89.3817 78.9822 89.2254C79.2558 89.2763 79.5298 89.3091 79.8038 89.3091C80.2705 89.3091 80.7368 89.2257 81.2015 89.0266C81.6037 88.8543 81.9624 88.6111 82.282 88.2972C82.9624 88.2644 83.6327 88.1532 84.2629 87.9244C85.2305 87.5731 86.0154 86.9833 86.5867 86.1992C86.9673 86.134 87.3448 86.0415 87.715 85.9167C89.7328 85.2369 91.3766 83.7265 92.225 81.7726L102.77 57.489L117.575 67.1365Z" fill="#FCC537"/>
</svg>
