<svg width="96" height="164" viewBox="0 0 96 164" fill="none" xmlns="http://www.w3.org/2000/svg">
<path fill-rule="evenodd" clip-rule="evenodd" d="M90.1562 68.5124C88.964 66.7281 87.2092 64.8057 84.8814 64.042C83.9285 63.7291 80.8554 62.5569 81.3128 60.5986C81.3999 60.226 82.1234 59.5439 83.3993 59.2636C83.6282 59.2133 84.0123 59.1507 84.5011 59.1507C85.8121 59.1507 87.8746 59.602 89.7102 61.9547C91.4721 64.2126 91.0072 66.6729 90.1562 68.5124M85.5398 75.9084C84.8229 77.9965 83.2925 79.6777 81.2291 80.6426L61.4696 89.8853C57.2245 91.8707 52.0938 90.2064 50.0325 86.1753L19.219 25.9163C18.2657 24.0525 18.116 21.9318 18.7979 19.9447C19.5144 17.857 21.0452 16.1754 23.1082 15.2105L42.868 5.96823C47.1127 3.98277 52.2435 5.64673 54.3052 9.67822L66.0476 32.6422C65.0407 33.4934 64.3407 34.5803 64.0362 35.8007C63.5924 37.5805 63.8622 39.371 64.7948 40.8429C65.5225 41.9908 67.0055 43.4825 69.9404 44.0694C70.8447 44.2503 71.5261 44.4878 72.0323 44.7182C71.7963 45.0961 71.5843 45.4955 71.4102 45.9262C70.3055 48.6582 70.0745 52.4131 75.2457 54.7876C76.7472 55.4772 78.0309 56.0336 78.983 56.4392C77.9216 57.2871 77.1738 58.3703 76.8941 59.5676C76.0072 63.363 78.5251 66.728 83.4653 68.3491C84.1678 68.5799 84.8295 69.1219 85.4193 69.7834L85.1186 69.9368C86.0719 71.801 86.2213 73.9217 85.5398 75.9084M33.0889 64.6213C33.0674 64.6786 33.0398 64.7437 33.0068 64.8138C32.8203 64.0105 32.6244 62.9203 32.4223 61.7019L33.5389 63.8852C33.3483 64.0937 33.1932 64.3402 33.0889 64.6213M69.1264 21.5905C71.1052 18.7514 71.9917 19.1397 72.7738 19.4835C74.2787 20.1438 73.834 21.6783 73.662 22.1325C72.6014 24.9333 70.807 28.4124 69.8747 30.1605L67.167 24.8653C67.5729 24.0714 68.2404 22.8617 69.1264 21.5905M84.5736 42.5967C81.4089 41.1294 78.3262 40.8112 75.8012 41.7106C74.8616 40.9814 73.2994 40.1175 70.8314 39.6237C69.7543 39.4081 68.9924 38.991 68.6286 38.4169C68.2916 37.8856 68.3398 37.297 68.4397 36.8968C68.4995 36.6565 68.7061 36.1948 69.4177 35.802C70.4461 35.2344 73.0168 34.5593 78.6822 36.4186C82.7124 37.7409 84.1289 40.4007 84.5736 42.5967M83.9473 54.6212C83.5489 53.9176 82.9577 53.2037 82.0956 52.8344L81.5598 52.6069C80.6246 52.2112 79.0591 51.5488 77.141 50.668C75.3697 49.8548 74.9287 49.3289 75.6176 47.6245C75.9443 46.8166 76.4954 46.2812 77.3019 45.9878C78.8298 45.4313 81.0355 45.8184 83.3525 47.0483C87.1538 49.0663 88.5596 51.7578 87.5609 55.061C86.3919 54.6954 85.175 54.5433 83.9473 54.6212M91.5718 57.344C93.2701 52.9721 92.417 48.8874 89.2411 45.7491C89.6338 41.6261 88.181 34.7638 80.0979 32.111C78.1237 31.463 76.3082 31.0377 74.6499 30.8258C75.6639 28.8589 77.0033 26.12 77.9059 23.7372C79.2143 20.2824 77.8238 16.7475 74.5988 15.3321C69.5147 13.1006 66.4196 17.541 65.4028 18.9997C65.154 19.3562 64.9222 19.7074 64.704 20.0491L58.346 7.61535C55.185 1.43394 47.3791 -1.14793 40.9449 1.86178L21.1845 11.1044C17.9971 12.5953 15.6252 15.2126 14.5057 18.4745C13.4216 21.6347 13.6604 25.0104 15.1785 27.9793L24.5168 46.2412C23.9409 45.9787 23.3201 45.7474 22.6461 45.557C19.6166 44.7013 16.9811 45.1469 15.4165 46.7795C13.6113 48.6632 13.4166 51.6457 14.8212 55.8981C16.4316 60.7733 16.081 62.4665 15.4449 65.5406C14.9903 67.7366 14.4248 70.4694 14.3605 75.0082C14.2862 80.2371 15.0811 84.356 16.2027 87.5532C16.7258 90.5724 17.5417 97.9108 14.5143 103.705C12.0649 108.393 4.35687 125.984 1.0366 133.63C0.53788 134.779 1.06795 136.112 2.21843 136.61C3.36768 137.107 4.70131 136.582 5.19962 135.434C8.48688 127.868 16.1879 110.299 18.5367 105.803C20.223 102.575 20.9391 99.0443 21.1631 95.8223C21.9638 96.6219 22.5314 97.011 22.6176 97.0679C23.0054 97.3251 23.4447 97.4484 23.8799 97.4484C24.6154 97.4484 25.3377 97.0951 25.7729 96.4393C26.4659 95.3965 26.192 93.9968 25.1475 93.3043C24.9804 93.1877 22.42 91.3341 20.6277 86.5075C20.4742 85.6675 20.3463 85.1445 20.3224 85.0501L20.1529 85.0925C19.3745 82.5086 18.8386 79.217 18.8976 75.0725C18.9562 70.9652 19.4516 68.5709 19.8885 66.4585C20.5769 63.1318 21.121 60.5038 19.1303 54.4769C18.1555 51.5257 18.4187 50.2022 18.6938 49.9149C18.9768 49.6202 20.0708 49.5411 21.4123 49.9199C22.8321 50.3209 26.1573 51.2599 27.2043 57.7986C27.3189 58.5175 27.4258 59.1939 27.526 59.829C28.0383 63.0724 28.377 65.2149 28.8188 66.7099C29.5122 69.0572 30.779 70.255 32.5838 70.2699C34.0762 70.2909 35.1768 69.4958 35.9469 68.594L45.9919 88.2379C48.2574 92.6679 52.9067 95.249 57.7285 95.2486C59.6351 95.2486 61.5702 94.8446 63.3935 93.9918L69.7448 91.0209C66.1775 95.5243 61.2901 101.078 56.9047 103.927C53.0734 106.416 52.0223 106.548 49.1929 106.034C47.8939 105.798 46.6486 106.721 46.5265 108.067C46.4184 109.26 47.323 110.308 48.5032 110.517C49.3286 110.663 50.0736 110.756 50.7761 110.791L25.9973 161.155L30.0695 163.155C30.0695 163.155 33.9296 155.309 35.8597 151.386C42.7398 137.402 56.5001 109.434 56.5001 109.434C57.3647 108.989 58.3048 108.425 59.3781 107.728C67.6266 102.369 76.8717 89.2024 78.4058 86.97L83.1534 84.7492C86.3408 83.2584 88.7127 80.641 89.8323 77.3791C90.0026 76.8828 90.1363 76.3812 90.2415 75.8767L91.5668 74.4819C94.1636 71.7492 97.865 65.0315 93.2891 59.1667C92.759 58.4874 92.1831 57.879 91.5718 57.344Z" fill="#FCC537"/>
</svg>
