<svg width="154" height="82" viewBox="0 0 154 82" fill="none" xmlns="http://www.w3.org/2000/svg">
<path fill-rule="evenodd" clip-rule="evenodd" d="M30.8343 32.8649C30.2496 32.2734 24.7543 26.7098 21.1049 23.1194C21.6992 22.3385 22.5857 21.4781 23.4678 21.3921C27.2166 21.0274 29.3276 21.5586 30.3177 23.1166C30.9466 24.107 32.33 25.7353 33.9998 27.5711C34.1725 28.3506 34.714 29.0403 35.5218 29.3859C35.601 29.4196 35.6806 29.4485 35.7607 29.4738C37.4693 31.2928 39.2921 33.1665 40.8477 34.7428C39.1089 34.5315 37.5686 34.3271 36.4025 34.1499C34.9702 33.9315 33.0011 33.4658 30.8343 32.8649ZM7.04527 27.1576C6.76619 27.2685 6.49632 27.3916 6.23177 27.5204C5.74678 25.9141 5.5583 24.1021 6.67704 23.2765C10.0449 20.7929 13.9021 23.1467 15.1037 24.2638C15.9961 25.0933 18.0354 27.146 20.2075 29.3584C18.6668 28.7326 17.3683 28.1395 16.5005 27.6411C13.7679 26.0709 10.2329 25.8899 7.04527 27.1576ZM46.0661 25.3833C48.2549 26.3553 49.0902 27.1953 51.3205 29.4414C52.2777 30.4047 53.4686 31.6043 55.0609 33.0963C56.5333 34.4757 57.7761 35.6208 58.7958 36.5376C56.5445 36.4632 53.0346 36.1684 49.395 35.7938C49.2736 35.5241 49.1159 35.2674 48.9022 35.0437C46.6178 32.6507 43.5008 29.3002 40.8477 26.3215C41.8338 25.2055 43.4985 24.2446 46.0661 25.3833ZM119.205 30.4169C115.534 29.1295 113.646 27.1937 111.033 24.5138C107.307 20.695 102.671 15.9424 91.146 11.1302C86.3673 9.13484 83.6425 8.53392 81.2373 8.00361C78.1527 7.32343 75.7164 6.78591 69.226 2.87391C63.3863 -0.646595 59.1209 -0.0327032 54.9652 4.92646C53.5908 6.56639 53.0258 8.71117 53.3315 11.1293C53.9401 15.9486 57.8375 21.0332 61.3731 23.5646C64.0227 25.462 66.597 28.7635 68.0049 30.731C66.6718 32.2072 65.2811 33.5911 64.0572 34.6815C63.335 34.1046 61.745 32.7625 58.3282 29.6632C56.7631 28.2438 55.5771 27.0885 54.6249 26.16C52.225 23.8221 50.7769 22.4108 47.6313 21.0596C42.9073 19.0301 39.1206 20.548 36.6943 22.9195C35.861 21.9382 35.2356 21.1432 34.9265 20.6431C31.7657 15.525 25.2249 16.1802 23.0771 16.3954C20.4597 16.6576 18.5591 18.3422 17.3759 19.8025C14.0579 17.4118 8.39748 15.7181 3.46402 19.3813C-0.716608 22.4853 0.274877 27.9546 1.92288 31.624C1.53711 32.2595 1.23186 32.9368 1.02149 33.6482C-0.627475 39.2261 1.43552 44.5931 6.53958 48.0036C9.66068 50.0893 14.24 51.9204 21.0505 54.0407C21.1574 54.2304 21.2801 54.4134 21.4377 54.5782C21.9447 55.107 34.0064 67.577 47.4291 70.7305C52.0065 71.8065 67.6024 72.5251 75.5462 71.7441C83.1374 70.9981 100.768 72.2696 107.058 73.2149C110.086 73.6703 119.146 75.6945 127.909 77.6519C137.259 79.7415 141.927 80.6416 146.295 81.3712C146.442 81.3957 146.587 81.4077 146.731 81.4077C147.996 81.4077 149.113 80.4917 149.327 79.1995C149.567 77.7604 147.73 77.3721 146.295 77.1324C142.067 76.4258 138.338 74.5686 129.055 72.4949C119.796 70.426 111.051 68.4729 107.84 67.9896C101.159 66.9852 83.1336 65.6892 75.0325 66.4852C67.1371 67.2609 52.3899 66.4688 48.6319 65.5859C42.7961 64.215 37.083 60.6839 32.7619 57.4295C33.1774 57.5439 33.6228 57.637 34.0232 57.7764C45.5505 61.7888 47.974 62.9892 48.0085 63.0156H49.5311C51.6415 63.0156 52.7643 60.525 51.3668 58.9436C50.9796 58.6146 50.5119 56.8219 35.4148 52.6803C21.8 48.9451 13.6319 46.393 9.46372 43.6069C6.3388 41.5193 5.10387 38.4364 6.07571 35.1493C6.20653 34.7069 6.44758 34.2828 6.7744 33.8946C6.8918 33.7909 6.99483 33.6756 7.08972 33.555C7.57755 33.0848 8.20148 32.6851 8.91982 32.3979C10.5611 31.7407 12.3864 31.7984 13.6836 32.5487C18.2404 35.1839 30.5096 39.1641 35.7095 39.9788C39.4771 40.5687 57.4767 42.7773 61.5442 42.1951C65.4321 41.6384 71.0953 35.3174 73.3495 32.626L74.5893 31.1461L73.558 29.5133C73.3826 29.2362 69.2135 22.6846 64.4367 19.265C61.9175 17.4613 58.9546 13.5839 58.5611 10.4654C58.3838 9.06182 58.8482 8.5075 59.0015 8.32496C61.6166 5.20363 63.0973 5.34533 66.5098 7.40172C73.7401 11.7604 76.6896 12.4108 80.105 13.164C82.294 13.6468 84.7753 14.1939 89.1184 16.0077C99.6529 20.4063 103.696 24.5513 107.264 28.2082C110.022 31.0365 112.628 33.7083 117.463 35.4044C128.348 39.2232 143.464 41.6726 150.917 42.7525C152.358 42.9614 153.695 41.9604 153.903 40.5159C154.111 39.072 152.358 38.9377 150.917 38.7292C143.621 37.6719 129.729 34.1094 119.205 30.4169Z" fill="#FCC537"/>
</svg>
