<svg width="134" height="134" viewBox="0 0 134 134" fill="none" xmlns="http://www.w3.org/2000/svg">
<circle cx="67.0444" cy="66.7934" r="66.4077" fill="#2D2B2C"/>
<mask id="mask0_4605_811" style="mask-type:alpha" maskUnits="userSpaceOnUse" x="0" y="0" width="134" height="134">
<circle cx="67.0444" cy="66.7934" r="66.4077" fill="white"/>
</mask>
<g mask="url(#mask0_4605_811)">
<path fill-rule="evenodd" clip-rule="evenodd" d="M116.135 21.6677C114.729 19.5649 112.66 17.2994 109.914 16.3994C108.791 16.0307 105.166 14.6492 105.706 12.3415C105.808 11.9024 106.662 11.0985 108.166 10.7682C108.436 10.7089 108.889 10.6351 109.466 10.6351C111.012 10.6351 113.445 11.167 115.609 13.9396C117.687 16.6005 117.139 19.4998 116.135 21.6677M110.691 30.3839C109.845 32.8447 108.04 34.826 105.607 35.9631L82.3028 46.8553C77.2962 49.1951 71.245 47.2337 68.8139 42.4832L32.473 -28.5304C31.3486 -30.7269 31.172 -33.2261 31.9762 -35.5678C32.8213 -38.0281 34.6267 -40.0099 37.0597 -41.147L60.3643 -52.0387C65.3705 -54.3785 71.4216 -52.4176 73.8532 -47.6666L87.702 -20.6041C86.5145 -19.6011 85.6889 -18.3202 85.3298 -16.8819C84.8064 -14.7845 85.1245 -12.6744 86.2245 -10.9399C87.0827 -9.58708 88.8317 -7.82919 92.2932 -7.13749C93.3596 -6.92425 94.1633 -6.64447 94.7603 -6.37294C94.482 -5.92752 94.2319 -5.45684 94.0266 -4.94924C92.7238 -1.72976 92.4513 2.69532 98.5501 5.49366C100.321 6.3063 101.835 6.96206 102.958 7.44002C101.706 8.43919 100.824 9.71571 100.494 11.1268C99.4482 15.5995 102.418 19.565 108.244 21.4755C109.073 21.7475 109.853 22.3862 110.549 23.1658L110.194 23.3465C111.318 25.5435 111.495 28.0426 110.691 30.3839M48.8307 17.0824C48.8054 17.1499 48.7728 17.2267 48.7339 17.3093C48.514 16.3625 48.2829 15.0778 48.0445 13.6419L49.3615 16.2149C49.1367 16.4607 48.9538 16.7511 48.8307 17.0824M91.3326 -33.6283C93.6664 -36.9741 94.7119 -36.5165 95.6343 -36.1114C97.4091 -35.3332 96.8846 -33.5248 96.6818 -32.9896C95.431 -29.689 93.3147 -25.5888 92.2152 -23.5288L89.0217 -29.7691C89.5005 -30.7046 90.2876 -32.1303 91.3326 -33.6283M109.551 -8.87313C105.819 -10.6024 102.183 -10.9774 99.205 -9.91747C98.0967 -10.7767 96.2543 -11.7949 93.3435 -12.3768C92.0733 -12.6308 91.1747 -13.1224 90.7456 -13.799C90.3481 -14.4251 90.4051 -15.1188 90.5228 -15.5904C90.5933 -15.8736 90.8371 -16.4176 91.6763 -16.8805C92.8892 -17.5494 95.9211 -18.345 102.603 -16.1539C107.356 -14.5956 109.027 -11.4611 109.551 -8.87313M108.812 5.29748C108.342 4.46832 107.645 3.62702 106.628 3.1918L105.996 2.92367C104.894 2.45736 103.047 1.67678 100.785 0.638756C98.6959 -0.319607 98.1759 -0.93941 98.9883 -2.94794C99.3736 -3.89999 100.024 -4.53096 100.975 -4.87681C102.777 -5.53256 105.378 -5.07645 108.111 -3.627C112.594 -1.24883 114.252 1.92305 113.074 5.81576C111.695 5.38491 110.26 5.20567 108.812 5.29748M119.83 10.6542C119.205 9.85369 118.526 9.13674 117.805 8.50625C119.808 3.35401 118.802 -1.45966 115.056 -5.15808C115.519 -10.0169 113.806 -18.104 104.273 -21.2302C101.944 -21.9938 99.803 -22.4951 97.8473 -22.7448C99.0431 -25.0627 100.623 -28.2904 101.687 -31.0985C103.23 -35.17 101.59 -39.3357 97.7869 -41.0037C91.7908 -43.6335 88.1405 -38.4006 86.9413 -36.6816C86.6479 -36.2614 86.3745 -35.8476 86.1171 -35.4449L78.6186 -50.0977C74.8905 -57.3823 65.6844 -60.425 58.0959 -56.8781L34.7908 -45.9859C31.0316 -44.229 28.2342 -41.1445 26.9138 -37.3004C25.6352 -33.5762 25.9169 -29.598 27.7073 -26.0993L38.7208 -4.57811C38.0416 -4.88753 37.3094 -5.16003 36.5145 -5.38444C32.9416 -6.39283 29.8333 -5.86775 27.988 -3.94374C25.859 -1.72391 25.6294 1.7909 27.286 6.80227C29.1853 12.5476 28.7717 14.543 28.0216 18.1656C27.4854 20.7537 26.8184 23.9741 26.7425 29.3231C26.655 35.4852 27.5925 40.3392 28.9153 44.107C29.5321 47.6651 30.4945 56.3132 26.924 63.1412C24.0351 68.666 10.7336 99.1908 6.81769 108.201C6.22951 109.556 6.85467 111.126 8.21153 111.713V111.713C9.56693 112.298 11.1398 111.681 11.7275 110.328C15.6045 101.411 28.8977 70.9121 31.6679 65.6141C33.6567 61.8103 34.5013 57.649 34.7655 53.8519C35.7098 54.7943 36.3792 55.2528 36.4809 55.3198C36.9382 55.6229 37.4564 55.7682 37.9696 55.7682C38.8371 55.7682 39.6889 55.3519 40.2022 54.5791C41.0195 53.3502 40.6965 51.7006 39.4646 50.8846C39.2676 50.7471 36.2479 48.5627 34.134 42.8747C33.953 41.8848 33.8022 41.2684 33.774 41.1571L33.574 41.2072C32.656 38.1621 32.024 34.283 32.0936 29.3989C32.1627 24.5585 32.747 21.7368 33.2622 19.2474C34.0742 15.327 34.7159 12.2299 32.368 5.12744C31.2184 1.64955 31.5288 0.0898445 31.8533 -0.248716C32.187 -0.596019 33.4772 -0.689283 35.0593 -0.242889C36.7339 0.229735 40.6556 1.33625 41.8904 9.04202C42.0256 9.88914 42.1516 10.6862 42.2698 11.4348C42.8741 15.257 43.2735 17.7819 43.7945 19.5437C44.6124 22.31 46.1064 23.7215 48.2349 23.739C49.9951 23.7638 51.2931 22.8268 52.2014 21.764L64.0483 44.9138C66.7201 50.1346 72.2035 53.1763 77.8903 53.1758C80.1389 53.1758 82.4211 52.6998 84.5715 51.6948L92.0622 48.1936C87.8549 53.5007 82.0908 60.0456 76.9188 63.4025C72.4001 66.3359 71.1605 66.4923 67.8235 65.8866C66.2915 65.6078 64.8228 66.6958 64.6788 68.2818C64.5513 69.6875 65.6182 70.9227 67.0101 71.1695C67.9836 71.3415 68.8622 71.4512 69.6907 71.4925L40.4668 130.844L45.2696 133.201L76.4415 69.8935C77.4612 69.3684 78.57 68.7039 79.8359 67.8825C89.564 61.5674 100.468 46.0505 102.277 43.4197L107.876 40.8025C111.635 39.0456 114.433 35.9612 115.753 32.1171C115.954 31.5322 116.112 30.9411 116.236 30.3465L117.799 28.7028C120.861 25.4823 125.227 17.5658 119.83 10.6542" fill="#FCC537"/>
<path fill-rule="evenodd" clip-rule="evenodd" d="M79.5747 -6.35986C78.8342 -6.91464 78.0081 -7.3087 77.095 -7.54206C76.1823 -7.77542 75.1837 -7.88994 74.099 -7.88705C73.0144 -7.8832 71.8837 -7.83653 70.7062 -7.74704C69.5291 -7.65754 68.6062 -7.72346 67.9361 -7.94479C67.2664 -8.1666 66.7326 -8.65498 66.3338 -9.41039C65.9407 -10.1557 65.8215 -10.8365 65.9769 -11.4539C66.1319 -12.0707 66.5518 -12.5547 67.2366 -12.9041C68.0035 -13.2962 68.7456 -13.3126 69.4622 -12.9531C70.1783 -12.5928 70.8167 -11.8826 71.3768 -10.8207L76.6345 -13.5074C75.6119 -15.4475 74.2256 -16.7706 72.4767 -17.4775C71.0743 -18.0443 69.576 -18.153 67.985 -17.8191L67.0191 -19.6499C66.4222 -20.7816 64.9934 -21.2271 63.8437 -20.6396L63.373 -20.3986C62.2233 -19.8115 61.7707 -18.4046 62.3675 -17.273L63.2684 -15.5649C61.9608 -14.5227 61.0609 -13.3116 60.5839 -11.9249C59.9914 -10.2029 60.1498 -8.47936 61.0595 -6.75393C61.6035 -5.72281 62.2321 -4.92987 62.9463 -4.37461C63.6604 -3.81936 64.4743 -3.42529 65.3874 -3.19193C66.3005 -2.95857 67.2977 -2.85223 68.3789 -2.87389C69.4607 -2.89506 70.6172 -2.96146 71.8485 -3.0726C73.0803 -3.18327 74.0198 -3.11302 74.6665 -2.86041C75.3132 -2.60733 75.8495 -2.07757 76.2747 -1.27164C76.657 -0.546534 76.7547 0.126122 76.569 0.746332C76.3823 1.36606 75.9365 1.85636 75.2306 2.21675C74.2667 2.70945 73.3624 2.78644 72.5177 2.44626C71.674 2.10656 70.9452 1.35499 70.3313 0.191078L65.0887 2.87015C66.2032 4.98339 67.7054 6.37682 69.5946 7.05092C71.2566 7.64371 73.1111 7.6182 75.1573 6.97682L76.4106 9.35373C77.0075 10.4854 78.4368 10.9305 79.5864 10.343L80.0572 10.1024C81.2069 9.51492 81.659 8.1085 81.0622 6.97682L79.7546 4.49694C80.8886 3.52357 81.6595 2.40921 82.0662 1.15387C82.6102 -0.52392 82.4216 -2.23539 81.5006 -3.98103C80.9571 -5.01214 80.3153 -5.80461 79.5747 -6.35986" fill="#FCC537"/>
</g>
</svg>
