<svg width="428" height="426" viewBox="0 0 428 426" fill="none" xmlns="http://www.w3.org/2000/svg">
<mask id="mask0_4547_2114" style="mask-type:alpha" maskUnits="userSpaceOnUse" x="0" y="0" width="428" height="426">
<rect width="428" height="425.689" fill="#222121"/>
</mask>
<g mask="url(#mask0_4547_2114)">
<path fill-rule="evenodd" clip-rule="evenodd" d="M518.289 13.1702C518.715 13.4415 519.142 13.7138 519.571 13.9857L523.255 1.69458C522.76 1.38096 522.247 1.05037 521.716 0.708502C515.781 -3.11381 507.657 -8.34549 498.631 -7.02481C488.332 -5.51788 478.028 4.10478 467.825 27.3967C462.991 38.4306 458.968 46.3212 455.372 51.6197C451.78 56.9123 448.956 59.1088 446.552 59.704C444.219 60.2817 441.501 59.5416 437.804 56.498C434.042 53.4018 429.669 48.2523 424.217 40.8637C418.547 33.1783 413.133 27.2515 407.968 23.6802C402.773 20.0879 397.462 18.6402 392.336 20.8395C387.213 23.0372 383.146 28.5028 379.901 36.1007C376.672 43.6622 374.037 53.8234 371.84 66.4607C367.651 90.5574 361.415 107.545 355.727 115.55C352.861 119.584 350.775 120.471 349.606 120.357C348.689 120.268 347.067 119.416 345.253 114.636C342.724 107.97 339.942 103.787 336.544 101.753C333.674 100.035 330.81 100.246 329.039 100.376C328.834 100.391 328.645 100.405 328.471 100.415C326.589 100.521 325.597 100.383 324.529 99.4883C323.345 98.496 321.463 96.016 319.026 89.3093C317.809 85.9587 316.621 82.5137 315.423 79.0389L315.214 78.4317C313.954 74.7798 312.68 71.0964 311.394 67.6186C308.884 60.8284 306.076 54.0924 302.802 49.5588C301.125 47.2369 299.116 45.1928 296.738 44.1672C294.261 43.0994 291.679 43.2676 289.14 44.734C284.409 47.4661 280.191 54.4832 276.044 64.6952C272.075 74.4682 269.325 77.8677 267.812 78.8437C267.213 79.2307 266.868 79.1998 266.613 79.12C266.268 79.0124 265.735 78.6837 264.962 77.8079C263.728 76.4105 262.687 74.6667 261.385 72.4861C260.789 71.4859 260.137 70.3938 259.386 69.2011C258.342 67.541 257.081 65.686 255.639 64.2329C254.175 62.7582 252.231 61.3999 249.881 61.3999C247.269 61.3999 245.173 63.1758 243.647 65.2467C242.155 67.2718 240.955 69.8997 239.961 72.602C237.971 78.0146 236.285 85.2069 234.78 92.7422C233.436 99.4723 232.164 106.856 230.928 114.029C230.767 114.966 230.606 115.9 230.446 116.827C229.044 124.947 227.684 132.637 226.263 139.063C223.754 150.409 218.948 156.821 213.628 161.651C211.367 163.703 209.1 165.396 206.793 167.12C206.293 167.494 205.791 167.868 205.287 168.249C202.61 170.268 199.705 172.553 197.411 175.475C195.64 177.731 194.558 180.919 193.823 183.723C193.048 186.678 192.435 190.109 191.903 193.616C191.378 197.084 190.897 200.867 190.42 204.627L190.394 204.826C189.903 208.697 189.41 212.568 188.848 216.324C187.697 224.016 186.37 230.378 184.608 234.521C183.757 236.521 182.957 237.633 182.273 238.211C181.672 238.718 180.938 239.013 179.822 238.781C175.178 237.816 171.359 238.119 168.109 239.751C164.787 241.419 162.494 244.258 160.704 247.234C159.837 248.676 159.07 250.181 158.389 251.553C158.206 251.92 158.032 252.274 157.862 252.618C157.365 253.628 156.906 254.558 156.401 255.514C155.104 257.971 153.758 260.089 151.932 261.839C149.851 263.832 148.734 264.143 148.192 264.121C147.821 264.106 147.125 263.926 145.884 262.125C144.567 260.214 143.018 257.015 141.067 251.987C139.143 247.026 136.987 240.709 134.38 232.84L126.073 238.659C128.679 246.524 130.95 253.194 133.036 258.573C135.096 263.885 137.141 268.38 139.371 271.616C141.678 274.963 144.483 277.383 147.935 277.523C151.216 277.657 154.246 275.677 157.004 273.035C160.017 270.149 162.087 266.762 163.715 263.678C164.32 262.532 164.902 261.353 165.419 260.304C165.573 259.991 165.722 259.689 165.863 259.404C166.515 258.092 167.075 257.008 167.646 256.059C168.731 254.255 169.753 253.11 171.119 252.424C172.556 251.702 174.797 251.281 178.518 252.054C181.584 252.691 184.424 251.9 186.905 249.804C189.302 247.779 191.089 244.771 192.45 241.574C195.108 235.323 196.69 226.981 197.858 219.173C198.455 215.178 198.974 211.1 199.462 207.261L199.47 207.191C199.96 203.333 200.416 199.743 200.908 196.502C201.405 193.218 201.904 190.538 202.438 188.5C202.702 187.493 202.947 186.754 203.159 186.233C203.376 185.701 203.501 185.543 203.486 185.561C204.832 183.847 206.786 182.222 209.533 180.15C209.972 179.819 210.428 179.478 210.9 179.126C213.217 177.397 215.891 175.402 218.511 173.024C224.998 167.135 231.654 158.481 235.041 143.167C236.568 136.264 237.995 128.163 239.389 120.093C239.551 119.156 239.712 118.219 239.873 117.283C241.115 110.075 242.342 102.953 243.635 96.4819C245.11 89.0968 246.581 83.0349 248.092 78.9234C248.85 76.8637 249.486 75.662 249.939 75.0481C249.971 75.0039 250.001 74.9651 250.028 74.9312C250.118 74.9996 250.237 75.102 250.388 75.2542C250.961 75.8315 251.663 76.7877 252.583 78.2512C252.947 78.8284 253.366 79.531 253.828 80.3065C255.333 82.8287 257.297 86.1228 259.296 88.3863C260.73 90.0094 262.521 91.5549 264.675 92.2282C266.919 92.9293 269.247 92.586 271.552 91.0989C275.849 88.3265 279.834 81.7303 283.984 71.5121C287.955 61.7328 290.846 58.1749 292.543 57.1948C293.218 56.8052 293.679 56.833 294.116 57.0215C294.651 57.252 295.426 57.8608 296.444 59.2691C298.558 62.1961 300.782 67.2303 303.273 73.9668C304.487 77.2523 305.706 80.7714 306.971 84.4419L307.19 85.0756C308.378 88.5222 309.608 92.0888 310.874 95.5724C313.7 103.352 316.607 108.325 319.926 111.105C323.361 113.984 326.588 113.939 328.829 113.812C328.938 113.806 329.044 113.8 329.147 113.794C331.349 113.668 332.151 113.623 333.034 114.151C333.762 114.587 335.202 115.9 337.18 121.113C339.874 128.212 343.823 133.234 348.993 133.735C353.911 134.212 358.43 130.406 362.14 125.183C369.605 114.676 376.407 94.8992 380.78 69.7466C382.863 57.7593 385.21 49.0835 387.734 43.1741C390.243 37.3011 392.701 34.6618 394.945 33.6991C397.185 32.7379 400.083 33.0742 404.009 35.7885C407.965 38.5239 412.585 43.4265 417.93 50.6715C423.495 58.2134 428.517 64.2602 433.261 68.1658C438.07 72.1241 442.97 74.1913 448.1 72.9213C453.158 71.6689 457.642 67.3628 461.935 61.0374C466.223 54.7179 470.662 45.8752 475.602 34.6C484.944 13.2738 493.09 7.26112 499.554 6.31536C506.044 5.36571 511.995 9.15866 518.289 13.1702ZM249.811 74.7988C249.811 74.799 249.814 74.8001 249.819 74.8015C249.814 74.7993 249.811 74.7986 249.811 74.7988ZM250.218 74.7225C250.226 74.7172 250.23 74.7139 250.23 74.7136C250.23 74.7132 250.226 74.7159 250.218 74.7225Z" fill="#FF6036"/>
<path fill-rule="evenodd" clip-rule="evenodd" d="M126.549 239.828C126.632 240.024 126.742 240.289 126.879 240.621C127.218 241.445 127.692 242.607 128.26 244.007C129.393 246.801 130.88 250.489 132.37 254.189C132.68 254.96 132.991 255.732 133.298 256.496C134.465 259.393 135.587 262.18 136.488 264.41C137.057 265.819 137.541 267.015 137.895 267.882C138.071 268.313 138.22 268.675 138.332 268.946C138.334 268.949 138.336 268.955 138.339 268.963C138.383 269.069 138.597 269.59 138.791 269.962L146.134 261.853C146.234 262.044 146.311 262.218 146.319 262.237C146.314 262.226 146.284 262.157 146.221 262.004C146.129 261.783 145.996 261.46 145.824 261.039C145.482 260.2 145.006 259.026 144.439 257.621C143.541 255.399 142.424 252.623 141.258 249.728C140.95 248.962 140.638 248.189 140.326 247.414C138.837 243.717 137.344 240.011 136.202 237.196C135.632 235.79 135.144 234.593 134.787 233.726C134.609 233.295 134.455 232.926 134.336 232.645C134.278 232.509 134.216 232.364 134.158 232.234C134.13 232.171 134.088 232.079 134.04 231.979C134.04 231.978 134.04 231.977 134.039 231.975C134.019 231.933 133.877 231.631 133.679 231.306C131.38 227.53 128.752 224.429 125.693 223.383C122.248 222.205 119.238 223.926 116.95 226.869C114.844 229.578 113.203 233.458 111.836 237.569C110.434 241.783 109.131 246.832 107.863 252.378C106.137 259.932 104.446 268.477 102.628 277.66C98.9791 296.099 94.8204 317.112 88.8438 337.843C86.3956 346.335 82.2999 349.982 77.1288 350.679C71.5794 351.427 64.5539 348.733 57.1599 343.115C54.5931 341.165 51.9357 340.214 49.2561 340.548C46.5724 340.882 44.2528 342.457 42.3119 344.636C38.6075 348.796 35.9481 355.539 33.9047 362.167C31.8066 368.972 30.0528 376.716 28.496 383.694C28.4099 384.08 28.3245 384.463 28.2398 384.843C26.7448 391.549 25.457 397.326 24.147 401.551C23.1536 404.754 22.006 406.077 21.0827 406.703C20.0731 407.388 18.8117 407.583 17.3246 407.286C15.8364 406.988 14.3706 406.242 13.2076 405.472C12.6384 405.095 12.1837 404.741 11.8839 404.487C11.849 404.457 11.8172 404.43 11.7886 404.405C9.00534 400.212 6.61316 395.439 3.87468 389.96L3.85742 389.926C1.08115 384.372 -2.00162 378.205 -5.94777 372.116C-6.78365 370.826 -7.60179 369.496 -8.45593 368.108L-8.59737 367.878C-9.48599 366.433 -10.4186 364.921 -11.3667 363.484C-13.2247 360.666 -15.4137 357.703 -17.9814 355.71C-20.6855 353.611 -23.8406 352.569 -27.3699 353.712C-30.7214 354.797 -33.929 357.699 -37.1148 362.068C-37.1613 361.973 -37.2107 361.869 -37.2628 361.755C-38.7327 358.536 -40.1564 352.462 -41.7281 344.614C-42.045 343.032 -42.3662 341.388 -42.6927 339.716C-43.8739 333.669 -45.1254 327.262 -46.5013 322.111C-47.3803 318.821 -48.4439 315.505 -49.7955 312.906C-51.0942 310.41 -53.3365 307.317 -56.6495 307.317C-61.6585 307.317 -64.7242 312.951 -66.465 317.441C-68.3404 322.277 -69.7572 328.515 -70.932 334.499C-71.531 337.551 -72.0924 340.675 -72.6272 343.67L-72.7593 344.41C-73.2505 347.163 -73.7186 349.785 -74.1905 352.241C-75.2733 357.874 -76.1964 361.579 -77.0075 363.372C-77.3268 364.077 -77.5465 364.393 -77.6617 364.522C-77.7312 364.519 -77.8672 364.502 -78.0955 364.435C-78.4913 364.32 -78.9101 364.138 -79.605 363.838L-79.6608 363.813C-79.712 363.791 -79.7659 363.768 -79.8223 363.743C-81.0091 363.225 -83.3256 362.213 -85.7964 362.958C-88.798 363.863 -90.9872 366.872 -92.582 371.026C-93.455 373.299 -94.095 376.102 -94.6085 378.862C-95.1376 381.706 -95.6089 384.941 -96.0545 388.294C-96.3959 390.863 -96.7196 393.471 -97.046 396.1C-97.6003 400.565 -98.1622 405.091 -98.8311 409.593C-99.891 416.726 -101.08 422.733 -102.534 426.759C-104.028 430.898 -104.928 430.754 -105.039 430.736C-105.041 430.736 -105.044 430.735 -105.046 430.735C-111.595 429.972 -115.363 431.306 -118.516 434.246C-119.205 434.887 -119.807 435.551 -120.305 436.114C-120.449 436.276 -120.581 436.426 -120.705 436.568C-121.048 436.957 -121.335 437.283 -121.661 437.63C-122.27 438.276 -122.907 438.871 -123.727 439.409C-124.488 437.949 -125.338 435.427 -126.528 431.533C-126.666 431.081 -126.808 430.614 -126.953 430.135C-128.007 426.666 -129.25 422.573 -130.744 418.732C-132.45 414.347 -134.672 409.771 -137.735 406.349L-143.353 416.98C-141.682 418.847 -140.189 421.685 -138.77 425.334C-137.517 428.554 -136.469 431.999 -135.397 435.523C-135.25 436.007 -135.102 436.492 -134.954 436.978C-133.827 440.665 -132.491 444.962 -130.808 448.006C-129.928 449.598 -128.689 451.351 -126.983 452.367C-125.127 453.472 -123.16 453.441 -121.302 452.443C-119.092 451.257 -117.507 449.821 -116.223 448.457C-115.763 447.968 -115.311 447.454 -114.942 447.035C-114.838 446.917 -114.741 446.806 -114.652 446.706C-114.206 446.203 -113.869 445.839 -113.54 445.533C-112.624 444.679 -111.074 443.483 -105.782 444.1C-99.9326 444.781 -96.3652 438.517 -94.37 432.991C-92.2942 427.242 -90.8995 419.7 -89.8186 412.424C-89.1239 407.749 -88.5012 402.743 -87.9229 398.094C-87.6038 395.528 -87.2982 393.071 -87.0014 390.838C-86.5693 387.586 -86.1482 384.73 -85.7078 382.362C-85.2517 379.91 -84.8449 378.379 -84.5313 377.562C-84.2072 376.718 -83.9679 376.297 -83.8321 376.103C-83.6644 376.136 -83.2438 376.251 -82.2917 376.664C-82.2124 376.698 -82.1255 376.736 -82.0315 376.778C-80.8979 377.28 -78.7371 378.238 -76.4618 377.825C-73.5072 377.29 -71.1262 374.767 -69.3046 370.741C-67.5825 366.935 -66.3409 361.211 -65.3104 355.85C-64.8141 353.269 -64.3247 350.526 -63.8386 347.802L-63.7026 347.039C-63.1667 344.038 -62.6306 341.058 -62.0656 338.18C-60.9123 332.305 -59.7352 327.383 -58.4332 324.025C-57.8333 322.478 -57.3627 321.648 -57.0434 321.205C-56.4884 322.341 -55.8293 324.222 -55.0961 326.966C-53.8929 331.47 -52.8079 337.018 -51.6472 342.954C-51.3002 344.728 -50.9466 346.537 -50.581 348.363C-49.1003 355.756 -47.336 363.933 -44.9444 369.171C-43.7662 371.751 -41.845 374.961 -38.8922 375.886C-35.631 376.908 -32.8584 374.68 -30.8581 371.918C-28.328 368.425 -26.5322 367.176 -25.366 366.799C-24.3454 366.468 -23.4335 366.677 -22.3231 367.538C-21.0764 368.506 -19.7035 370.213 -18.0219 372.763C-17.2001 374.01 -16.3685 375.356 -15.4695 376.817L-15.3091 377.078C-14.4729 378.437 -13.5797 379.889 -12.658 381.312C-9.16107 386.707 -6.39207 392.225 -3.5838 397.843L-3.44894 398.113C-0.734116 403.545 2.08862 409.192 5.50609 414.241C5.89819 414.82 6.34291 415.251 6.4597 415.364L6.47459 415.378C6.69968 415.597 6.95839 415.831 7.23808 416.068C7.8009 416.545 8.53119 417.108 9.38802 417.675C11.0771 418.793 13.4274 420.04 16.0678 420.568C18.7092 421.097 21.8888 420.951 24.9809 418.853C28.1594 416.697 30.7743 412.796 32.5525 407.062C34.0821 402.129 35.5207 395.67 36.9426 389.285C37.0507 388.8 37.1586 388.315 37.2666 387.831C38.8427 380.767 40.4547 373.697 42.3185 367.652C44.2369 361.429 46.1352 357.283 47.9476 355.248C48.765 354.33 49.4435 353.981 50.0432 353.906C50.6468 353.831 51.5577 353.986 52.8898 354.998C61.0914 361.229 69.9626 365.111 77.9804 364.029C86.3763 362.897 93.5182 356.308 97.3473 343.026C103.514 321.635 108.008 298.982 111.744 280.145C113.503 271.276 115.094 263.254 116.613 256.607C117.83 251.282 118.988 246.86 120.136 243.407C121.32 239.849 122.32 237.863 123.06 236.911C123.224 236.7 123.35 236.574 123.433 236.503C123.486 236.457 123.522 236.433 123.542 236.422C123.551 236.424 123.565 236.428 123.582 236.434C123.88 236.536 124.865 237.144 126.549 239.828ZM123.522 236.419C123.522 236.419 123.522 236.419 123.523 236.419L123.522 236.419ZM-57.528 320.377C-57.5281 320.379 -57.5172 320.393 -57.4954 320.415C-57.5171 320.386 -57.528 320.376 -57.528 320.377ZM-56.5731 320.716C-56.565 320.714 -56.561 320.712 -56.561 320.712C-56.561 320.711 -56.5651 320.713 -56.5731 320.716ZM-83.7036 375.957C-83.7039 375.952 -83.7245 375.966 -83.764 376.013C-83.7229 375.985 -83.7032 375.962 -83.7036 375.957ZM-37.7349 362.818C-37.7542 362.83 -37.7641 362.838 -37.7642 362.839C-37.7643 362.84 -37.7547 362.835 -37.7349 362.818ZM-77.6824 364.544C-77.732 364.565 -77.7564 364.59 -77.756 364.598C-77.7556 364.605 -77.7309 364.594 -77.6824 364.544ZM11.6127 404.245C11.5451 404.173 11.5311 404.166 11.6057 404.238C11.6078 404.24 11.6101 404.243 11.6127 404.245Z" fill="#F9653E"/>
</g>
</svg>
