<svg width="1024" height="642" viewBox="0 0 1024 642" fill="none" xmlns="http://www.w3.org/2000/svg">
<path d="M1077 23.5754C1054.2 12.3602 1023.29 -6.09252 988.48 55.5912C953.667 117.275 937.529 117.291 898.287 76.0094C859.045 34.7273 833.808 38.8023 818.559 106.888C803.31 174.975 772.113 208.54 756.055 175.696C739.997 142.851 728.021 180.589 709.272 140.534C690.523 100.48 675.964 51.6135 647.047 106.888C618.131 162.164 608.91 106.888 593.379 106.888C577.848 106.888 569.63 170.969 559.13 207.825C548.63 244.682 518.301 249.482 505.336 262.299C492.37 275.117 497.232 356.828 467.437 352.021C437.641 347.215 440.677 369.645 423.44 382.463C406.203 395.28 398.833 382.16 380.264 338.655" stroke="#FF6036" stroke-width="24"/>
<path d="M402.057 380.348C401.495 379.514 380.842 339.391 380.264 338.655C350.903 301.218 346.232 396.95 314.13 483.38C302.95 513.482 274.1 511.681 246.323 495.3C218.546 478.919 209.607 544.664 198.813 571.682C188.94 596.394 164.948 580.026 163.978 578.915C152.612 565.881 145.022 549.43 131.75 533.536C118.479 517.642 108.174 498.251 87.705 520.185C67.2364 542.119 64.0264 446.864 47.4221 446.864C30.8179 446.864 27.0464 504.704 18.0225 520.185C8.99868 535.666 -0.952657 513.1 -9.40715 530.19C-17.8617 547.281 -18.3411 619.364 -39.4313 617.457C-60.5216 615.55 -58.3726 624.45 -70.5738 629.537C-82.7751 634.623 -85.1416 596.477 -102 581.854" stroke="#F9653E" stroke-width="24"/>
</svg>
