<svg width="1440" height="825" viewBox="0 0 1440 825" fill="none" xmlns="http://www.w3.org/2000/svg">
<path d="M1554 27.0341C1520.68 12.5126 1475.51 -11.38 1424.64 68.4883C1373.76 148.356 1350.18 148.378 1292.83 94.9258C1235.48 41.4736 1198.6 46.75 1176.31 134.908C1154.03 223.066 1108.44 266.527 1084.97 224C1061.5 181.473 1044 230.335 1016.6 178.473C989.2 126.61 967.924 63.3379 925.665 134.908C883.405 206.478 869.93 134.908 847.233 134.908C824.535 134.908 812.527 217.88 797.181 265.602C781.836 313.323 737.514 319.539 718.566 336.135C699.618 352.731 706.723 458.53 663.18 452.307C619.637 446.083 624.074 475.126 598.883 491.722C573.693 508.318 562.922 491.33 535.785 435" stroke="#FF6036" stroke-width="24"/>
<path d="M567.633 488.984C566.813 487.905 536.629 435.953 535.785 435C492.877 386.526 486.051 510.48 439.137 622.391C422.798 661.366 380.637 659.035 340.043 637.824C299.45 616.614 286.385 701.741 270.611 736.724C256.182 768.722 221.12 747.528 219.703 746.089C203.092 729.213 192 707.912 172.605 687.332C153.21 666.752 138.15 641.645 108.237 670.045C78.3241 698.445 73.633 575.109 49.3674 575.109C25.1017 575.109 19.59 650 6.40253 670.045C-6.78497 690.09 -21.3279 660.871 -33.6834 683C-46.0389 705.129 -46.7395 798.463 -77.561 795.993C-108.382 793.524 -105.242 805.049 -123.073 811.634C-140.904 818.22 -144.362 768.828 -169 749.895" stroke="#F9653E" stroke-width="24"/>
</svg>
