<svg width="16" height="15" viewBox="0 0 16 15" fill="none" xmlns="http://www.w3.org/2000/svg">
<path fill-rule="evenodd" clip-rule="evenodd" d="M15.2177 0.419006C14.659 -0.139668 13.7532 -0.139669 13.1946 0.419006L8.13672 5.47686L3.07887 0.419006C2.52019 -0.139669 1.6144 -0.139668 1.05573 0.419006C0.49705 0.977681 0.49705 1.88347 1.05572 2.44215L6.11358 7.5L1.05573 12.5579C0.497051 13.1165 0.497051 14.0223 1.05573 14.581C1.6144 15.1397 2.52019 15.1397 3.07887 14.581L8.13672 9.52314L13.1946 14.581C13.7532 15.1397 14.659 15.1397 15.2177 14.581C15.7764 14.0223 15.7764 13.1165 15.2177 12.5579L10.1599 7.5L15.2177 2.44215C15.7764 1.88347 15.7764 0.977681 15.2177 0.419006Z" fill="#2D2B2C"/>
</svg>
