<svg width="11" height="11" viewBox="0 0 11 11" fill="none" xmlns="http://www.w3.org/2000/svg">
<path fill-rule="evenodd" clip-rule="evenodd" d="M0.307431 0.307112C-0.102264 0.716806 -0.102264 1.38105 0.307431 1.79075L4.01668 5.5L0.307432 9.20925C-0.102263 9.61895 -0.102263 10.2832 0.307431 10.6929C0.717126 11.1026 1.38137 11.1026 1.79107 10.6929L5.50032 6.98364L9.20925 10.6926C9.61895 11.1023 10.2832 11.1023 10.6929 10.6926C11.1026 10.2829 11.1026 9.61863 10.6929 9.20893L6.98396 5.5L10.6929 1.79107C11.1026 1.38137 11.1026 0.717126 10.6929 0.307431C10.2832 -0.102264 9.61895 -0.102264 9.20925 0.307431L5.50032 4.01636L1.79107 0.307112C1.38137 -0.102583 0.717126 -0.102583 0.307431 0.307112Z" fill="#2D2B2C"/>
</svg>
