<svg width="83" height="143" viewBox="0 0 83 143" fill="none" xmlns="http://www.w3.org/2000/svg">
<path fill-rule="evenodd" clip-rule="evenodd" d="M78.1088 60.0857C77.0703 58.5317 75.5417 56.8575 73.5139 56.1923C72.6838 55.9199 70.0067 54.899 70.4052 53.1935C70.481 52.869 71.1113 52.2749 72.2228 52.0308C72.4222 51.987 72.7568 51.9325 73.1826 51.9325C74.3246 51.9325 76.1213 52.3255 77.7204 54.3745C79.2552 56.3409 78.8502 58.4836 78.1088 60.0857M74.0873 66.5269C73.4627 68.3454 72.1296 69.8096 70.3321 70.65L53.1191 78.6994C49.4211 80.4286 44.9516 78.979 43.1559 75.4684L16.3136 22.9887C15.4832 21.3654 15.3527 19.5185 15.9467 17.788C16.5709 15.9698 17.9044 14.5052 19.7015 13.6649L36.9148 5.61579C40.6125 3.88665 45.082 5.3358 46.878 8.84684L57.1071 28.8463C56.23 29.5875 55.6202 30.5341 55.355 31.597C54.9683 33.147 55.2033 34.7064 56.0158 35.9882C56.6497 36.988 57.9415 38.2871 60.4983 38.7982C61.286 38.9558 61.8796 39.1626 62.3205 39.3632C62.115 39.6924 61.9303 40.0402 61.7786 40.4154C60.8163 42.7946 60.6151 46.0648 65.1198 48.1328C66.4278 48.7333 67.5461 49.2179 68.3755 49.5711C67.4509 50.3095 66.7994 51.2529 66.5558 52.2957C65.7832 55.601 67.9766 58.5316 72.2801 59.9435C72.8921 60.1445 73.4685 60.6165 73.9823 61.1927L73.7204 61.3262C74.5508 62.9498 74.6809 64.7967 74.0873 66.5269M28.3961 56.697C28.3774 56.7469 28.3533 56.8036 28.3245 56.8646C28.1621 56.165 27.9914 55.2155 27.8154 54.1544L28.7881 56.0558C28.6221 56.2375 28.487 56.4521 28.3961 56.697M59.7893 19.2212C61.5131 16.7487 62.2853 17.0868 62.9666 17.3862C64.2775 17.9613 63.8901 19.2977 63.7403 19.6933C62.8164 22.1325 61.2532 25.1625 60.4411 26.6849L58.0824 22.0732C58.436 21.3819 59.0174 20.3283 59.7893 19.2212M73.2457 37.5156C70.4888 36.2377 67.8035 35.9606 65.6039 36.7439C64.7853 36.1088 63.4245 35.3565 61.2745 34.9264C60.3363 34.7387 59.6726 34.3754 59.3556 33.8754C59.062 33.4127 59.1041 32.9 59.191 32.5515C59.2432 32.3422 59.4232 31.9402 60.0431 31.5981C60.9389 31.1038 63.1783 30.5158 68.1136 32.1351C71.6244 33.2867 72.8584 35.6031 73.2457 37.5156M72.7002 47.9878C72.353 47.375 71.8381 46.7533 71.0871 46.4317L70.6203 46.2335C69.8056 45.8889 68.4419 45.312 66.771 44.5449C65.2279 43.8367 64.8438 43.3787 65.4439 41.8943C65.7285 41.1908 66.2086 40.7245 66.9111 40.4689C68.2421 39.9843 70.1635 40.3213 72.182 41.3925C75.4933 43.15 76.718 45.494 75.848 48.3708C74.8296 48.0524 73.7696 47.9199 72.7002 47.9878M79.3419 50.3591C80.8213 46.5516 80.0782 42.9942 77.3116 40.2611C77.6537 36.6703 76.3881 30.6939 69.3468 28.3836C67.6269 27.8193 66.0454 27.4489 64.6009 27.2644C65.4842 25.5514 66.6509 23.1661 67.4372 21.0909C68.577 18.082 67.3657 15.0035 64.5563 13.7708C60.1274 11.8274 57.4312 15.6945 56.5454 16.9649C56.3288 17.2754 56.1268 17.5813 55.9367 17.8788L50.3981 7.05029C47.6445 1.66688 40.8446 -0.581683 35.2395 2.03948L18.0258 10.0889C15.2492 11.3873 13.1829 13.6667 12.2077 16.5076C11.2633 19.2598 11.4714 22.1997 12.7938 24.7853L20.9286 40.6897C20.427 40.461 19.8862 40.2596 19.299 40.0938C16.66 39.3486 14.3641 39.7366 13.0011 41.1585C11.4286 42.799 11.259 45.3964 12.4826 49.0999C13.8855 53.3457 13.58 54.8204 13.0259 57.4975C12.6299 59.4101 12.1373 61.79 12.0812 65.743C12.0165 70.2968 12.709 73.884 13.686 76.6685C14.1417 79.2979 14.8525 85.6889 12.2152 90.7349C10.0814 94.8178 3.36683 110.138 0.47446 116.797C0.0400116 117.798 0.50177 118.958 1.50398 119.392C2.50512 119.825 3.66688 119.368 4.10097 118.368C6.96459 111.778 13.6731 96.4776 15.7192 92.5624C17.1882 89.7513 17.812 86.6761 18.0072 83.87C18.7046 84.5664 19.1991 84.9053 19.2742 84.9548C19.612 85.1788 19.9947 85.2861 20.3738 85.2861C21.0145 85.2861 21.6437 84.9785 22.0228 84.4074C22.6265 83.4992 22.3879 82.2802 21.4781 81.6771C21.3325 81.5755 19.1021 79.9612 17.5407 75.7578C17.407 75.0262 17.2957 74.5707 17.2748 74.4885L17.1271 74.5254C16.449 72.2751 15.9822 69.4084 16.0336 65.799C16.0847 62.2219 16.5162 60.1366 16.8968 58.2969C17.4965 55.3997 17.9705 53.111 16.2363 47.8622C15.3872 45.292 15.6164 44.1393 15.8561 43.8891C16.1026 43.6325 17.0556 43.5636 18.2242 43.8935C19.4611 44.2427 22.3577 45.0604 23.2698 50.7551C23.3697 51.3811 23.4627 51.9702 23.55 52.5233C23.9964 55.348 24.2914 57.214 24.6762 58.5159C25.2803 60.5602 26.3838 61.6034 27.956 61.6163C29.2561 61.6346 30.2148 60.9422 30.8857 60.1567L39.6361 77.2647C41.6096 81.1229 45.6598 83.3707 49.8602 83.3703C51.5211 83.3703 53.2068 83.0186 54.7951 82.2759L60.3279 79.6884C57.2203 83.6105 52.9628 88.4472 49.1426 90.928C45.805 93.0958 44.8894 93.2114 42.4246 92.7638C41.2931 92.5577 40.2082 93.3618 40.1018 94.5338C40.0077 95.5727 40.7957 96.4855 41.8238 96.6679C42.5429 96.7949 43.1918 96.8761 43.8038 96.9066L22.2183 140.768L25.7658 142.51C25.7658 142.51 29.1284 135.677 30.8097 132.261C36.8032 120.082 48.7901 95.7249 48.7901 95.7249C49.5433 95.3368 50.3622 94.8458 51.2972 94.2387C58.4827 89.5718 66.5363 78.1047 67.8727 76.1605L72.0084 74.2264C74.7851 72.928 76.8513 70.6486 77.8266 67.8077C77.975 67.3756 78.0914 66.9387 78.183 66.4993L79.3376 65.2846C81.5997 62.9046 84.8241 57.0542 80.8379 51.9465C80.3761 51.3549 79.8745 50.8251 79.3419 50.3591Z" fill="#FCC537"/>
</svg>
