<svg width="14" height="15" viewBox="0 0 14 15" fill="none" xmlns="http://www.w3.org/2000/svg">
<path fill-rule="evenodd" clip-rule="evenodd" d="M9.59702 8.22254C9.23062 9.30153 8.54857 10.1891 7.67585 10.7214C6.89788 11.1963 6.0627 11.3209 5.32374 11.0725C4.58449 10.8241 3.99603 10.2209 3.66718 9.37362C3.29785 8.42392 3.29668 7.3067 3.66307 6.2277C4.27061 4.43921 5.72828 3.25019 7.15104 3.25019C7.41594 3.25019 7.68025 3.29134 7.93693 3.37773C8.67589 3.6261 9.26406 4.22966 9.5932 5.07662C9.96224 6.02632 9.96371 7.14355 9.59702 8.22254ZM8.96979 0.336327C5.64816 -0.780023 1.89617 1.4016 0.606008 5.20011C-0.00181866 6.9889 0.0166626 8.88217 0.657052 10.5312C1.33763 12.2829 2.62809 13.5551 4.29052 14.114C4.88309 14.3133 5.49297 14.412 6.10579 14.412C7.21231 14.412 8.32793 14.09 9.36347 13.4579C10.8778 12.5336 12.0468 11.0393 12.6543 9.2502C13.2618 7.46141 13.2436 5.56814 12.6033 3.91944C11.923 2.16772 10.6322 0.895232 8.96979 0.336327Z" fill="#FCC537"/>
</svg>
