<svg width="95" height="117" viewBox="0 0 95 117" fill="none" xmlns="http://www.w3.org/2000/svg">
<path fill-rule="evenodd" clip-rule="evenodd" d="M62.0836 53.0806C63.277 48.9392 63.7923 43.9751 60.4246 41.8963C56.6782 39.5842 53.2384 40.5026 50.2005 44.6252C47.5386 48.237 44.3685 57.4497 41.6185 65.9853L41.4595 66.4779C41.2532 67.1177 41.0654 67.744 40.8893 68.3609C40.3927 68.1866 39.6645 67.7803 39.0417 67.0358C38.305 66.1545 37.556 64.5869 38.1708 62.1203L38.2076 61.9729L42.612 7.58148C42.7556 5.8755 44.1505 4.54227 45.8565 4.48015L67.393 3.69633C68.3684 3.6604 69.2851 4.03283 69.9618 4.74511C70.6382 5.45706 70.9653 6.38897 70.8816 7.38099L67.2166 54.5075C67.2136 54.5441 67.2142 54.5804 67.2136 54.6166C65.9988 53.8382 64.3846 53.0974 62.6046 53.0645C62.4282 53.0608 62.2547 53.0672 62.0836 53.0806ZM79.1447 33.463C79.3202 34.7106 79.6795 37.2646 72.1498 38.581L72.6236 32.4871C72.6755 32.4781 72.7271 32.4683 72.7786 32.4546C74.1049 32.1046 77.2747 31.6697 78.6087 32.5593C78.9291 32.7726 79.0841 33.0345 79.1447 33.463ZM76.5432 46.2627C76.9259 46.4998 77.1299 46.8 77.2259 47.2668C77.4011 48.1198 77.2933 48.7904 76.8858 49.3774C76.3005 50.221 74.8112 51.3296 71.0982 52.0993L71.574 45.9813C73.0346 45.7082 75.367 45.5336 76.5432 46.2627ZM74.8945 19.8052C74.925 19.8021 74.9558 19.8001 74.9862 19.7974C76.3122 19.6856 77.7278 19.7608 78.5361 20.2783C78.8843 20.5013 79.0678 20.7854 79.1502 21.2217C79.196 21.5619 79.2218 21.8628 79.2325 22.1341C79.2192 22.8565 78.9921 23.2813 78.7966 23.5553C78.0211 24.643 76.1119 25.4987 73.1196 26.1072L73.5957 19.9862C73.952 19.9207 74.3514 19.8616 74.7719 19.8179C74.8131 19.8136 74.8533 19.8089 74.8945 19.8052ZM84.9079 55.8505C82.991 55.6268 81.3269 55.8878 79.925 56.3717C79.2697 55.6739 78.1179 54.8427 76.1528 54.3826C77.851 53.6183 79.0969 52.6578 79.9089 51.4875C80.9047 50.0522 81.2157 48.3811 80.833 46.5206C80.5333 45.0648 79.7197 43.8888 78.4792 43.1201C77.0772 42.2513 75.31 42.025 73.7396 42.0512C77.4877 41.3127 83.6898 39.328 82.7911 32.9466C82.5845 31.4777 81.8432 30.2799 80.6472 29.4826C80.0127 29.0598 79.2864 28.7817 78.5294 28.6051C81.1712 27.5704 82.9742 25.7818 82.9116 22.1731C82.918 21.7066 82.8812 21.2227 82.7988 20.7216C82.7958 20.7005 82.7944 20.6807 82.7918 20.6592C82.7901 20.6491 82.7874 20.6397 82.7861 20.6296C82.7834 20.6152 82.7827 20.6014 82.78 20.5873C82.777 20.5692 82.7713 20.5524 82.768 20.5346C82.5396 19.1231 81.8134 17.9686 80.6535 17.1938C78.6817 15.8764 75.824 15.9462 73.89 16.2018L74.5526 7.68059C74.7227 5.66195 74.0212 3.66313 72.628 2.19659C71.2348 0.730045 69.2817 -0.0688803 67.259 0.00466512L45.7228 0.788478C42.1575 0.918442 39.2425 3.70477 38.9412 7.27626L38.6596 10.753C38.3073 10.3222 37.9132 9.93028 37.4706 9.6005C36.1513 8.61821 34.5696 8.28474 32.8955 8.63601C26.8501 9.90543 26.755 13.5165 26.6449 17.6986C26.6231 18.519 26.5987 19.4492 26.5354 20.4416C26.1955 25.7812 23.4037 31.5617 20.0414 33.8876C17.9262 35.3508 18.8286 39.2138 22.1327 36.9285C26.4711 33.9276 29.7933 27.2443 30.2111 20.6766C30.2788 19.6158 30.3042 18.6489 30.3267 17.7963C30.4355 13.6667 30.4552 12.9225 33.6502 12.2518C34.2977 12.1158 34.798 12.2122 35.2718 12.5641C36.8133 13.7093 37.6611 17.179 37.8335 19.0989C37.8483 19.2695 37.8878 19.4317 37.9447 19.5849L34.5606 61.3782C34.3848 62.1254 34.293 62.8608 34.2743 63.5785C31.5495 63.8955 24.962 64.7357 19.0543 66.0636C11.6124 67.7366 1.87529 70.3161 1.65798 70.3735C0.674254 70.6331 0.0866279 71.643 0.345116 72.6296C0.562756 73.4588 1.30876 74.0072 2.12507 74.0072C2.2801 74.0072 2.4378 73.9877 2.5945 73.946C2.81147 73.8889 12.4833 71.3266 19.8596 69.6686C25.6899 68.3576 32.3993 67.5153 34.9085 67.2249C35.3437 68.2961 35.9953 69.2657 36.8552 70.0888C37.7957 70.9894 38.9177 71.6268 39.9982 71.9381C38.1101 80.8643 39.3319 87.1019 40.1141 91.0872L40.1944 91.4982C40.8226 94.7201 41.4879 96.2508 42.0219 97.4809C42.6186 98.8541 43.0123 99.7612 43.0994 102.982C43.169 105.57 43.5872 115.85 43.605 116.286C43.6455 117.28 47.3266 117.154 47.2851 116.136C47.2808 116.029 46.8502 105.444 46.7812 102.883C46.675 98.9434 46.0834 97.5823 45.3987 96.0056C44.9118 94.8847 44.36 93.6146 43.8089 90.7893L43.7279 90.3739C42.8081 85.6874 41.4186 78.6056 44.9637 67.6151L45.1231 67.1211C46.5933 62.5572 50.4995 50.4343 53.162 46.8209C55.5333 43.603 57.0377 44.1433 58.4942 45.0423C60.3006 46.1573 58.823 52.0812 56.95 56.4107C54.8238 59.2433 53.7222 62.9448 53.5387 63.5983C53.2628 64.5796 53.832 65.5985 54.8101 65.8762C54.9775 65.9235 55.1459 65.946 55.312 65.946C56.1146 65.946 56.8532 65.4151 57.0832 64.6024C57.489 63.1678 58.1902 61.4285 59.038 59.9519C59.434 59.2914 59.9761 58.6775 60.1395 58.3154C60.8986 57.3768 61.7136 56.7576 62.5085 56.7576C62.5178 56.7576 62.5275 56.7579 62.5369 56.7579C63.6737 56.7791 64.8737 57.4507 65.7362 58.0831C64.8158 58.8827 64.186 59.5385 64.0048 59.7316C63.308 60.4738 63.3432 61.6411 64.0825 62.3406C64.4381 62.6771 64.8921 62.8437 65.3455 62.8437C65.8347 62.8437 66.3228 62.6496 66.6851 62.2651C68.1523 60.7079 71.9004 57.5652 74.1411 57.7892C75.1801 57.8937 75.898 58.116 76.3902 58.3447C75.2584 59.2591 74.6434 60.0856 74.5831 60.1685C73.9871 60.9889 74.1662 62.1324 74.9799 62.7362C75.7932 63.34 76.944 63.1668 77.5517 62.3551C77.6541 62.2184 80.1115 59.0096 84.4827 59.5197C85.5591 59.6453 86.7126 60.6205 87.7302 62.2661C90.2173 66.2879 91.1026 72.7408 89.703 76.6511C89.0859 78.3752 88.6828 78.3571 87.7138 78.3138C87.6019 78.3091 87.4861 78.304 87.3679 78.3013C87.236 73.0712 86.3865 68.2219 86.3353 67.9351C86.1565 66.9313 85.1989 66.2634 84.1991 66.442C83.1979 66.621 82.5313 67.5805 82.7097 68.5846C82.7261 68.6786 84.3675 78.0491 83.3945 84.2699C82.3625 90.8679 82.1264 95.1758 82.0554 96.0056C81.9687 97.0218 82.7197 97.9165 83.7333 98.0038C83.7865 98.0081 83.8397 98.0105 83.8926 98.0105C84.8382 98.0105 85.6431 97.2838 85.7252 96.321C85.7422 96.1191 86.0212 91.3135 87.0334 84.8425C87.1754 83.9341 87.2674 82.975 87.3223 81.9951C87.3983 81.9974 87.4797 82.0011 87.5504 82.0041C88.877 82.0629 91.6353 82.1858 93.1698 77.899C94.93 72.9812 93.9151 65.2589 90.8601 60.3186C89.2145 57.6576 87.1563 56.1124 84.9079 55.8505Z" fill="#FCC537"/>
</svg>
