<svg width="132" height="165" viewBox="0 0 132 165" fill="none" xmlns="http://www.w3.org/2000/svg">
<path fill-rule="evenodd" clip-rule="evenodd" d="M86.8013 74.6044C88.4691 68.7899 89.1893 61.8203 84.4826 58.9017C79.2467 55.6555 74.4395 56.945 70.1937 62.7331C66.4735 67.804 62.043 80.7386 58.1997 92.7226L57.9774 93.4143C57.6891 94.3125 57.4266 95.1918 57.1805 96.058C56.4865 95.8133 55.4687 95.2428 54.5983 94.1975C53.5688 92.9603 52.522 90.7593 53.3812 87.2962L53.4326 87.0892L59.5881 10.7237C59.7888 8.32853 61.7383 6.45669 64.1225 6.36947L94.2217 5.26899C95.5848 5.21854 96.8661 5.74143 97.8118 6.74148C98.757 7.74105 99.2142 9.04945 99.0972 10.4423L93.975 76.6078C93.9708 76.6592 93.9718 76.7101 93.9708 76.761C92.2731 75.6681 90.0171 74.628 87.5295 74.5818C87.2829 74.5766 87.0405 74.5856 86.8013 74.6044M110.646 47.0614C110.891 48.813 111.393 52.3988 100.87 54.247L101.532 45.6913C101.604 45.6785 101.676 45.6648 101.748 45.6455C103.602 45.1542 108.032 44.5436 109.896 45.7926C110.344 46.092 110.561 46.4598 110.646 47.0614M107.01 65.0321C107.545 65.365 107.83 65.7865 107.964 66.4419C108.209 67.6395 108.058 68.581 107.489 69.4052C106.671 70.5896 104.589 72.146 99.4 73.2267L100.065 64.637C102.106 64.2536 105.366 64.0085 107.01 65.0321M104.706 27.8858C104.748 27.8815 104.791 27.8787 104.834 27.8749C106.687 27.7179 108.665 27.8235 109.795 28.5501C110.282 28.8632 110.538 29.2621 110.653 29.8745C110.717 30.3522 110.753 30.7746 110.768 31.1556C110.75 32.1698 110.432 32.7662 110.159 33.151C109.075 34.6781 106.407 35.8795 102.225 36.7339L102.89 28.1399C103.388 28.048 103.947 27.965 104.534 27.9037C104.592 27.8976 104.648 27.891 104.706 27.8858M118.7 78.4934C116.021 78.1794 113.695 78.5457 111.736 79.2251C110.82 78.2454 109.211 77.0784 106.464 76.4325C108.838 75.3594 110.579 74.0109 111.714 72.3677C113.105 70.3525 113.54 68.0064 113.005 65.3943C112.586 63.3503 111.449 61.6992 109.715 60.6199C107.756 59.4001 105.286 59.0824 103.092 59.1191C108.33 58.0823 116.998 55.2958 115.742 46.3364C115.453 44.2741 114.417 42.5922 112.745 41.4729C111.859 40.8793 110.844 40.4889 109.786 40.2409C113.478 38.7882 115.998 36.277 115.91 31.2103C115.919 30.5554 115.868 29.876 115.752 29.1725C115.748 29.1428 115.746 29.115 115.743 29.0848C115.74 29.0707 115.737 29.0575 115.735 29.0433C115.731 29.023 115.73 29.0037 115.726 28.9839C115.722 28.9584 115.714 28.9349 115.709 28.9099C115.39 26.9282 114.375 25.3072 112.754 24.2194C109.999 22.3698 106.005 22.4678 103.302 22.8266L104.228 10.8629C104.465 8.02872 103.485 5.22238 101.538 3.16335C99.5908 1.10433 96.8613 -0.0173622 94.0344 0.0858955L63.9357 1.18637C58.953 1.36884 54.879 5.28084 54.4578 10.2952L54.0643 15.1766C53.572 14.5717 53.0212 14.0214 52.4026 13.5584C50.5588 12.1793 48.3482 11.7111 46.0085 12.2043C37.5596 13.9866 37.4267 19.0566 37.2728 24.9281C37.2423 26.08 37.2082 27.386 37.1197 28.7793C36.6448 36.2761 32.743 44.3919 28.0438 47.6575C25.0878 49.7118 26.3489 55.1355 30.9666 51.9269C37.0299 47.7136 41.6729 38.3304 42.2569 29.1093C42.3514 27.6199 42.387 26.2624 42.4183 25.0653C42.5704 19.2673 42.598 18.2225 47.0632 17.2809C47.9683 17.0899 48.6674 17.2253 49.3295 17.7194C51.484 19.3272 52.6688 24.1987 52.9098 26.8942C52.9304 27.1338 52.9856 27.3615 53.0652 27.5765L48.3356 86.2542C48.0899 87.3033 47.9617 88.3359 47.9355 89.3435C44.1273 89.7886 34.9208 90.9682 26.6643 92.8325C16.2636 95.1815 2.65522 98.8031 2.35152 98.8837C0.976679 99.2482 0.155424 100.666 0.516683 102.051C0.820851 103.215 1.86345 103.985 3.00431 103.985C3.22098 103.985 3.44138 103.958 3.66038 103.9C3.96362 103.819 17.4807 100.222 27.7897 97.894C35.9382 96.0533 45.315 94.8708 48.8218 94.463C49.4301 95.967 50.3408 97.3283 51.5425 98.4839C52.857 99.7484 54.4251 100.643 55.9351 101.08C53.2964 113.613 55.0039 122.37 56.0971 127.966L56.2094 128.543C57.0872 133.066 58.0171 135.215 58.7634 136.942C59.5973 138.87 60.1476 140.144 60.2693 144.666C60.3666 148.299 60.9511 162.732 60.9759 163.345C61.0325 164.74 66.1772 164.564 66.1192 163.134C66.1131 162.984 65.5113 148.123 65.4149 144.526C65.2666 138.996 64.4397 137.085 63.4827 134.871C62.8023 133.297 62.0311 131.514 61.2609 127.547L61.1477 126.964C59.8622 120.384 57.9202 110.442 62.8749 95.0108L63.0976 94.3173C65.1524 87.9096 70.6115 70.8891 74.3327 65.8158C77.6467 61.2979 79.7492 62.0566 81.7848 63.3187C84.3094 64.8841 82.2443 73.2013 79.6266 79.2798C76.6551 83.2569 75.1155 88.4537 74.8591 89.3713C74.4735 90.749 75.269 92.1795 76.6359 92.5694C76.8699 92.6359 77.1053 92.6675 77.3374 92.6675C78.4591 92.6675 79.4914 91.9221 79.8129 90.7811C80.38 88.7668 81.3599 86.3249 82.5448 84.2518C83.0982 83.3244 83.856 82.4624 84.0843 81.9542C85.1452 80.6363 86.2842 79.7669 87.3951 79.7669C87.4082 79.7669 87.4217 79.7674 87.4348 79.7674C89.0235 79.7971 90.7007 80.7401 91.9061 81.6279C90.6197 82.7505 89.7395 83.6714 89.4864 83.9425C88.5125 84.9845 88.5617 86.6234 89.5949 87.6055C90.0919 88.078 90.7264 88.3118 91.36 88.3118C92.0437 88.3118 92.726 88.0393 93.2323 87.4994C95.2829 85.3131 100.521 80.9008 103.653 81.2153C105.105 81.362 106.108 81.6741 106.796 81.9952C105.214 83.2791 104.355 84.4394 104.27 84.5559C103.437 85.7078 103.688 87.3132 104.825 88.1609C105.962 89.0087 107.57 88.7654 108.419 87.6258C108.562 87.4339 111.997 82.9288 118.106 83.645C119.61 83.8213 121.222 85.1905 122.644 87.5009C126.12 93.1475 127.358 102.207 125.402 107.697C124.539 110.118 123.976 110.093 122.622 110.032C122.465 110.025 122.303 110.018 122.138 110.014C121.954 102.671 120.767 95.8628 120.695 95.4602C120.445 94.0509 119.107 93.1131 117.709 93.3639C116.31 93.6152 115.379 94.9623 115.628 96.3721C115.651 96.5041 117.945 109.66 116.585 118.394C115.143 127.658 114.813 133.706 114.714 134.871C114.592 136.298 115.642 137.554 117.058 137.677C117.133 137.683 117.207 137.686 117.281 137.686C118.603 137.686 119.728 136.666 119.842 135.314C119.866 135.031 120.256 128.283 121.671 119.198C121.869 117.923 121.998 116.576 122.075 115.2C122.181 115.204 122.294 115.209 122.393 115.213C124.247 115.296 128.102 115.468 130.247 109.449C132.707 102.545 131.288 91.7028 127.019 84.7666C124.719 81.0305 121.842 78.8612 118.7 78.4934Z" fill="#FCC537"/>
</svg>
