<svg width="112" height="141" viewBox="0 0 112 141" fill="none" xmlns="http://www.w3.org/2000/svg">
<path fill-rule="evenodd" clip-rule="evenodd" d="M73.6728 64.1117C75.0907 59.1671 75.703 53.2402 71.7015 50.7583C67.2501 47.9977 63.163 49.0943 59.5534 54.0164C56.3906 58.3287 52.6238 69.3282 49.3563 79.5193L49.1674 80.1075C48.9223 80.8714 48.6991 81.6192 48.4898 82.3557C47.8998 82.1476 47.0345 81.6625 46.2945 80.7735C45.4193 79.7214 44.5293 77.8497 45.2598 74.9047L45.3035 74.7287L50.5367 9.78801C50.7074 7.75114 52.3648 6.15934 54.3918 6.08516L79.9814 5.14933C81.1403 5.10643 82.2296 5.55109 83.0337 6.40152C83.8373 7.25155 84.226 8.36421 84.1265 9.54863L79.7717 65.8154C79.7682 65.8591 79.769 65.9024 79.7682 65.9457C78.3248 65.0163 76.4068 64.1318 74.2919 64.0925C74.0822 64.0881 73.8761 64.0957 73.6728 64.1117M93.9447 40.6893C94.1532 42.1789 94.58 45.2282 85.6334 46.7999L86.1963 39.5242C86.258 39.5133 86.3193 39.5017 86.3805 39.4853C87.9564 39.0675 91.7227 38.5482 93.3077 39.6104C93.6885 39.865 93.8727 40.1777 93.9447 40.6893M90.8536 55.9715C91.3083 56.2546 91.5506 56.613 91.6648 57.1703C91.8729 58.1888 91.7448 58.9895 91.2606 59.6904C90.5652 60.6976 88.7956 62.0211 84.3839 62.9401L84.9492 55.6355C86.6846 55.3095 89.456 55.101 90.8536 55.9715M88.8946 24.3825C88.9308 24.3789 88.9674 24.3765 89.0036 24.3733C90.579 24.2398 92.2611 24.3296 93.2215 24.9474C93.6353 25.2137 93.8533 25.5529 93.9512 26.0737C94.0057 26.4799 94.0363 26.8392 94.049 27.1631C94.0331 28.0256 93.7634 28.5328 93.531 28.86C92.6096 30.1587 90.3411 31.1803 86.7856 31.9069L87.3514 24.5986C87.7747 24.5204 88.2493 24.4499 88.749 24.3977C88.7979 24.3925 88.8456 24.3869 88.8946 24.3825M100.792 67.4189C98.5148 67.1519 96.5375 67.4634 94.8717 68.0412C94.0932 67.208 92.7246 66.2156 90.3897 65.6663C92.4075 64.7537 93.8879 63.607 94.8526 62.2096C96.0358 60.496 96.4054 58.5008 95.9507 56.2795C95.5946 54.5413 94.6279 53.1372 93.1539 52.2194C91.4881 51.1821 89.3883 50.9119 87.5224 50.9431C91.9759 50.0614 99.3451 47.6918 98.2773 40.0728C98.0318 38.319 97.151 36.8888 95.7299 35.9369C94.976 35.4321 94.1131 35.1001 93.2135 34.8892C96.3525 33.6539 98.4949 31.5184 98.4205 27.2097C98.4281 26.6527 98.3843 26.075 98.2864 25.4767C98.2828 25.4515 98.2813 25.4278 98.2781 25.4021C98.2761 25.3901 98.2729 25.3789 98.2713 25.3669C98.2681 25.3496 98.2673 25.3332 98.2641 25.3163C98.2606 25.2947 98.2538 25.2746 98.2498 25.2534C97.9785 23.5682 97.1156 22.1897 95.7375 21.2647C93.3946 19.6917 89.999 19.7751 87.701 20.0802L88.4884 9.90634C88.6905 7.49618 87.857 5.10969 86.2016 3.3587C84.5462 1.60772 82.2255 0.653844 79.8222 0.741654L54.233 1.67749C49.9968 1.83266 46.5331 5.1594 46.1751 9.42359L45.8405 13.5747C45.422 13.0603 44.9537 12.5924 44.4278 12.1986C42.8603 11.0258 40.9809 10.6277 38.9917 11.0471C31.8086 12.5627 31.6956 16.8742 31.5647 21.8673C31.5389 22.8468 31.5098 23.9575 31.4346 25.1423C31.0308 31.5176 27.7136 38.4192 23.7185 41.1963C21.2053 42.9432 22.2775 47.5555 26.2034 44.8269C31.3583 41.244 35.3056 33.2645 35.8022 25.423C35.8825 24.1564 35.9128 23.002 35.9394 21.984C36.0687 17.0534 36.0922 16.1649 39.8884 15.3642C40.6578 15.2018 41.2522 15.3169 41.8151 15.7371C43.6468 17.1043 44.6541 21.247 44.859 23.5393C44.8765 23.743 44.9235 23.9366 44.9911 24.1195L40.9701 74.0186C40.7613 74.9108 40.6523 75.7889 40.63 76.6457C37.3923 77.0242 29.5652 78.0274 22.5457 79.6128C13.7032 81.6104 2.13371 84.6901 1.87551 84.7587C0.706647 85.0686 0.00843452 86.2743 0.315569 87.4523C0.574166 88.4423 1.46056 89.0971 2.4305 89.0971C2.6147 89.0971 2.80208 89.0738 2.98827 89.0241C3.24607 88.9559 14.738 85.8966 23.5025 83.9171C30.4301 82.3517 38.4021 81.3461 41.3835 80.9993C41.9007 82.2784 42.6749 83.4359 43.6965 84.4187C44.8141 85.4941 46.1472 86.2551 47.4311 86.6268C45.1876 97.2842 46.6394 104.732 47.5687 109.49L47.6642 109.981C48.4106 113.827 49.2011 115.655 49.8356 117.124C50.5446 118.763 51.0125 119.846 51.1159 123.692C51.1986 126.781 51.6955 139.055 51.7166 139.576C51.7648 140.762 56.1386 140.613 56.0893 139.396C56.0841 139.269 55.5725 126.631 55.4906 123.573C55.3644 118.87 54.6615 117.245 53.8479 115.362C53.2694 114.024 52.6138 112.507 51.9589 109.134L51.8626 108.638C50.7698 103.043 49.1187 94.5874 53.3311 81.4652L53.5204 80.8754C55.2674 75.4264 59.9086 60.9522 63.0722 56.6379C65.8898 52.796 67.6773 53.4411 69.4079 54.5145C71.5542 55.8457 69.7986 62.9185 67.573 68.0877C65.0467 71.4698 63.7378 75.8891 63.5198 76.6694C63.192 77.841 63.8683 79.0575 65.0304 79.3891C65.2293 79.4456 65.4295 79.4725 65.6268 79.4725C66.5804 79.4725 67.458 78.8386 67.7314 77.8682C68.2136 76.1554 69.0466 74.0788 70.054 72.3158C70.5245 71.5272 71.1687 70.7941 71.3629 70.3619C72.2648 69.2412 73.2331 68.5019 74.1776 68.5019C74.1887 68.5019 74.2003 68.5023 74.2114 68.5023C75.5621 68.5275 76.988 69.3295 78.0128 70.0845C76.9191 71.0391 76.1708 71.8222 75.9556 72.0528C75.1276 72.9389 75.1694 74.3326 76.0479 75.1678C76.4704 75.5696 77.0098 75.7684 77.5485 75.7684C78.1298 75.7684 78.7098 75.5367 79.1403 75.0776C80.8836 73.2183 85.3371 69.4662 87.9994 69.7336C89.2339 69.8583 90.0869 70.1237 90.6717 70.3968C89.327 71.4886 88.5962 72.4754 88.5246 72.5744C87.8164 73.5539 88.0293 74.9192 88.996 75.6401C89.9624 76.361 91.3298 76.1541 92.0518 75.185C92.1736 75.0218 95.0933 71.1907 100.287 71.7998C101.566 71.9497 102.937 73.1141 104.146 75.0788C107.101 79.8807 108.153 87.5851 106.49 92.2538C105.757 94.3123 105.278 94.2907 104.126 94.2389C103.993 94.2333 103.856 94.2273 103.715 94.2241C103.559 87.9796 102.549 82.1898 102.488 81.8473C102.276 80.6489 101.138 79.8514 99.9502 80.0647C98.7607 80.2784 97.9686 81.4239 98.1806 82.6228C98.2001 82.7351 100.15 93.923 98.9942 101.35C97.768 109.228 97.4875 114.371 97.4032 115.362C97.3001 116.575 98.1925 117.644 99.3968 117.748C99.46 117.753 99.5233 117.756 99.5861 117.756C100.71 117.756 101.666 116.888 101.764 115.739C101.784 115.498 102.115 109.76 103.318 102.034C103.487 100.949 103.596 99.8042 103.661 98.6342C103.752 98.637 103.848 98.6415 103.932 98.6451C105.508 98.7152 108.786 98.862 110.609 93.7438C112.701 87.8721 111.495 78.6521 107.865 72.7536C105.909 69.5764 103.464 67.7316 100.792 67.4189Z" fill="#FCC537"/>
</svg>
