<svg width="24" height="33" viewBox="0 0 24 33" fill="none" xmlns="http://www.w3.org/2000/svg">
<path fill-rule="evenodd" clip-rule="evenodd" d="M20.468 15.3446C19.7174 14.7915 18.8802 14.3985 17.9548 14.1659C17.0298 13.9332 16.0177 13.819 14.9183 13.8219C13.819 13.8257 12.6731 13.8723 11.4796 13.9615C10.2867 14.0507 9.35132 13.985 8.6721 13.7643C7.99338 13.5431 7.45238 13.0562 7.04812 12.303C6.6498 11.5599 6.52892 10.881 6.68646 10.2655C6.84351 9.65045 7.26908 9.16782 7.96316 8.81952C8.74047 8.42852 9.49251 8.41221 10.2188 8.77059C10.9446 9.12992 11.5916 9.83803 12.1593 10.8968L17.4881 8.21791C16.4517 6.28356 15.0466 4.96425 13.274 4.25949C11.8527 3.69435 10.3342 3.58593 8.72164 3.91887L7.7427 2.09342C7.13779 0.96505 5.68968 0.520801 4.52446 1.10658L4.04737 1.34693C2.88215 1.93223 2.42339 3.33502 3.0283 4.46339L3.94135 6.1665C2.61611 7.20564 1.70404 8.41317 1.22052 9.79581C0.620069 11.5128 0.780585 13.2313 1.70256 14.9517C2.25396 15.9798 2.89107 16.7704 3.61487 17.3241C4.33868 17.8777 5.16355 18.2706 6.08899 18.5033C7.01443 18.736 8.02508 18.842 9.12095 18.8204C10.2173 18.7993 11.3895 18.7331 12.6374 18.6223C13.8859 18.5119 14.8381 18.582 15.4935 18.8338C16.149 19.0862 16.6924 19.6144 17.1234 20.418C17.5109 21.1409 17.6099 21.8116 17.4217 22.43C17.2324 23.048 16.7806 23.5368 16.0652 23.8962C15.0883 24.3874 14.1717 24.4642 13.3157 24.125C12.4606 23.7863 11.7219 23.0369 11.0996 21.8764L5.78629 24.5477C6.91584 26.6547 8.43826 28.0441 10.3531 28.7162C12.0375 29.3073 13.9171 29.2818 15.9909 28.6423L17.2612 31.0123C17.8661 32.1407 19.3147 32.5844 20.4799 31.9987L20.957 31.7588C22.1222 31.173 22.5805 29.7707 21.9756 28.6423L20.6503 26.1697C21.7997 25.1992 22.581 24.0881 22.9932 22.8364C23.5446 21.1635 23.3533 19.457 22.42 17.7165C21.869 16.6884 21.2186 15.8982 20.468 15.3446" fill="#FCC537"/>
</svg>
