<svg width="143" height="107" viewBox="0 0 143 107" fill="none" xmlns="http://www.w3.org/2000/svg">
<path fill-rule="evenodd" clip-rule="evenodd" d="M104.791 94.4443C104.293 95.5903 103.367 96.441 102.184 96.8396C100.999 97.2383 99.7478 97.121 98.6589 96.5095L31.9749 59.0693C30.0144 57.9684 29.2092 55.5037 30.1411 53.4574L50.5792 8.57559C51.1105 7.40826 52.1232 6.53789 53.3573 6.18802C53.7492 6.07646 54.1498 6.02191 54.5483 6.02191C55.4035 6.02191 56.2485 6.27416 56.975 6.76184L120.472 49.3656C122.222 50.5391 122.882 52.7933 122.042 54.726L104.791 94.4443ZM5.609 65.2582L21.3885 14.6284C21.8505 13.146 22.8972 11.959 24.2604 11.3721C24.7598 11.1567 25.271 11.0419 25.777 11.0152L9.12462 58.9905C7.53388 63.5729 9.59938 68.5703 13.8046 70.3586L70.5571 95.2031L7.99716 70.9304C5.88328 70.11 4.85668 67.6716 5.609 65.2582ZM33.7485 7.20816C34.9325 6.74262 36.1662 6.79512 37.2227 7.35541C37.2822 7.38699 37.342 7.41406 37.4027 7.43949L16.803 54.635C14.8626 59.0804 16.5349 64.223 20.6101 66.3423L45.7598 79.4229L15.5907 66.216C13.5043 65.3284 12.5556 62.8584 13.3846 60.4704L30.7741 10.3709C31.2833 8.90419 32.3673 7.75163 33.7485 7.20816ZM45.3596 4.91487C46.1325 4.67821 46.909 4.6536 47.6318 4.82997C47.1755 5.39927 46.7839 6.02641 46.4752 6.70524L26.0371 51.5866C24.1409 55.7494 25.7792 60.7645 29.7675 63.0035L93.7333 98.9175C92.6386 98.5931 91.5284 98.1427 90.5641 97.6407L22.6904 62.3391C20.679 61.2932 19.9246 58.7571 20.9356 56.4401L42.1495 7.83811C42.771 6.41525 43.9407 5.34964 45.3596 4.91487ZM138.745 79.0315C139.125 79.2789 139.551 79.3974 139.974 79.3974C140.71 79.3974 141.433 79.036 141.865 78.372C142.545 77.3281 142.249 75.9307 141.206 75.2506L123.153 63.4904L126.179 56.5242C127.886 52.5923 126.543 48.0059 122.984 45.6183L59.4871 3.01457C57.3191 1.56013 54.637 1.13479 52.1271 1.84725C51.9934 1.88498 51.8614 1.92764 51.7306 1.97153C51.5867 1.80213 51.4244 1.64504 51.2272 1.51994C49.1178 0.182801 46.498 -0.151893 44.0397 0.601168C42.3002 1.13356 40.7668 2.15733 39.5893 3.52892C39.509 3.47109 39.4254 3.41653 39.3356 3.36896C37.129 2.19917 34.4912 2.06833 32.0981 3.00924C30.2597 3.73277 28.7079 5.0133 27.6215 6.65519C25.925 6.32665 24.1321 6.51491 22.477 7.22819C19.9031 8.33645 17.9372 10.5444 17.0828 13.2851L1.30335 63.9153C-0.139793 68.5457 2.08396 73.475 6.36666 75.1366L77.6888 102.809L78.4428 103.105C82.3749 104.653 86.3887 106.1 89.5542 106.1C90.6775 106.1 91.6947 105.918 92.5622 105.493C92.8472 105.353 93.11 105.19 93.351 105.006C93.6729 105.066 93.9951 105.105 94.3174 105.105C94.8663 105.105 95.4149 105.007 95.9614 104.773C96.4345 104.57 96.8564 104.284 97.2323 103.915C98.0326 103.876 98.821 103.746 99.5623 103.476C100.7 103.063 101.624 102.37 102.296 101.448C102.743 101.371 103.187 101.262 103.623 101.116C105.996 100.316 107.93 98.5402 108.928 96.2424L121.33 67.6868L138.745 79.0315Z" fill="#FCC537"/>
</svg>
