<svg width="16" height="31" viewBox="0 0 16 31" fill="none" xmlns="http://www.w3.org/2000/svg">
<path fill-rule="evenodd" clip-rule="evenodd" d="M1.41786 13.3569C1.80074 14.027 2.31459 14.6001 2.95942 15.0768C3.60424 15.5535 4.35661 15.9551 5.21749 16.2825C6.0779 16.6099 7.01191 16.9255 8.0205 17.2287C9.0286 17.5328 9.74704 17.8879 10.1748 18.2951C10.6036 18.7029 10.8546 19.2955 10.9277 20.074C10.9937 20.773 10.8522 21.3405 10.5037 21.7753C10.1543 22.2106 9.64283 22.4592 8.96981 22.5219C8.04774 22.6079 7.30875 22.3812 6.75331 21.8418C6.19788 21.3024 5.8671 20.4708 5.76098 19.3478L0.752005 19.8145C0.944639 21.8537 1.67646 23.4429 2.94842 24.5816C4.06742 25.5839 5.53967 26.1537 7.36372 26.2934L7.5879 28.6734C7.68637 29.718 8.6266 30.4926 9.67725 30.3947L10.3015 30.3368C11.3517 30.2384 12.1308 29.3041 12.0324 28.2595L11.7986 25.7797C13.0099 25.3648 13.9807 24.7218 14.7106 23.8507C15.6853 22.6863 16.093 21.2621 15.9343 19.5773C15.8401 18.5822 15.5911 17.7458 15.1881 17.0676C14.7842 16.3899 14.2594 15.8125 13.615 15.3363C12.9702 14.8596 12.2197 14.45 11.3627 14.1073C10.5056 13.7647 9.59742 13.442 8.63951 13.1388C7.68159 12.8356 6.97367 12.4887 6.51718 12.099C6.06069 11.7093 5.79779 11.1499 5.72943 10.4204C5.66108 9.70185 5.78918 9.12063 6.11184 8.67771C6.43496 8.23574 6.92444 7.98386 7.57787 7.92255C8.3116 7.85459 8.90193 8.07796 9.35077 8.59264C9.79866 9.10733 10.0716 9.87721 10.1677 10.9014L15.192 10.4332C15.0156 8.56175 14.3521 7.06522 13.2016 5.94508C12.2795 5.04688 11.1328 4.48372 9.76807 4.24325L9.59312 2.38886C9.49465 1.34429 8.5549 0.570121 7.50425 0.66802L6.87998 0.726C5.82934 0.823899 5.05019 1.7587 5.14866 2.8028L5.31262 4.53885C3.94123 4.95278 2.83657 5.63237 2.00867 6.5857C0.980968 7.77 0.54503 9.19429 0.702293 10.8595C0.795981 11.8547 1.0345 12.6868 1.41786 13.3569" fill="#FCC537"/>
</svg>
