<svg width="23" height="32" viewBox="0 0 23 32" fill="none" xmlns="http://www.w3.org/2000/svg">
<path fill-rule="evenodd" clip-rule="evenodd" d="M19.8313 14.5197C19.0807 13.9665 18.2435 13.5736 17.318 13.3409C16.3931 13.1082 15.3809 12.994 14.2816 12.9969C13.1823 13.0008 12.0364 13.0473 10.8429 13.1365C9.64995 13.2258 8.7146 13.16 8.03538 12.9394C7.35666 12.7182 6.81566 12.2312 6.4114 11.478C6.01308 10.7349 5.8922 10.0561 6.04975 9.44054C6.20679 8.8255 6.63236 8.34287 7.32644 7.99457C8.10375 7.60357 8.85579 7.58726 9.58208 7.94564C10.3079 8.30497 10.9549 9.01308 11.5226 10.0719L16.8513 7.39296C15.8149 5.45861 14.4099 4.1393 12.6373 3.43454C11.216 2.8694 9.69751 2.76097 8.08492 3.09392L7.10598 1.26847C6.50107 0.140098 5.05296 -0.30415 3.88774 0.281625L3.41065 0.52198C2.24543 1.10728 1.78667 2.51006 2.39158 3.63844L3.30463 5.34155C1.97939 6.38069 1.06733 7.58822 0.583797 8.97086C-0.0166496 10.6879 0.143866 12.4064 1.06584 14.1267C1.61724 15.1548 2.25435 15.9455 2.97815 16.4991C3.70196 17.0527 4.52683 17.4457 5.45227 17.6783C6.37771 17.911 7.38837 18.017 8.48423 17.9954C9.58059 17.9743 10.7528 17.9081 12.0007 17.7973C13.2492 17.687 14.2014 17.757 14.8568 18.0089C15.5122 18.2612 16.0557 18.7894 16.4867 19.593C16.8741 20.316 16.9732 20.9867 16.785 21.6051C16.5957 22.223 16.1439 22.7119 15.4285 23.0712C14.4515 23.5625 13.535 23.6392 12.6789 23.3C11.8238 22.9613 11.0852 22.212 10.4629 21.0515L5.14957 23.7227C6.27912 25.8298 7.80154 27.2191 9.71634 27.8913C11.4008 28.4823 13.2804 28.4569 15.3542 27.8174L16.6244 30.1873C17.2294 31.3157 18.678 31.7595 19.8432 31.1737L20.3203 30.9338C21.4855 30.3481 21.9438 28.9457 21.3388 27.8174L20.0136 25.3447C21.163 24.3742 21.9442 23.2631 22.3564 22.0114C22.9078 20.3385 22.7166 18.6321 21.7832 16.8915C21.2323 15.8634 20.5818 15.0733 19.8313 14.5197" fill="#FCC537"/>
</svg>
