<svg width="13" height="23" viewBox="0 0 13 23" fill="none" xmlns="http://www.w3.org/2000/svg">
<path fill-rule="evenodd" clip-rule="evenodd" d="M1.55068 10.0326C1.83424 10.5289 2.2148 10.9534 2.69237 11.3064C3.16993 11.6594 3.72715 11.9568 4.36473 12.1993C5.00195 12.4418 5.69369 12.6755 6.44066 12.9001C7.18727 13.1254 7.71935 13.3883 8.0362 13.6899C8.35374 13.9919 8.5396 14.4308 8.59377 15.0073C8.64262 15.5251 8.53783 15.9453 8.27976 16.2674C8.02097 16.5898 7.64218 16.7739 7.14373 16.8203C6.46084 16.884 5.91353 16.7161 5.50217 16.3167C5.09081 15.9172 4.84583 15.3012 4.76724 14.4695L1.05754 14.8152C1.2002 16.3255 1.7422 17.5024 2.68423 18.3457C3.51297 19.088 4.60333 19.5101 5.95424 19.6135L6.12028 21.3762C6.1932 22.1498 6.88955 22.7235 7.66767 22.651L8.13001 22.6081C8.90778 22.5352 9.48482 21.8432 9.41189 21.0696L9.23878 19.2331C10.1358 18.9258 10.8548 18.4496 11.3954 17.8044C12.1173 16.9421 12.4192 15.8873 12.3017 14.6395C12.232 13.9025 12.0475 13.283 11.7491 12.7808C11.4499 12.2789 11.0612 11.8512 10.584 11.4986C10.1065 11.1455 9.55066 10.8422 8.91592 10.5884C8.28117 10.3346 7.60855 10.0956 6.89911 9.87107C6.18966 9.64652 5.66537 9.38958 5.32729 9.10097C4.9892 8.81235 4.7945 8.39809 4.74387 7.85782C4.69325 7.32564 4.78813 6.89519 5.02708 6.56715C5.2664 6.23982 5.62891 6.05328 6.11284 6.00788C6.65625 5.95755 7.09346 6.12297 7.42588 6.50415C7.75759 6.88533 7.95973 7.45552 8.03089 8.21401L11.7519 7.86732C11.6213 6.48127 11.1299 5.37293 10.2778 4.54334C9.59491 3.87812 8.74564 3.46104 7.73493 3.28294L7.60536 1.90957C7.53243 1.13594 6.83645 0.562587 6.05832 0.635092L5.59598 0.678032C4.81786 0.750537 4.24082 1.44286 4.31375 2.21613L4.43517 3.50187C3.41951 3.80843 2.60139 4.31174 1.98824 5.01779C1.22711 5.89489 0.904249 6.94974 1.02072 8.18304C1.09011 8.92006 1.26676 9.53635 1.55068 10.0326" fill="#FCC537"/>
</svg>
