<svg width="19" height="21" viewBox="0 0 19 21" fill="none" xmlns="http://www.w3.org/2000/svg">
<path fill-rule="evenodd" clip-rule="evenodd" d="M13.894 11.7167C13.382 13.2331 12.4288 14.4804 11.209 15.2285C10.1218 15.8959 8.95454 16.071 7.92179 15.722C6.88863 15.3729 6.0662 14.5251 5.60661 13.3344C5.09044 11.9997 5.0888 10.4296 5.60087 8.91323C6.44995 6.39975 8.48716 4.72874 10.4756 4.72874C10.8458 4.72874 11.2152 4.78657 11.5739 4.90798C12.6067 5.25703 13.4287 6.10525 13.8887 7.29554C14.4045 8.63022 14.4065 10.2003 13.894 11.7167M13.0174 0.633704C8.37518 -0.935174 3.13148 2.1308 1.32837 7.46909C0.478883 9.98299 0.504712 12.6437 1.39971 14.9611C2.35087 17.423 4.15439 19.2109 6.47778 19.9963C7.30594 20.2765 8.1583 20.4151 9.01476 20.4151C10.5612 20.4151 12.1204 19.9627 13.5676 19.0743C15.684 17.7753 17.3178 15.6752 18.1668 13.1609C19.0159 10.647 18.9905 7.98631 18.0955 5.66929C17.1448 3.20748 15.3408 1.41917 13.0174 0.633704" fill="#FCC537"/>
</svg>
