<svg width="133" height="133" viewBox="0 0 133 133" fill="none" xmlns="http://www.w3.org/2000/svg">
<circle cx="66.483" cy="66.4855" r="66.4077" fill="#2D2B2C"/>
<mask id="mask0_1_344" style="mask-type:alpha" maskUnits="userSpaceOnUse" x="0" y="0" width="133" height="133">
<circle cx="66.483" cy="66.4855" r="66.4077" fill="white"/>
</mask>
<g mask="url(#mask0_1_344)">
<path fill-rule="evenodd" clip-rule="evenodd" d="M6.2623 47.9853C5.67966 47.3803 0.204119 41.6903 -3.43222 38.0185C-2.84003 37.2199 -1.95675 36.3399 -1.07778 36.2519C2.6575 35.8789 4.76102 36.4222 5.74753 38.0156C6.37414 39.0285 7.75259 40.6937 9.41638 42.5712C9.58845 43.3684 10.1281 44.0738 10.933 44.4272C11.0118 44.4617 11.0912 44.4913 11.171 44.5172C12.8735 46.3775 14.6897 48.2937 16.2398 49.9058C14.5072 49.6897 12.9724 49.4807 11.8105 49.2995C10.3833 49.0761 8.42126 48.5998 6.2623 47.9853M-17.6702 42.0639C-17.9455 42.1738 -18.2117 42.2958 -18.4727 42.4235C-18.9511 40.8315 -19.137 39.0357 -18.0334 38.2175C-14.7111 35.756 -10.906 38.0888 -9.72068 39.1959C-8.84027 40.018 -6.82852 42.0524 -4.68581 44.2451C-6.20573 43.6248 -7.48668 43.0371 -8.34271 42.543C-11.0384 40.9869 -14.5256 40.8075 -17.6702 42.0639M20.8187 40.4962C23.0603 41.4579 23.9159 42.2891 26.2001 44.5114C27.1804 45.4645 28.4001 46.6515 30.031 48.1278C31.5389 49.4926 32.8117 50.6256 33.8561 51.5328C31.5504 51.4591 27.9556 51.1674 24.228 50.7968C24.1037 50.5299 23.9422 50.276 23.7233 50.0546C21.3836 47.6868 18.1913 44.3718 15.4741 41.4244C16.484 40.3202 18.1889 39.3695 20.8187 40.4962M94.2767 44.9773C90.616 43.6956 88.7328 41.7683 86.126 39.1003C82.4098 35.2984 77.7865 30.5668 66.291 25.7759C61.5248 23.7893 58.8071 23.191 56.4082 22.6631C53.3315 21.9859 50.9015 21.4508 44.428 17.5561C38.6036 14.0511 34.3492 14.6623 30.2043 19.5995C28.8335 21.2322 28.27 23.3675 28.5749 25.7749C29.1819 30.573 33.0692 35.635 36.5956 38.1553C39.2383 40.0443 41.8059 43.3312 43.2102 45.29C41.8805 46.7596 40.4934 48.1374 39.2727 49.223C38.5524 48.6486 36.9665 47.3125 33.5587 44.2269C31.9976 42.8137 30.8147 41.6636 29.865 40.7392C27.4713 38.4116 26.0269 37.0066 22.8896 35.6613C18.1778 33.6408 14.4009 35.152 11.981 37.5131C11.1498 36.536 10.5261 35.7446 10.2178 35.2467C7.06516 30.1512 0.541445 30.8035 -1.60079 31.0177C-4.21142 31.2789 -6.10702 32.956 -7.28711 34.4098C-10.5965 32.0297 -16.2422 30.3434 -21.1629 33.9904C-25.3326 37.0807 -24.3437 42.5259 -22.7 46.179C-23.0847 46.8117 -23.3892 47.486 -23.599 48.1943C-25.2437 53.7475 -23.1861 59.0908 -18.0953 62.4862C-14.9823 64.5627 -10.4149 66.3857 -3.62209 68.4966C-3.51551 68.6855 -3.39315 68.8677 -3.2359 69.0317C-2.73021 69.5582 9.30012 81.9731 22.6879 85.1127C27.2534 86.1839 42.8087 86.8993 50.7319 86.1217C58.3033 85.379 75.8885 86.6449 82.1613 87.5861C85.1815 88.0394 94.2184 90.0547 102.958 92.0035C112.284 94.0838 121.929 96.2344 126.285 96.9608C126.432 96.9852 126.577 96.9971 126.721 96.9971C127.983 96.9971 129.096 96.0852 129.31 94.7987C129.549 93.3659 128.582 92.0106 127.15 91.772C122.934 91.0685 113.36 88.9337 104.102 86.8692C94.867 84.8095 86.1446 82.865 82.9413 82.3839C76.278 81.3839 58.2995 80.0936 50.2195 80.8861C42.3446 81.6584 27.6357 80.8698 23.8876 79.9908C18.0669 78.626 12.3686 75.1105 8.05885 71.8705C8.47324 71.9843 8.91752 72.077 9.31685 72.2158C20.8141 76.2105 23.2313 77.4055 23.2657 77.4318H24.7899C26.8912 77.4318 28.0081 74.9512 26.6153 73.3779V73.3779C26.2291 73.0503 25.7626 71.2655 10.7049 67.1422C-2.87456 63.4235 -11.0214 60.8827 -15.1788 58.109C-18.2956 56.0306 -19.5273 52.9613 -18.558 49.6888C-18.4275 49.2483 -18.1871 48.826 -17.8611 48.4396C-17.744 48.3363 -17.6412 48.2216 -17.5466 48.1015C-17.06 47.6333 -16.4377 47.2355 -15.7212 46.9495C-14.0842 46.2953 -12.2637 46.3526 -10.9698 47.0996C-6.42487 49.7232 5.81242 53.6858 10.9988 54.4969C14.7565 55.0842 32.7093 57.2831 36.7663 56.7034C40.644 56.1492 46.2925 49.8562 48.5409 47.1766L49.7774 45.7032L48.7488 44.0777C48.5739 43.8018 44.4156 37.2792 39.6512 33.8747C37.1386 32.0789 34.1834 28.2187 33.7909 25.114C33.6141 23.7166 34.0772 23.1647 34.2302 22.983C36.8384 19.8755 38.3153 20.0166 41.7189 22.0639C48.9304 26.4033 51.8723 27.0508 55.2787 27.8007C57.4621 28.2813 59.937 28.826 64.2687 30.6318C74.7758 35.011 78.8084 39.1376 82.3668 42.7784C85.118 45.5942 87.7176 48.2541 92.5393 49.9427C103.396 53.7446 123.348 57.3816 130.783 58.4566C132.219 58.6647 133.553 57.668 133.761 56.23C133.968 54.7924 132.972 53.4582 131.535 53.2506C124.258 52.198 104.773 48.6534 94.2767 44.9773Z" fill="#FCC537"/>
</g>
</svg>
