<svg width="113" height="192" viewBox="0 0 113 192" fill="none" xmlns="http://www.w3.org/2000/svg">
<path fill-rule="evenodd" clip-rule="evenodd" d="M105.917 80.084C104.515 77.9858 102.45 75.7252 99.7125 74.8271C98.5917 74.4592 94.9769 73.0807 95.515 70.778C95.6174 70.3398 96.4684 69.5376 97.9692 69.2081C98.2384 69.1489 98.6902 69.0753 99.2651 69.0753C100.807 69.0753 103.233 69.606 105.392 72.3726C107.465 75.0277 106.918 77.9208 105.917 80.084M100.487 88.7811C99.6436 91.2365 97.8435 93.2136 95.4165 94.3482L72.1749 105.217C67.1817 107.552 61.1468 105.594 58.7222 100.854L22.4787 29.9941C21.3574 27.8024 21.1813 25.3087 21.9833 22.972C22.8261 20.517 24.6267 18.5395 27.0532 17.4048L50.2953 6.53666C55.288 4.20191 61.3229 6.1586 63.748 10.8993L77.5597 37.9033C76.3753 38.9042 75.5519 40.1823 75.1938 41.6175C74.6718 43.7104 74.9891 45.8158 76.0861 47.5467C76.942 48.8965 78.6863 50.6506 82.1385 51.3408C83.2021 51.5536 84.0036 51.8328 84.599 52.1037C84.3214 52.5482 84.072 53.0178 83.8673 53.5243C82.5679 56.7369 82.2962 61.1524 88.3787 63.9447C90.1448 64.7555 91.6548 65.4099 92.7746 65.8868C91.5262 66.8838 90.6465 68.1576 90.3175 69.5656C89.2744 74.0286 92.236 77.9856 98.0468 79.8919C98.8731 80.1633 99.6514 80.8007 100.345 81.5786L99.9915 81.7589C101.113 83.9512 101.288 86.4449 100.487 88.7811M38.7928 75.5083C38.7675 75.5757 38.735 75.6523 38.6962 75.7347C38.4769 74.79 38.2464 73.508 38.0087 72.0753L39.3221 74.6427C39.098 74.8879 38.9155 75.1778 38.7928 75.5083M81.1811 24.9073C83.5086 21.5688 84.5513 22.0254 85.4712 22.4296C87.2412 23.2061 86.7182 25.0106 86.5159 25.5447C85.2684 28.8381 83.1578 32.9294 82.0612 34.985L78.8764 28.7582C79.3538 27.8247 80.1389 26.4021 81.1811 24.9073M99.3504 49.6091C95.628 47.8836 92.002 47.5094 89.0321 48.567C87.9268 47.7096 86.0894 46.6937 83.1864 46.113C81.9196 45.8595 81.0234 45.369 80.5955 44.6938C80.1991 44.0691 80.2558 43.3769 80.3732 42.9063C80.4436 42.6237 80.6867 42.0809 81.5237 41.619C82.7333 40.9516 85.757 40.1576 92.4208 42.3441C97.1612 43.899 98.8274 47.0267 99.3504 49.6091M98.6138 63.749C98.1451 62.9216 97.4498 62.0821 96.4357 61.6478L95.8054 61.3803C94.7055 60.915 92.8641 60.1361 90.608 59.1003C88.5245 58.144 88.0058 57.5256 88.8161 55.5214C89.2004 54.5714 89.8486 53.9418 90.7972 53.5967C92.5944 52.9423 95.1887 53.3975 97.9141 54.8438C102.385 57.2168 104.039 60.3818 102.864 64.2661C101.489 63.8362 100.058 63.6573 98.6138 63.749M107.582 66.9508C109.579 61.8097 108.576 57.0064 104.84 53.316C105.302 48.4677 103.594 40.3981 94.086 37.2786C91.7638 36.5167 89.6285 36.0165 87.678 35.7674C88.8706 33.4544 90.446 30.2337 91.5076 27.4317C93.0467 23.369 91.4111 19.2123 87.6178 17.5479C81.6377 14.9238 77.9972 20.1454 76.8012 21.8607C76.5086 22.2799 76.2359 22.6929 75.9793 23.0947L68.5009 8.47356C64.7828 1.20468 55.6013 -1.83141 48.0332 1.70779L24.7906 12.5764C21.0415 14.3296 18.2516 17.4073 16.9347 21.2432C15.6596 24.9593 15.9405 28.9289 17.7261 32.4201L28.7101 53.8947C28.0327 53.586 27.3025 53.3141 26.5097 53.0901C22.9464 52.0839 19.8464 52.6079 18.006 54.5277C15.8828 56.7427 15.6538 60.25 17.3059 65.2505C19.2001 70.9834 18.7877 72.9745 18.0395 76.5893C17.5048 79.1717 16.8396 82.3852 16.7639 87.7226C16.6766 93.8714 17.6116 98.7149 18.9308 102.475C19.5461 106.025 20.5058 114.654 16.9449 121.468C14.0638 126.98 4.99746 147.666 1.09208 156.657C0.505468 158.009 1.12895 159.576 2.48218 160.161C3.83395 160.746 5.4026 160.129 5.98872 158.779C9.85529 149.881 18.9134 129.222 21.6761 123.935C23.6596 120.14 24.5019 115.987 24.7654 112.198C25.7071 113.139 26.3748 113.596 26.4762 113.663C26.9323 113.966 27.449 114.111 27.9609 114.111C28.826 114.111 29.6756 113.695 30.1875 112.924C31.0026 111.698 30.6805 110.052 29.4519 109.237C29.2554 109.1 26.2438 106.921 24.1356 101.245C23.9551 100.257 23.8047 99.6421 23.7765 99.5311L23.5771 99.581C22.6615 96.5425 22.0313 92.6718 22.1006 87.7982C22.1695 82.9683 22.7523 80.1527 23.2661 77.6687C24.0759 73.7568 24.7159 70.6664 22.3743 63.5793C21.2278 60.1089 21.5373 58.5526 21.861 58.2147C22.1938 57.8682 23.4806 57.7751 25.0584 58.2206C26.7285 58.6922 30.6397 59.7963 31.8711 67.4854C32.006 68.3307 32.1317 69.1261 32.2496 69.873C32.8522 73.687 33.2506 76.2064 33.7702 77.9644C34.5858 80.7247 36.0759 82.1332 38.1986 82.1506C39.9541 82.1753 41.2486 81.2404 42.1545 80.1799L53.9696 103.28C56.6343 108.489 62.103 111.524 67.7745 111.524C70.0171 111.524 72.2932 111.049 74.4378 110.046L81.9084 106.552C77.7124 111.848 71.9638 118.379 66.8056 121.728C62.299 124.655 61.0628 124.811 57.7348 124.207C56.2069 123.929 54.742 125.015 54.5984 126.597C54.4713 128 55.5353 129.232 56.9235 129.479C57.8944 129.65 58.7707 129.76 59.597 129.801L30.4514 189.025L35.2413 191.376C35.2413 191.376 39.7817 182.15 42.0519 177.537C50.1445 161.093 66.3296 128.205 66.3296 128.205C67.3466 127.681 68.4524 127.018 69.7148 126.199C79.4169 119.897 90.2912 104.414 92.0957 101.789L97.6799 99.1773C101.429 97.4241 104.219 94.3464 105.536 90.5105C105.736 89.927 105.893 89.3371 106.017 88.7438L107.576 87.1037C110.63 83.8902 114.984 75.9907 109.602 69.0941C108.978 68.2953 108.301 67.5799 107.582 66.9508Z" fill="#FCC537"/>
</svg>
