<svg width="142" height="106" viewBox="0 0 142 106" fill="none" xmlns="http://www.w3.org/2000/svg">
<path fill-rule="evenodd" clip-rule="evenodd" d="M103.927 94.2377C103.429 95.3837 102.503 96.2344 101.32 96.6331C100.135 97.0318 98.8836 96.9145 97.7946 96.3029L31.1107 58.8627C29.1501 57.7618 28.3449 55.2972 29.2768 53.2508L49.7149 8.36905C50.2463 7.20172 51.2589 6.33135 52.493 5.98148C52.8849 5.86992 53.2855 5.81536 53.684 5.81536C54.5392 5.81536 55.3842 6.06762 56.1107 6.5553L119.608 49.1591C121.357 50.3325 122.017 52.5868 121.178 54.5195L103.927 94.2377ZM4.74475 65.0517L20.5242 14.4218C20.9863 12.9395 22.033 11.7525 23.3962 11.1655C23.8955 10.9502 24.4068 10.8354 24.9127 10.8087L8.26036 58.784C6.66962 63.3663 8.73513 68.3637 12.9403 70.1521L69.6929 94.9965L7.13291 70.7238C5.01903 69.9035 3.99243 67.4651 4.74475 65.0517V65.0517ZM32.8842 7.00162C34.0683 6.53608 35.3019 6.58858 36.3585 7.14887C36.4179 7.18045 36.4778 7.20752 36.5384 7.23295L15.9388 54.4285C13.9983 58.8738 15.6706 64.0165 19.7459 66.1358L44.8956 79.2163L14.7264 66.0095C12.64 65.1219 11.6913 62.6519 12.5203 60.2639L29.9098 10.1644C30.419 8.69765 31.503 7.54508 32.8842 7.00162V7.00162ZM44.4954 4.70833C45.2682 4.47166 46.0447 4.44705 46.7675 4.62342C46.3112 5.19273 45.9197 5.81987 45.611 6.49869L25.1728 51.3801C23.2766 55.5428 24.9149 60.5579 28.9033 62.797L92.869 98.711C91.7744 98.3865 90.6642 97.9362 89.6999 97.4341L21.8261 62.1325C19.8147 61.0866 19.0604 58.5506 20.0714 56.2336L41.2852 7.63157C41.9067 6.20871 43.0764 5.1431 44.4954 4.70833V4.70833ZM137.881 78.825C138.261 79.0723 138.687 79.1908 139.109 79.1908C139.846 79.1908 140.569 78.8295 141.001 78.1654C141.68 77.1216 141.385 75.7241 140.341 75.0441L122.289 63.2839L125.315 56.3176C127.022 52.3858 125.679 47.7993 122.12 45.4118L58.6229 2.80803C56.4549 1.35359 53.7727 0.928249 51.2628 1.6407C51.1292 1.67844 50.9972 1.7211 50.8664 1.76498C50.7225 1.59559 50.5601 1.43849 50.3629 1.31339C48.2535 -0.0237422 45.6337 -0.358436 43.1755 0.394625C41.4359 0.927018 39.9026 1.95079 38.7251 3.32238C38.6447 3.26454 38.5611 3.20999 38.4713 3.16241C36.2648 1.99262 33.6269 1.86178 31.2339 2.8027C29.3955 3.52623 27.8437 4.80676 26.7572 6.44865C25.0607 6.12011 23.2679 6.30837 21.6127 7.02165C19.0389 8.12991 17.073 10.3378 16.2186 13.0785L0.439095 63.7088C-1.00405 68.3391 1.21971 73.2685 5.5024 74.9301L76.8245 102.603L77.5785 102.898C81.5107 104.447 85.5244 105.893 88.6899 105.893C89.8133 105.893 90.8304 105.711 91.698 105.286C91.9829 105.147 92.2457 104.984 92.4868 104.8C92.8086 104.86 93.1309 104.898 93.4531 104.898C94.0021 104.898 94.5506 104.8 95.0971 104.566C95.5703 104.363 95.9921 104.078 96.3681 103.708C97.1684 103.67 97.9568 103.539 98.698 103.27C99.8361 102.857 100.759 102.163 101.431 101.241C101.879 101.165 102.323 101.056 102.759 100.909C105.132 100.11 107.065 98.3336 108.063 96.0359L120.466 67.4803L137.881 78.825Z" fill="#FCC537"/>
</svg>
