<svg width="133" height="134" viewBox="0 0 133 134" fill="none" xmlns="http://www.w3.org/2000/svg">
<circle cx="66.4077" cy="66.9685" r="66.4077" fill="#2D2B2C"/>
<mask id="mask0_1_381" style="mask-type:alpha" maskUnits="userSpaceOnUse" x="0" y="0" width="133" height="134">
<circle cx="66.4077" cy="66.9685" r="66.4077" fill="white"/>
</mask>
<g mask="url(#mask0_1_381)">
<path fill-rule="evenodd" clip-rule="evenodd" d="M115.499 21.8427C114.093 19.74 112.023 17.4745 109.278 16.5744C108.154 16.2057 104.529 14.8243 105.069 12.5166C105.172 12.0774 106.025 11.2735 107.53 10.9432C107.8 10.884 108.253 10.8102 108.829 10.8102C110.375 10.8102 112.808 11.342 114.973 14.1146C117.051 16.7755 116.502 19.6749 115.499 21.8427M110.054 30.559C109.209 33.0197 107.404 35.001 104.97 36.1382L81.6661 47.0304C76.6595 49.3702 70.6083 47.4088 68.1773 42.6582L31.8363 -28.3554C30.712 -30.5519 30.5354 -33.051 31.3395 -35.3928C32.1846 -37.853 33.99 -39.8348 36.423 -40.972L59.7276 -51.8637C64.7338 -54.2035 70.7849 -52.2426 73.2165 -47.4915L87.0654 -20.4291C85.8778 -19.426 85.0522 -18.1451 84.6932 -16.7069C84.1697 -14.6094 84.4878 -12.4994 85.5878 -10.7648C86.446 -9.41203 88.195 -7.65414 91.6565 -6.96245C92.7229 -6.74921 93.5266 -6.46942 94.1236 -6.19789C93.8453 -5.75247 93.5952 -5.28179 93.3899 -4.77419C92.0871 -1.55471 91.8146 2.87037 97.9135 5.66871C99.6843 6.48135 101.198 7.1371 102.321 7.61507C101.069 8.61424 100.187 9.89076 99.8575 11.3018C98.8115 15.7745 101.781 19.7401 107.608 21.6505C108.436 21.9225 109.216 22.5613 109.912 23.3409L109.557 23.5216C110.682 25.7186 110.858 28.2177 110.054 30.559M48.194 17.2575C48.1687 17.325 48.1361 17.4017 48.0972 17.4843C47.8773 16.5376 47.6462 15.2528 47.4078 13.817L48.7248 16.3899C48.5 16.6357 48.3171 16.9262 48.194 17.2575M90.696 -33.4533C93.0297 -36.799 94.0752 -36.3415 94.9976 -35.9363C96.7724 -35.1582 96.248 -33.3498 96.0451 -32.8145C94.7943 -29.5139 92.678 -25.4138 91.5785 -23.3538L88.3851 -29.5941C88.8638 -30.5296 89.6509 -31.9552 90.696 -33.4533M108.914 -8.69808C105.182 -10.4273 101.546 -10.8023 98.5683 -9.74242C97.46 -10.6017 95.6176 -11.6198 92.7069 -12.2017C91.4366 -12.4558 90.538 -12.9473 90.1089 -13.624C89.7114 -14.2501 89.7684 -14.9437 89.8861 -15.4154C89.9566 -15.6986 90.2004 -16.2426 91.0396 -16.7055C92.2525 -17.3744 95.2844 -18.17 101.966 -15.9788C106.719 -14.4206 108.39 -11.2861 108.914 -8.69808M108.176 5.47253C107.706 4.64337 107.009 3.80207 105.992 3.36685L105.36 3.09872C104.257 2.63241 102.411 1.85183 100.148 0.813805C98.0592 -0.144558 97.5392 -0.764361 98.3516 -2.77289C98.7369 -3.72494 99.3869 -4.35592 100.338 -4.70176C102.14 -5.35751 104.741 -4.9014 107.474 -3.45196C111.957 -1.07378 113.615 2.0981 112.437 5.99081C111.059 5.55996 109.623 5.38072 108.176 5.47253M119.193 10.8292C118.568 10.0287 117.889 9.31178 117.168 8.6813C119.171 3.52906 118.165 -1.28461 114.419 -4.98303C114.882 -9.84188 113.169 -17.929 103.636 -21.0552C101.307 -21.8187 99.1663 -22.32 97.2106 -22.5697C98.4064 -24.8877 99.9861 -28.1154 101.051 -30.9234C102.594 -34.9949 100.954 -39.1606 97.1502 -40.8286C91.1541 -43.4584 87.5038 -38.2256 86.3046 -36.5065C86.0112 -36.0864 85.7378 -35.6725 85.4804 -35.2698L77.9819 -49.9226C74.2538 -57.2073 65.0477 -60.2499 57.4592 -56.7031L34.1541 -45.8109C30.3949 -44.0539 27.5975 -40.9695 26.2771 -37.1254C24.9986 -33.4012 25.2802 -29.423 27.0706 -25.9242L38.0841 -4.40306C37.4049 -4.71248 36.6727 -4.98498 35.8778 -5.20939C32.3049 -6.21778 29.1966 -5.6927 27.3513 -3.76869C25.2223 -1.54886 24.9927 1.96595 26.6493 6.97732C28.5486 12.7226 28.1351 14.7181 27.3849 18.3407C26.8487 20.9287 26.1817 24.1492 26.1058 29.4981C26.0183 35.6602 26.9558 40.5142 28.2786 44.2821C28.8955 47.8401 29.8578 56.4882 26.2873 63.3163C23.3984 68.841 10.0969 99.3659 6.181 108.376C5.59282 109.731 6.21798 111.301 7.57484 111.888V111.888C8.93025 112.474 10.5031 111.856 11.0908 110.503C14.9678 101.586 28.2611 71.0871 31.0312 65.7892C33.0201 61.9853 33.8646 57.824 34.1288 54.027C35.0731 54.9693 35.7425 55.4278 35.8442 55.4949C36.3015 55.798 36.8197 55.9432 37.3329 55.9432C38.2004 55.9432 39.0522 55.5269 39.5655 54.7541C40.3828 53.5252 40.0598 51.8756 38.828 51.0596C38.6309 50.9221 35.6112 48.7378 33.4973 43.0498C33.3163 42.0598 33.1655 41.4434 33.1373 41.3322L32.9373 41.3822C32.0193 38.3371 31.3873 34.458 31.4569 29.5739C31.526 24.7335 32.1103 21.9119 32.6255 19.4224C33.4375 15.502 34.0792 12.405 31.7313 5.30249C30.5817 1.8246 30.8921 0.264893 31.2166 -0.0736667C31.5503 -0.42097 32.8405 -0.514234 34.4227 -0.0678402C36.0972 0.404784 40.0189 1.5113 41.2537 9.21706C41.3889 10.0642 41.5149 10.8613 41.6331 11.6098C42.2374 15.4321 42.6368 17.957 43.1579 19.7187C43.9757 22.485 45.4697 23.8966 47.5982 23.9141C49.3584 23.9388 50.6564 23.0018 51.5647 21.9391L63.4116 45.0889C66.0835 50.3096 71.5669 53.3513 77.2536 53.3508C79.5023 53.3508 81.7845 52.8748 83.9348 51.8698L91.4255 48.3686C87.2182 53.6758 81.4541 60.2206 76.2821 63.5776C71.7634 66.511 70.5238 66.6674 67.1869 66.0617C65.6548 65.7828 64.1861 66.8709 64.0421 68.4568C63.9146 69.8626 64.9815 71.0978 66.3734 71.3446C67.3469 71.5165 68.2255 71.6263 69.0541 71.6676L39.8302 131.02L44.6329 133.376L75.8048 70.0685C76.8245 69.5434 77.9333 68.8789 79.1992 68.0576C88.9273 61.7425 99.8309 46.2255 101.64 43.5948L107.239 40.9776C110.999 39.2207 113.796 36.1362 115.116 32.2921C115.317 31.7073 115.475 31.1161 115.599 30.5216L117.162 28.8778C120.225 25.6574 124.59 17.7408 119.193 10.8292" fill="#FCC537"/>
<path fill-rule="evenodd" clip-rule="evenodd" d="M78.938 -6.18481C78.1974 -6.73959 77.3713 -7.13365 76.4582 -7.36702C75.5456 -7.60038 74.547 -7.71489 73.4623 -7.712C72.3776 -7.70815 71.247 -7.66148 70.0695 -7.57199C68.8924 -7.48249 67.9695 -7.54841 67.2994 -7.76974C66.6297 -7.99156 66.0959 -8.47993 65.697 -9.23534C65.304 -9.98065 65.1848 -10.6615 65.3402 -11.2788C65.4952 -11.8957 65.915 -12.3797 66.5999 -12.729C67.3668 -13.1212 68.1088 -13.1375 68.8254 -12.7781C69.5415 -12.4177 70.1799 -11.7075 70.7401 -10.6456L75.9978 -13.3324C74.9752 -15.2724 73.5889 -16.5956 71.8399 -17.3024C70.4375 -17.8692 68.9393 -17.978 67.3482 -17.644L66.3823 -19.4748C65.7855 -20.6065 64.3567 -21.0521 63.207 -20.4646L62.7363 -20.2235C61.5866 -19.6365 61.134 -18.2296 61.7308 -17.0979L62.6317 -15.3898C61.3241 -14.3476 60.4242 -13.1366 59.9471 -11.7499C59.3547 -10.0278 59.5131 -8.30431 60.4227 -6.57888C60.9668 -5.54776 61.5954 -4.75482 62.3096 -4.19956C63.0237 -3.64431 63.8376 -3.25024 64.7507 -3.01688C65.6638 -2.78352 66.661 -2.67719 67.7422 -2.69884C68.824 -2.72001 69.9805 -2.78641 71.2118 -2.89756C72.4436 -3.00822 73.3831 -2.93797 74.0298 -2.68536C74.6765 -2.43228 75.2127 -1.90252 75.638 -1.09659C76.0203 -0.371485 76.118 0.301171 75.9323 0.921381C75.7456 1.54111 75.2998 2.03141 74.5939 2.39179C73.63 2.8845 72.7257 2.96148 71.881 2.62131C71.0373 2.28161 70.3085 1.53004 69.6945 0.366126L64.452 3.0452C65.5665 5.15844 67.0686 6.55187 68.9579 7.22597C70.6199 7.81876 72.4744 7.79325 74.5206 7.15187L75.7739 9.52878C76.3707 10.6605 77.8 11.1055 78.9497 10.518L79.4204 10.2775C80.5701 9.68997 81.0223 8.28355 80.4254 7.15187L79.1179 4.67199C80.2519 3.69861 81.0228 2.58426 81.4295 1.32892C81.9735 -0.348872 81.7848 -2.06034 80.8639 -3.80598C80.3204 -4.8371 79.6785 -5.62956 78.938 -6.18481" fill="#FCC537"/>
</g>
</svg>
