<svg width="16" height="31" viewBox="0 0 16 31" fill="none" xmlns="http://www.w3.org/2000/svg">
<path fill-rule="evenodd" clip-rule="evenodd" d="M0.798713 13.0488C1.18159 13.7189 1.69544 14.292 2.34027 14.7687C2.98509 15.2454 3.73747 15.6469 4.59835 15.9744C5.45875 16.3018 6.39276 16.6174 7.40135 16.9206C8.40945 17.2247 9.12789 17.5797 9.5557 17.987C9.98447 18.3948 10.2354 18.9874 10.3086 19.7659C10.3745 20.4649 10.233 21.0324 9.88457 21.4672C9.53515 21.9025 9.02369 22.1511 8.35066 22.2138C7.42859 22.2998 6.6896 22.0731 6.13417 21.5337C5.57873 20.9943 5.24795 20.1627 5.14183 19.0397L0.132857 19.5064C0.325491 21.5456 1.05731 23.1348 2.32927 24.2735C3.44828 25.2758 4.92052 25.8456 6.74457 25.9853L6.96876 28.3653C7.06722 29.4099 8.00745 30.1845 9.0581 30.0866L9.68237 30.0287C10.7325 29.9303 11.5117 28.996 11.4132 27.9514L11.1795 25.4716C12.3907 25.0567 13.3615 24.4137 14.0915 23.5426C15.0661 22.3782 15.4738 20.954 15.3151 19.2692C15.221 18.2741 14.9719 17.4377 14.569 16.7595C14.1651 16.0818 13.6402 15.5044 12.9959 15.0282C12.3511 14.5515 11.6006 14.1419 10.7435 13.7992C9.88648 13.4566 8.97827 13.1339 8.02036 12.8307C7.06244 12.5275 6.35452 12.1806 5.89803 11.7909C5.44154 11.4012 5.17864 10.8418 5.11029 10.1123C5.04193 9.39375 5.17004 8.81253 5.49269 8.3696C5.81582 7.92763 6.30529 7.67575 6.95872 7.61445C7.69245 7.54649 8.28278 7.76985 8.73163 8.28454C9.17951 8.79922 9.45245 9.56911 9.54853 10.5933L14.5728 10.1251C14.3964 8.25365 13.733 6.75712 12.5824 5.63698C11.6603 4.73877 10.5136 4.17561 9.14892 3.93514L8.97397 2.08076C8.8755 1.03618 7.93575 0.262016 6.88511 0.359915L6.26084 0.417894C5.21019 0.515793 4.43105 1.45059 4.52951 2.49469L4.69347 4.23074C3.32208 4.64468 2.21742 5.32427 1.38952 6.2776C0.361819 7.4619 -0.0741182 8.88619 0.0831443 10.5514C0.176833 11.5466 0.415355 12.3787 0.798713 13.0488" fill="#FCC537"/>
</svg>
