<svg width="99" height="99" viewBox="0 0 99 99" fill="none" xmlns="http://www.w3.org/2000/svg">
<circle cx="49.1825" cy="49.3276" r="49.1822" fill="#2D2B2C"/>
<mask id="mask0_4605_1191" style="mask-type:alpha" maskUnits="userSpaceOnUse" x="0" y="0" width="99" height="99">
<circle cx="49.1825" cy="49.3276" r="49.1822" fill="white"/>
</mask>
<g mask="url(#mask0_4605_1191)">
<path fill-rule="evenodd" clip-rule="evenodd" d="M85.54 15.9071C84.4987 14.3497 82.9659 12.6719 80.9327 12.0053C80.1004 11.7322 77.4161 10.7091 77.8156 8.99998C77.8917 8.67478 78.5237 8.0794 79.6381 7.83478C79.8381 7.79089 80.1735 7.73621 80.6005 7.73621C81.7456 7.73621 83.5471 8.13013 85.1505 10.1835C86.6894 12.1542 86.2833 14.3015 85.54 15.9071M81.5078 22.3624C80.8815 24.1848 79.5448 25.6522 77.7425 26.4944L60.4832 34.5613C56.7753 36.2942 52.2937 34.8415 50.4932 31.3232L23.5787 -21.2702C22.746 -22.897 22.6153 -24.7478 23.2108 -26.4822C23.8367 -28.3043 25.1738 -29.772 26.9757 -30.6142L44.2354 -38.6807C47.943 -40.4136 52.4245 -38.9613 54.2254 -35.4426L64.482 -15.3999C63.6025 -14.657 62.991 -13.7084 62.7251 -12.6432C62.3374 -11.0898 62.573 -9.52708 63.3877 -8.24244C64.0233 -7.24055 65.3186 -5.93864 67.8822 -5.42637C68.672 -5.26844 69.2673 -5.06123 69.7094 -4.86013C69.5033 -4.53025 69.3181 -4.18165 69.166 -3.80572C68.2011 -1.42134 67.9993 1.85592 72.5162 3.9284C73.8277 4.53025 74.949 5.01591 75.7806 5.3699C74.8535 6.10989 74.2003 7.0553 73.956 8.10035C73.1813 11.4129 75.3807 14.3498 79.6958 15.7647C80.3094 15.9661 80.8873 16.4392 81.4025 17.0166L81.1399 17.1504C81.9726 18.7775 82.103 20.6284 81.5078 22.3624M35.6937 12.5112C35.6749 12.5612 35.6508 12.618 35.622 12.6792C35.4591 11.978 35.288 11.0265 35.1114 9.9631L36.0868 11.8687C35.9203 12.0507 35.7848 12.2658 35.6937 12.5112M67.1709 -25.0457C68.8993 -27.5237 69.6736 -27.1848 70.3568 -26.8847C71.6712 -26.3084 71.2828 -24.9691 71.1325 -24.5727C70.2062 -22.1282 68.6388 -19.0916 67.8245 -17.566L65.4594 -22.1876C65.814 -22.8804 66.397 -23.9363 67.1709 -25.0457M80.6637 -6.7118C77.8994 -7.99248 75.2068 -8.27021 73.0013 -7.48524C72.1805 -8.12163 70.816 -8.87565 68.6603 -9.30663C67.7195 -9.49477 67.054 -9.85883 66.7362 -10.36C66.4418 -10.8237 66.484 -11.3374 66.5712 -11.6867C66.6234 -11.8964 66.8039 -12.2993 67.4255 -12.6422C68.3237 -13.1375 70.5692 -13.7268 75.5177 -12.104C79.0379 -10.9499 80.2752 -8.62851 80.6637 -6.7118M80.1166 3.78313C79.7686 3.16905 79.2522 2.54597 78.4992 2.22364L78.0311 2.02506C77.2143 1.67971 75.8469 1.1016 74.1715 0.332829C72.6243 -0.376945 72.2391 -0.835977 72.8409 -2.32352C73.1262 -3.02861 73.6076 -3.49592 74.312 -3.75206C75.6466 -4.23771 77.5732 -3.89991 79.597 -2.82644C82.9173 -1.06513 84.1453 1.28399 83.2729 4.16698C82.2518 3.84788 81.1889 3.71514 80.1166 3.78313M88.2763 7.75036C87.8133 7.1575 87.3103 6.62652 86.7763 6.15958C88.2597 2.34378 87.5146 -1.22128 84.7406 -3.96037C85.0836 -7.55889 83.8146 -13.5483 76.7543 -15.8636C75.0298 -16.4291 73.4441 -16.8003 71.9956 -16.9852C72.8813 -18.7019 74.0512 -21.0924 74.8396 -23.1721C75.9825 -26.1875 74.7679 -29.2726 71.951 -30.508C67.5101 -32.4557 64.8067 -28.5801 63.9185 -27.307C63.7013 -26.9958 63.4988 -26.6893 63.3082 -26.3911L57.7547 -37.2431C54.9936 -42.6382 48.1755 -44.8916 42.5553 -42.2648L25.2953 -34.1979C22.5112 -32.8967 20.4394 -30.6123 19.4615 -27.7653C18.5146 -25.0072 18.7233 -22.0609 20.0492 -19.4696L28.2059 -3.53084C27.7029 -3.75999 27.1607 -3.96181 26.5719 -4.12801C23.9258 -4.87484 21.6238 -4.48596 20.2571 -3.06101C18.6804 -1.41699 18.5103 1.18612 19.7372 4.89759C21.1438 9.15264 20.8376 10.6305 20.282 13.3134C19.8849 15.2301 19.3909 17.6152 19.3347 21.5767C19.2699 26.1404 19.9642 29.7354 20.9439 32.5259C21.4007 35.161 22.1134 41.5659 19.4691 46.6228C17.3296 50.7145 7.47831 73.3215 4.57817 79.9948C4.14255 80.9981 4.60555 82.1608 5.61046 82.5954V82.5954C6.61429 83.0292 7.77917 82.5716 8.21443 81.5697C11.0858 74.9656 20.9309 52.378 22.9825 48.4543C24.4555 45.6371 25.081 42.5552 25.2766 39.7431C25.976 40.441 26.4718 40.7806 26.5471 40.8302C26.8858 41.0547 27.2695 41.1623 27.6496 41.1623C28.2921 41.1623 28.923 40.854 29.3031 40.2816C29.9084 39.3715 29.6692 38.1498 28.7569 37.5454C28.6109 37.4436 26.3745 35.8258 24.8089 31.6132C24.6749 30.8801 24.5632 30.4236 24.5423 30.3412L24.3942 30.3782C23.7143 28.123 23.2463 25.2501 23.2978 21.6329C23.3489 18.048 23.7817 15.9583 24.1632 14.1146C24.7646 11.2111 25.2399 8.91737 23.501 3.6572C22.6496 1.08143 22.8795 -0.0737016 23.1198 -0.324443C23.367 -0.581659 24.3225 -0.650732 25.4942 -0.320128C26.7344 0.0299028 29.6389 0.849401 30.5534 6.55637C30.6535 7.18376 30.7468 7.7741 30.8344 8.32847C31.2819 11.1593 31.5777 13.0292 31.9636 14.334C32.5693 16.3828 33.6758 17.4282 35.2522 17.4411C36.5558 17.4595 37.5171 16.7655 38.1898 15.9784L46.9637 33.1234C48.9426 36.99 53.0036 39.2427 57.2153 39.2423C58.8807 39.2423 60.5709 38.8898 62.1635 38.1454L67.7112 35.5524C64.5952 39.483 60.3262 44.3302 56.4958 46.8164C53.1492 48.9888 52.2311 49.1047 49.7598 48.6561C48.6251 48.4496 47.5374 49.2554 47.4307 50.43C47.3363 51.4711 48.1265 52.3859 49.1573 52.5687C49.8783 52.696 50.529 52.7773 51.1426 52.8079L29.4991 96.7646L33.0561 98.5101L56.1423 51.6236C56.8975 51.2347 57.7187 50.7426 58.6562 50.1343C65.861 45.4572 73.9363 33.9652 75.2763 32.0169L79.4231 30.0786C82.2072 28.7774 84.279 26.493 85.2569 23.646C85.4057 23.2129 85.5224 22.775 85.6143 22.3347L86.772 21.1173C89.0402 18.7322 92.2732 12.8692 88.2763 7.75036" fill="#FCC537"/>
<path fill-rule="evenodd" clip-rule="evenodd" d="M58.4629 -4.85047C57.9144 -5.26134 57.3026 -5.55319 56.6264 -5.72602C55.9505 -5.89885 55.2109 -5.98366 54.4076 -5.98152C53.6042 -5.97867 52.7669 -5.94411 51.8948 -5.87782C51.023 -5.81154 50.3395 -5.86036 49.8432 -6.02428C49.3472 -6.18856 48.9519 -6.55026 48.6565 -7.10972C48.3654 -7.66171 48.2771 -8.16594 48.3922 -8.62314C48.507 -9.07998 48.818 -9.43847 49.3252 -9.69718C49.8932 -9.9876 50.4427 -9.99972 50.9734 -9.73352C51.5038 -9.46662 51.9766 -8.94065 52.3915 -8.15418L56.2853 -10.144C55.528 -11.5808 54.5013 -12.5608 53.206 -13.0843C52.1674 -13.5041 51.0578 -13.5846 49.8794 -13.3373L49.1641 -14.6932C48.722 -15.5313 47.6638 -15.8613 46.8124 -15.4262L46.4638 -15.2477C45.6123 -14.8129 45.2771 -13.771 45.7191 -12.9328L46.3863 -11.6678C45.4179 -10.8959 44.7514 -9.999 44.3981 -8.97201C43.9593 -7.69663 44.0766 -6.42019 44.7503 -5.14232C45.1532 -4.37866 45.6188 -3.7914 46.1477 -3.38017C46.6766 -2.96894 47.2794 -2.67709 47.9556 -2.50427C48.6319 -2.33144 49.3704 -2.25268 50.1712 -2.26872C50.9723 -2.2844 51.8289 -2.33357 52.7408 -2.41589C53.6531 -2.49785 54.3489 -2.44582 54.8279 -2.25874C55.3068 -2.0713 55.7039 -1.67896 56.0189 -1.08207C56.302 -0.545056 56.3744 -0.04688 56.2368 0.412454C56.0985 0.871432 55.7684 1.23455 55.2456 1.50146C54.5317 1.86636 53.862 1.92338 53.2364 1.67144C52.6116 1.41985 52.0718 0.863236 51.6171 0.00122674L47.7344 1.98538C48.5598 3.55047 49.6723 4.58246 51.0715 5.0817C52.3024 5.52072 53.6759 5.50184 55.1913 5.02682L56.1195 6.78719C56.5616 7.62532 57.6201 7.95494 58.4716 7.51984L58.8202 7.34167C59.6717 6.90656 60.0066 5.86496 59.5645 5.02682L58.5961 3.1902C59.436 2.4693 60.0069 1.644 60.3081 0.714282C60.711 -0.528308 60.5713 -1.79584 59.8893 -3.08868C59.4867 -3.85234 59.0114 -4.43924 58.4629 -4.85047" fill="#FCC537"/>
</g>
</svg>
