<svg width="113" height="192" viewBox="0 0 113 192" fill="none" xmlns="http://www.w3.org/2000/svg">
<path fill-rule="evenodd" clip-rule="evenodd" d="M105.917 80.084C104.515 77.9858 102.451 75.7252 99.7127 74.8271C98.5918 74.4592 94.9771 73.0807 95.5152 70.778C95.6176 70.3398 96.4686 69.5377 97.9693 69.2081C98.2386 69.1489 98.6903 69.0753 99.2653 69.0753C100.807 69.0753 103.233 69.606 105.392 72.3726C107.465 75.0277 106.918 77.9208 105.917 80.084ZM100.487 88.7811C99.6438 91.2365 97.8437 93.2136 95.4167 94.3482L72.1751 105.217C67.1819 107.552 61.147 105.594 58.7224 100.854L22.4789 29.9941C21.3576 27.8024 21.1815 25.3087 21.9835 22.972C22.8263 20.517 24.6269 18.5395 27.0534 17.4048L50.2954 6.53666C55.2882 4.20191 61.3231 6.1586 63.7481 10.8993L77.5598 37.9033C76.3755 38.9042 75.5521 40.1823 75.194 41.6175C74.6719 43.7104 74.9893 45.8158 76.0863 47.5467C76.9422 48.8965 78.6865 50.6506 82.1387 51.3408C83.2022 51.5536 84.0038 51.8328 84.5991 52.1037C84.3216 52.5482 84.0722 53.0178 83.8675 53.5243C82.5681 56.7369 82.2964 61.1524 88.3789 63.9447C90.145 64.7555 91.6549 65.4099 92.7748 65.8868C91.5264 66.8838 90.6467 68.1576 90.3177 69.5656C89.2745 74.0286 92.2362 77.9856 98.047 79.8919C98.8733 80.1633 99.6515 80.8007 100.345 81.5786L99.9916 81.7589C101.113 83.9512 101.289 86.4449 100.487 88.7811ZM38.7929 75.5083C38.7677 75.5757 38.7352 75.6523 38.6964 75.7347C38.4771 74.79 38.2466 73.508 38.0088 72.0753L39.3223 74.6427C39.0981 74.8879 38.9157 75.1778 38.7929 75.5083ZM81.1812 24.9073C83.5087 21.5688 84.5514 22.0254 85.4714 22.4296C87.2414 23.2061 86.7183 25.0106 86.516 25.5447C85.2686 28.8381 83.1579 32.9294 82.0614 34.985L78.8765 28.7582C79.354 27.8247 80.139 26.4021 81.1812 24.9073ZM99.3506 49.6091C95.6281 47.8836 92.0022 47.5094 89.0323 48.567C87.927 47.7096 86.0896 46.6937 83.1866 46.113C81.9197 45.8595 81.0236 45.369 80.5956 44.6938C80.1992 44.0691 80.256 43.3769 80.3734 42.9063C80.4438 42.6237 80.6869 42.0809 81.5238 41.619C82.7334 40.9516 85.7572 40.1576 92.4209 42.3441C97.1614 43.899 98.8275 47.0267 99.3506 49.6091ZM98.6139 63.749C98.1452 62.9216 97.45 62.0821 96.4359 61.6478L95.8056 61.3803C94.7057 60.915 92.8643 60.1361 90.6081 59.1003C88.5247 58.144 88.006 57.5256 88.8163 55.5214C89.2006 54.5714 89.8488 53.9418 90.7974 53.5967C92.5945 52.9423 95.1889 53.3975 97.9143 54.8438C102.385 57.2168 104.039 60.3818 102.864 64.2661C101.489 63.8362 100.058 63.6573 98.6139 63.749ZM107.582 66.9508C109.58 61.8097 108.576 57.0064 104.841 53.316C105.303 48.4677 103.594 40.3981 94.0862 37.2786C91.764 36.5167 89.6286 36.0165 87.6781 35.7674C88.8707 33.4544 90.4462 30.2337 91.5078 27.4317C93.0469 23.369 91.4113 19.2123 87.618 17.5479C81.6379 14.9238 77.9974 20.1453 76.8014 21.8607C76.5088 22.2799 76.2361 22.6929 75.9794 23.0947L68.501 8.47356C64.783 1.20468 55.6015 -1.83141 48.0333 1.70779L24.7908 12.5764C21.0416 14.3296 18.2517 17.4073 16.9349 21.2432C15.6598 24.9593 15.9407 28.9289 17.7262 32.4201L28.7102 53.8947C28.0329 53.586 27.3027 53.3141 26.5098 53.0901C22.9465 52.0839 19.8466 52.6079 18.0062 54.5277C15.883 56.7427 15.654 60.25 17.3061 65.2505C19.2003 70.9834 18.7879 72.9745 18.0397 76.5893C17.505 79.1717 16.8398 82.3852 16.7641 87.7226C16.6768 93.8714 17.6117 98.7149 18.931 102.475C19.5462 106.025 20.506 114.654 16.9451 121.468C14.064 126.98 4.99762 147.666 1.09224 156.657C0.505636 158.009 1.12912 159.576 2.48234 160.161C3.83411 160.746 5.40277 160.129 5.98889 158.779C9.85545 149.881 18.9135 129.222 21.6763 123.935C23.6598 120.14 24.5021 115.987 24.7655 112.198C25.7073 113.139 26.3749 113.596 26.4764 113.663C26.9324 113.966 27.4492 114.111 27.9611 114.111C28.8262 114.111 29.6758 113.695 30.1877 112.924C31.0028 111.698 30.6806 110.052 29.4521 109.237C29.2556 109.1 26.2439 106.921 24.1357 101.245C23.9553 100.257 23.8048 99.6421 23.7767 99.5311L23.5773 99.581C22.6617 96.5425 22.0314 92.6718 22.1008 87.7982C22.1697 82.9683 22.7524 80.1527 23.2663 77.6687C24.0761 73.7568 24.716 70.6664 22.3745 63.5793C21.2279 60.1089 21.5375 58.5526 21.8611 58.2147C22.194 57.8682 23.4807 57.7751 25.0586 58.2206C26.7287 58.6922 30.6399 59.7963 31.8713 67.4854C32.0062 68.3307 32.1319 69.1261 32.2498 69.873C32.8524 73.687 33.2507 76.2064 33.7704 77.9644C34.586 80.7247 36.0761 82.1332 38.1988 82.1506C39.9543 82.1753 41.2488 81.2404 42.1546 80.1799L53.9698 103.28C56.6345 108.489 62.1032 111.524 67.7747 111.524C70.0173 111.524 72.2934 111.049 74.438 110.046L81.9086 106.552C77.7126 111.848 71.9639 118.379 66.8058 121.728C62.2992 124.655 61.0629 124.811 57.7349 124.207C56.207 123.929 54.7422 125.015 54.5986 126.597C54.4715 128 55.5355 129.232 56.9237 129.479C57.8946 129.65 58.7708 129.76 59.5971 129.801L30.4516 189.025L35.2415 191.376C35.2415 191.376 39.7819 182.15 42.0521 177.537C50.1446 161.093 66.3298 128.205 66.3298 128.205C67.3468 127.681 68.4525 127.018 69.715 126.199C79.4171 119.897 90.2914 104.414 92.0959 101.789L97.68 99.1773C101.429 97.4241 104.219 94.3464 105.536 90.5105C105.736 89.927 105.894 89.3371 106.017 88.7438L107.576 87.1037C110.631 83.8902 114.984 75.9907 109.602 69.0941C108.978 68.2953 108.301 67.5799 107.582 66.9508Z" fill="#FCC537"/>
</svg>
