<svg width="154" height="82" viewBox="0 0 154 82" fill="none" xmlns="http://www.w3.org/2000/svg">
<path fill-rule="evenodd" clip-rule="evenodd" d="M30.8343 32.8649C30.2496 32.2734 24.7543 26.7098 21.1049 23.1194C21.6992 22.3385 22.5857 21.4781 23.4678 21.3921C27.2165 21.0274 29.3276 21.5586 30.3177 23.1166C30.9465 24.107 32.33 25.7353 33.9997 27.5711C34.1724 28.3506 34.714 29.0403 35.5218 29.3859C35.6009 29.4196 35.6805 29.4485 35.7607 29.4738C37.4693 31.2928 39.2921 33.1665 40.8477 34.7428C39.1088 34.5315 37.5686 34.3271 36.4025 34.1499C34.9701 33.9315 33.001 33.4658 30.8343 32.8649M7.04523 27.1576C6.76615 27.2685 6.49628 27.3916 6.23174 27.5204C5.74674 25.9141 5.55827 24.1021 6.677 23.2765C10.0448 20.7929 13.902 23.1467 15.1036 24.2638C15.9961 25.0933 18.0354 27.146 20.2075 29.3584C18.6667 28.7326 17.3682 28.1395 16.5005 27.6411C13.7678 26.0709 10.2328 25.8899 7.04523 27.1576M46.0661 25.3833C48.2548 26.3553 49.0902 27.1953 51.3205 29.4414C52.2776 30.4047 53.4686 31.6043 55.0609 33.0963C56.5333 34.4757 57.776 35.6208 58.7957 36.5376C56.5445 36.4632 53.0346 36.1684 49.3949 35.7938C49.2736 35.5241 49.1159 35.2674 48.9021 35.0437C46.6177 32.6507 43.5008 29.3002 40.8477 26.3215C41.8338 25.2055 43.4984 24.2446 46.0661 25.3833M119.205 30.4169C115.534 29.1295 113.646 27.1937 111.033 24.5138C107.307 20.695 102.671 15.9424 91.1459 11.1302C86.3672 9.13484 83.6425 8.53392 81.2373 8.00361C78.1526 7.32343 75.7163 6.78591 69.2259 2.87391C63.3863 -0.646595 59.1208 -0.0327032 54.9651 4.92646C53.5907 6.56639 53.0258 8.71117 53.3315 11.1293C53.9401 15.9486 57.8375 21.0332 61.3731 23.5646C64.0227 25.462 66.597 28.7635 68.0049 30.731C66.6717 32.2072 65.2811 33.5911 64.0572 34.6815C63.335 34.1046 61.745 32.7625 58.3282 29.6632C56.7631 28.2438 55.5771 27.0885 54.6249 26.16C52.225 23.8221 50.7768 22.4108 47.6313 21.0596C42.9072 19.0301 39.1205 20.548 36.6943 22.9195C35.8609 21.9382 35.2356 21.1432 34.9265 20.6431C31.7656 15.525 25.2249 16.1802 23.0771 16.3954C20.4596 16.6576 18.5591 18.3422 17.3759 19.8025C14.0579 17.4118 8.39744 15.7181 3.46398 19.3813C-0.716646 22.4853 0.274839 27.9546 1.92284 31.624C1.53708 32.2595 1.23182 32.9368 1.02145 33.6482C-0.627513 39.2261 1.43548 44.5931 6.53955 48.0036C9.66064 50.0893 14.24 51.9204 21.0505 54.0407C21.1574 54.2304 21.28 54.4134 21.4377 54.5782C21.9447 55.107 34.0064 67.577 47.4291 70.7305C52.0065 71.8065 67.6023 72.5251 75.5462 71.7441C83.1374 70.9981 100.768 72.2696 107.058 73.2149C110.086 73.6703 119.146 75.6945 127.908 77.6519C137.259 79.7415 141.927 80.6416 146.295 81.3712C146.442 81.3957 146.587 81.4077 146.731 81.4077C147.996 81.4077 149.113 80.4917 149.327 79.1995C149.567 77.7604 147.73 77.3721 146.295 77.1324C142.067 76.4258 138.338 74.5685 129.055 72.4949C119.796 70.426 111.051 68.4729 107.84 67.9896C101.159 66.9852 83.1335 65.6892 75.0325 66.4852C67.137 67.2609 52.3898 66.4688 48.6319 65.5859C42.7961 64.215 37.0829 60.6839 32.7619 57.4295C33.1774 57.5439 33.6228 57.637 34.0232 57.7764C45.5504 61.7888 47.9739 62.9892 48.0084 63.0156H49.531C51.6414 63.0156 52.7642 60.525 51.3667 58.9436V58.9436C50.9795 58.6146 50.5118 56.8219 35.4148 52.6803C21.8 48.9451 13.6318 46.393 9.46368 43.6069C6.33876 41.5193 5.10383 38.4364 6.07567 35.1493C6.20649 34.7069 6.44754 34.2828 6.77436 33.8946C6.89176 33.7909 6.99479 33.6756 7.08968 33.555C7.57751 33.0848 8.20144 32.6851 8.91978 32.3979C10.5611 31.7407 12.3864 31.7984 13.6836 32.5487C18.2404 35.1839 30.5096 39.1641 35.7095 39.9788C39.4771 40.5687 57.4767 42.7773 61.5442 42.1951C65.432 41.6384 71.0953 35.3174 73.3495 32.626L74.5892 31.1461L73.558 29.5133C73.3826 29.2362 69.2135 22.6846 64.4367 19.265C61.9175 17.4613 58.9545 13.5839 58.5611 10.4654C58.3838 9.06182 58.8482 8.5075 59.0015 8.32496C61.6165 5.20363 63.0973 5.34533 66.5097 7.40172C73.7401 11.7604 76.6896 12.4108 80.1049 13.164C82.294 13.6468 84.7753 14.1939 89.1184 16.0077C99.6528 20.4063 103.696 24.5513 107.264 28.2082C110.022 31.0365 112.628 33.7083 117.463 35.4044C128.348 39.2232 143.464 41.6726 150.917 42.7525C152.358 42.9614 153.695 41.9604 153.903 40.5159C154.111 39.072 152.358 38.9377 150.917 38.7292C143.621 37.6719 129.729 34.1094 119.205 30.4169Z" fill="#FCC537"/>
</svg>
