<svg width="132" height="70" viewBox="0 0 132 70" fill="none" xmlns="http://www.w3.org/2000/svg">
<path fill-rule="evenodd" clip-rule="evenodd" d="M26.7528 28.4958C26.2567 27.9909 21.5947 23.2417 18.4986 20.177C19.0028 19.5104 19.7548 18.776 20.5032 18.7025C23.6835 18.3912 25.4745 18.8446 26.3145 20.1746C26.848 21.02 28.0216 22.4099 29.4382 23.977C29.5847 24.6424 30.0442 25.2311 30.7295 25.5261C30.7966 25.5548 30.8642 25.5796 30.9322 25.6011C32.3817 27.1539 33.9281 28.7533 35.2479 30.0988C33.7727 29.9184 32.466 29.744 31.4767 29.5927C30.2615 29.4063 28.591 29.0087 26.7528 28.4958ZM6.57073 23.624C6.33397 23.7187 6.10502 23.8238 5.88059 23.9337C5.46913 22.5625 5.30923 21.0158 6.25834 20.3111C9.11553 18.191 12.3879 20.2003 13.4073 21.1538C14.1644 21.8619 15.8945 23.6141 17.7372 25.5027C16.4301 24.9684 15.3285 24.4622 14.5923 24.0367C12.274 22.6964 9.27501 22.5419 6.57073 23.624ZM39.675 22.1095C41.5319 22.9392 42.2406 23.6562 44.1327 25.5735C44.9447 26.3957 45.9551 27.4197 47.306 28.6934C48.5551 29.8708 49.6094 30.8482 50.4745 31.6309C48.5646 31.5674 45.5869 31.3157 42.4991 30.9959C42.3962 30.7657 42.2624 30.5466 42.081 30.3556C40.143 28.313 37.4987 25.453 35.2479 22.9103C36.0844 21.9577 37.4967 21.1375 39.675 22.1095ZM101.724 26.4062C98.6101 25.3073 97.0083 23.6548 94.791 21.3673C91.63 18.1075 87.6975 14.0506 77.9196 9.94292C73.8655 8.23964 71.5538 7.72669 69.5134 7.27401C66.8964 6.69341 64.8295 6.23458 59.3232 2.89527C54.369 -0.109869 50.7503 0.414154 47.2247 4.64734C46.0587 6.04719 45.5794 7.87799 45.8388 9.9421C46.3551 14.056 49.6616 18.3962 52.6611 20.557C54.9089 22.1767 57.0929 24.9948 58.2873 26.6743C57.1563 27.9344 55.9765 29.1157 54.9382 30.0464C54.3255 29.554 52.9766 28.4084 50.0779 25.7628C48.7501 24.5512 47.7439 23.5651 46.9361 22.7725C44.9001 20.7768 43.6715 19.5721 41.0029 18.4187C36.9951 16.6863 33.7826 17.982 31.7242 20.0064C31.0172 19.1687 30.4867 18.4901 30.2245 18.0632C27.5429 13.6943 21.9939 14.2536 20.1717 14.4373C17.9512 14.6612 16.3388 16.0992 15.335 17.3457C12.5201 15.3049 7.71791 13.8592 3.53249 16.9861C-0.0142418 19.6357 0.826908 24.3043 2.22503 27.4366C1.89776 27.9791 1.63879 28.5572 1.46031 29.1645C0.0613763 33.9258 1.81157 38.5071 6.14172 41.4183C8.78958 43.1987 12.6746 44.7617 18.4524 46.5716C18.5431 46.7336 18.6472 46.8898 18.7809 47.0304C19.2111 47.4819 29.4439 58.1264 40.8313 60.8182C44.7147 61.7367 57.9458 62.3501 64.6852 61.6834C71.1253 61.0466 86.0831 62.132 91.4186 62.9389C93.9876 63.3276 101.674 65.0555 109.108 66.7264C117.041 68.51 121.001 69.2784 124.706 69.9012C124.831 69.9221 124.955 69.9324 125.077 69.9324C126.15 69.9324 127.097 69.1504 127.279 68.0474C127.483 66.819 125.924 66.4875 124.706 66.2829C121.12 65.6797 117.956 64.0944 110.081 62.3243C102.226 60.5583 94.8068 58.8911 92.0821 58.4786C86.4144 57.6212 71.1221 56.5149 64.2494 57.1944C57.5511 57.8566 45.0399 57.1804 41.8518 56.4268C36.9008 55.2565 32.0539 52.2424 28.3881 49.4644C28.7406 49.562 29.1185 49.6415 29.4581 49.7604C39.2375 53.1855 41.2936 54.2102 41.3228 54.2327H42.5986C44.3995 54.2327 45.3604 52.11 44.1719 50.7569C43.8435 50.476 43.4467 48.9457 30.6387 45.4104C19.0883 42.222 12.1586 40.0435 8.62249 37.6653C5.97138 35.8833 4.9237 33.2517 5.74818 30.4458C5.85917 30.0682 6.06367 29.7061 6.34093 29.3748C6.44054 29.2862 6.52795 29.1878 6.60844 29.0849C7.02231 28.6835 7.55164 28.3424 8.16105 28.0972C9.55348 27.5362 11.102 27.5854 12.2026 28.2259C16.0684 30.4753 26.4773 33.8729 30.8888 34.5683C34.0851 35.0718 49.3554 36.9572 52.8062 36.4602C56.1046 35.985 60.9092 30.5893 62.8216 28.2919L63.8733 27.0286L62.9984 25.6349C62.8496 25.3983 59.3126 19.8059 55.2602 16.8868C53.1229 15.3472 50.6092 12.0374 50.2755 9.37543C50.125 8.17732 50.519 7.70414 50.6491 7.54833C52.8676 4.88393 54.1239 5.00489 57.0189 6.76024C63.1529 10.4809 65.6552 11.0361 68.5527 11.679C70.4098 12.0911 72.5149 12.5581 76.1995 14.1064C85.1366 17.8611 88.5667 21.3993 91.5935 24.5208C93.9335 26.9351 96.1448 29.2157 100.246 30.6635C109.481 33.9233 122.305 36.0142 128.628 36.9359C129.85 37.1143 130.985 36.2598 131.161 35.0268C131.338 33.7943 129.85 33.6796 128.628 33.5016C122.438 32.5991 110.652 29.5581 101.724 26.4062Z" fill="#FCC537"/>
</svg>
