<svg width="47" height="48" viewBox="0 0 47 48" fill="none" xmlns="http://www.w3.org/2000/svg">
<path fill-rule="evenodd" clip-rule="evenodd" d="M21.8103 6.10617C22.377 6.05293 22.9395 6.02703 23.4982 6.02703C32.6446 6.02703 40.4828 13.0141 41.3534 22.2996C41.8009 27.0726 40.3627 31.734 37.3045 35.4254C34.2453 39.1163 29.9326 41.3954 25.1596 41.843C20.3909 42.2905 15.7263 40.8527 12.0345 37.7935C8.34315 34.7353 6.06408 30.422 5.61656 25.6495C4.69325 15.7968 11.9577 7.02996 21.8103 6.10617M8.5993 41.9396C12.8238 45.4399 18.0254 47.3074 23.4436 47.3074C24.1797 47.3074 24.9201 47.2732 25.6628 47.2034C31.8671 46.6217 37.474 43.6589 41.45 38.8603C45.4265 34.0612 47.2959 28.0019 46.7138 21.7972V21.7968C45.513 8.98868 34.1181 -0.454506 21.3076 0.745375C8.49951 1.94621 -0.945118 13.3434 0.256191 26.1515C0.837363 32.3567 3.80072 37.9631 8.5993 41.9396" fill="#FCC537"/>
</svg>
