<svg width="155" height="82" viewBox="0 0 155 82" fill="none" xmlns="http://www.w3.org/2000/svg">
<path fill-rule="evenodd" clip-rule="evenodd" d="M31.2152 32.5568C30.6305 31.9653 25.1352 26.4016 21.4858 22.8113C22.0801 22.0304 22.9666 21.17 23.8487 21.084C27.5974 20.7192 29.7085 21.2505 30.6986 22.8085C31.3274 23.7989 32.7108 25.4271 34.3806 27.263C34.5533 28.0425 35.0949 28.7322 35.9027 29.0778C35.9818 29.1114 36.0614 29.1404 36.1415 29.1657C37.8502 30.9847 39.673 32.8584 41.2286 34.4347C39.4897 34.2234 37.9495 34.019 36.7834 33.8418C35.351 33.6234 33.3819 33.1577 31.2152 32.5568M7.42613 26.8495C7.14705 26.9604 6.87718 27.0835 6.61263 27.2123C6.12764 25.6059 5.93916 23.794 7.0579 22.9684C10.4257 20.4848 14.2829 22.8386 15.4845 23.9557C16.377 24.7851 18.4163 26.8379 20.5884 29.0503C19.0476 28.4245 17.7491 27.8314 16.8814 27.333C14.1487 25.7628 10.6137 25.5818 7.42613 26.8495M46.447 25.0752C48.6357 26.0472 49.4711 26.8872 51.7014 29.1333C52.6585 30.0965 53.8495 31.2962 55.4418 32.7882C56.9142 34.1676 58.1569 35.3126 59.1766 36.2295C56.9254 36.1551 53.4155 35.8603 49.7758 35.4857C49.6545 35.216 49.4968 34.9593 49.283 34.7356C46.9986 32.3426 43.8817 28.9921 41.2286 26.0134C42.2147 24.8974 43.8793 23.9365 46.447 25.0752M119.586 30.1088C115.915 28.8214 114.027 26.8856 111.414 24.2057C107.688 20.3869 103.052 15.6343 91.5268 10.8221C86.7481 8.82673 84.0234 8.22581 81.6182 7.6955C78.5335 7.01532 76.0972 6.4778 69.6068 2.56581C63.7672 -0.9547 59.5017 -0.340809 55.346 4.61836C53.9716 6.25828 53.4067 8.40306 53.7124 10.8212C54.321 15.6405 58.2184 20.7251 61.754 23.2565C64.4035 25.1539 66.9779 28.4554 68.3858 30.4229C67.0526 31.8991 65.662 33.283 64.4381 34.3734C63.7159 33.7964 62.1259 32.4543 58.7091 29.3551C57.144 27.9357 55.958 26.7804 55.0058 25.8519C52.6059 23.514 51.1577 22.1027 48.0122 20.7515C43.2881 18.722 39.5014 20.2399 37.0752 22.6114C36.2418 21.6301 35.6165 20.8351 35.3074 20.335C32.1465 15.2169 25.6058 15.8721 23.458 16.0873C20.8405 16.3495 18.94 18.0341 17.7568 19.4944C14.4388 17.1037 8.77834 15.41 3.84488 19.0731C-0.335749 22.1772 0.655736 27.6465 2.30374 31.3159C1.91797 31.9514 1.61272 32.6287 1.40234 33.3401C-0.246616 38.918 1.81638 44.285 6.92044 47.6955C10.0415 49.7812 14.6209 51.6123 21.4314 53.7325C21.5383 53.9223 21.6609 54.1053 21.8186 54.2701C22.3256 54.7989 34.3873 67.2689 47.81 70.4224C52.3874 71.4984 67.9832 72.217 75.9271 71.436C83.5183 70.69 101.149 71.9615 107.438 72.9068C110.467 73.3622 119.527 75.3864 128.289 77.3438C137.64 79.4334 142.307 80.3335 146.675 81.0631C146.823 81.0876 146.968 81.0996 147.112 81.0996C148.377 81.0996 149.494 80.1836 149.708 78.8914C149.948 77.4523 148.111 77.0639 146.675 76.8243C142.448 76.1177 138.718 74.2604 129.436 72.1868C120.177 70.1179 111.432 68.1648 108.221 67.6815C101.54 66.6771 83.5144 65.3811 75.4134 66.1771C67.5179 66.9528 52.7707 66.1607 49.0128 65.2778C43.177 63.9069 37.4638 60.3758 33.1428 57.1214C33.5583 57.2358 34.0037 57.3289 34.4041 57.4683C45.9313 61.4807 48.3548 62.6811 48.3893 62.7075H49.9119C52.0223 62.7075 53.1451 60.2169 51.7476 58.6355V58.6355C51.3604 58.3065 50.8927 56.5138 35.7957 52.3722C22.1809 48.637 14.0127 46.0848 9.84458 43.2988C6.71965 41.2112 5.48473 38.1283 6.45657 34.8412C6.58739 34.3988 6.82844 33.9747 7.15526 33.5865C7.27266 33.4828 7.37569 33.3675 7.47058 33.2469C7.95841 32.7767 8.58234 32.377 9.30068 32.0898C10.942 31.4326 12.7673 31.4903 14.0645 32.2406C18.6213 34.8758 30.8905 38.856 36.0904 39.6707C39.858 40.2606 57.8576 42.4692 61.9251 41.887C65.8129 41.3303 71.4762 35.0093 73.7304 32.3179L74.9701 30.838L73.9389 29.2052C73.7635 28.9281 69.5944 22.3765 64.8176 18.9569C62.2984 17.1532 59.3354 13.2758 58.942 10.1573C58.7647 8.75372 59.229 8.19939 59.3824 8.01686C61.9974 4.89552 63.4782 5.03723 66.8906 7.09362C74.121 11.4523 77.0705 12.1027 80.4858 12.8559C82.6749 13.3387 85.1562 13.8858 89.4993 15.6996C100.034 20.0982 104.077 24.2432 107.645 27.9001C110.403 30.7284 113.009 33.4002 117.844 35.0963C128.729 38.9151 143.845 41.3645 151.298 42.4444C152.739 42.6533 154.076 41.6523 154.284 40.2078C154.492 38.7639 152.739 38.6296 151.298 38.4211C144.002 37.3638 130.109 33.8013 119.586 30.1088Z" fill="#FCC537"/>
</svg>
