<svg width="98" height="122" viewBox="0 0 98 122" fill="none" xmlns="http://www.w3.org/2000/svg">
<path fill-rule="evenodd" clip-rule="evenodd" d="M64.2957 55.1941C65.5308 50.8878 66.0642 45.726 62.5784 43.5645C58.7006 41.1603 55.1403 42.1153 51.9959 46.402C49.2407 50.1576 45.9593 59.7371 43.113 68.6126L42.9483 69.1249C42.7348 69.7901 42.5404 70.4413 42.3581 71.0828C41.8442 70.9016 41.0904 70.4791 40.4458 69.7049C39.6833 68.7886 38.908 67.1586 39.5443 64.5937L39.5824 64.4404L44.1412 7.88336C44.2899 6.10945 45.7337 4.72314 47.4995 4.65854L69.7912 3.84352C70.8008 3.80616 71.7497 4.19341 72.4501 4.93406C73.1502 5.67435 73.4888 6.64337 73.4021 7.67489L69.6086 56.6778C69.6055 56.7159 69.6062 56.7536 69.6055 56.7913C68.3481 55.9819 66.6773 55.2115 64.8349 55.1773C64.6523 55.1735 64.4728 55.1801 64.2957 55.1941M81.9548 34.7955C82.1364 36.0927 82.5083 38.7484 74.7146 40.1172L75.205 33.7807C75.2587 33.7713 75.3121 33.7611 75.3655 33.7468C76.7382 33.383 80.0192 32.9308 81.4 33.8558C81.7316 34.0775 81.8921 34.3499 81.9548 34.7955M79.2621 48.1047C79.6582 48.3513 79.8692 48.6634 79.9687 49.1488C80.15 50.0358 80.0384 50.7331 79.6166 51.3435C79.0108 52.2207 77.4692 53.3734 73.6261 54.1737L74.1186 47.8121C75.6303 47.5282 78.0446 47.3466 79.2621 48.1047M77.5557 20.5938C77.5872 20.5906 77.6191 20.5885 77.6506 20.5858C79.023 20.4695 80.4883 20.5477 81.325 21.0858C81.6854 21.3177 81.8753 21.6131 81.9606 22.0667C82.0081 22.4204 82.0347 22.7333 82.0458 23.0155C82.032 23.7666 81.797 24.2083 81.5946 24.4932C80.7919 25.6243 78.8158 26.514 75.7185 27.1468L76.2113 20.782C76.5801 20.7139 76.9935 20.6525 77.4288 20.6071C77.4714 20.6025 77.513 20.5976 77.5557 20.5938M87.9203 58.0743C85.9362 57.8417 84.2138 58.113 82.7627 58.6162C82.0844 57.8906 80.8922 57.0263 78.8582 56.5479C80.616 55.7532 81.9056 54.7545 82.746 53.5375C83.7767 52.0451 84.0987 50.3075 83.7026 48.3729C83.3924 46.8592 82.5502 45.6363 81.2662 44.837C79.8151 43.9336 77.9859 43.6982 76.3605 43.7255C80.24 42.9576 86.6595 40.8939 85.7293 34.2585C85.5155 32.7311 84.7482 31.4855 83.5102 30.6565C82.8535 30.2169 82.1018 29.9277 81.3182 29.7441C84.0526 28.6682 85.9189 26.8084 85.8541 23.0559C85.8607 22.5709 85.8225 22.0677 85.7373 21.5467C85.7342 21.5247 85.7328 21.5041 85.73 21.4818C85.7283 21.4713 85.7255 21.4615 85.7241 21.451C85.7213 21.436 85.7206 21.4217 85.7179 21.407C85.7147 21.3882 85.7089 21.3707 85.7054 21.3522C85.469 19.8845 84.7173 18.684 83.5168 17.8784C81.4759 16.5085 78.5179 16.5811 76.5161 16.8469L77.2019 7.98641C77.378 5.88739 76.6519 3.80898 75.2099 2.28405C73.7678 0.759112 71.7462 -0.0716229 69.6526 0.00485087L47.3612 0.819872C43.6709 0.955011 40.6537 3.85228 40.3418 7.56597L40.0503 11.1812C39.6857 10.7332 39.2778 10.3257 38.8197 9.98275C37.4542 8.96136 35.817 8.61461 34.0841 8.97987C27.8268 10.2998 27.7284 14.0547 27.6144 18.4032C27.5918 19.2563 27.5665 20.2236 27.501 21.2555C27.1493 26.8077 24.2596 32.8184 20.7793 35.2369C18.59 36.7583 19.524 40.7751 22.944 38.3989C27.4345 35.2785 30.8732 28.3291 31.3057 21.4999C31.3757 20.3968 31.402 19.3915 31.4252 18.5049C31.5379 14.2108 31.5583 13.437 34.8653 12.7397C35.5356 12.5982 36.0533 12.6984 36.5437 13.0644C38.1393 14.2552 39.0169 17.863 39.1953 19.8594C39.2106 20.0368 39.2515 20.2054 39.3104 20.3647L35.8076 63.822C35.6257 64.599 35.5307 65.3637 35.5113 66.1099C32.6909 66.4396 25.8725 67.3133 19.7576 68.694C12.0547 70.4337 1.97624 73.1159 1.75132 73.1756C0.733097 73.4455 0.124867 74.4955 0.392419 75.5215C0.61769 76.3836 1.38985 76.9539 2.23479 76.9539C2.39525 76.9539 2.55848 76.9336 2.72068 76.8903C2.94525 76.8309 12.9562 74.1666 20.5911 72.4426C26.6259 71.0793 33.5705 70.2036 36.1677 69.9015C36.6182 71.0154 37.2927 72.0236 38.1827 72.8794C39.1562 73.816 40.3175 74.4788 41.4359 74.8025C39.4816 84.0841 40.7462 90.57 41.5558 94.7139L41.639 95.1413C42.2892 98.4915 42.9778 100.083 43.5306 101.362C44.1482 102.79 44.5557 103.733 44.6458 107.083C44.7179 109.773 45.1508 120.463 45.1692 120.916C45.2111 121.949 49.0213 121.819 48.9783 120.76C48.9738 120.649 48.5281 109.643 48.4567 106.979C48.3469 102.883 47.7345 101.468 47.0257 99.8282C46.5218 98.6626 45.9507 97.342 45.3802 94.4042L45.2964 93.9722C44.3443 89.0992 42.9061 81.7354 46.5756 70.3073L46.7405 69.7936C48.2623 65.048 52.3054 52.4425 55.0613 48.6851C57.5157 45.3391 59.0729 45.901 60.5804 46.8358C62.4502 47.9951 60.9208 54.1549 58.9821 58.6567C56.7813 61.6022 55.6411 65.451 55.4512 66.1306C55.1656 67.1509 55.7548 68.2104 56.7671 68.4991C56.9404 68.5484 57.1147 68.5718 57.2866 68.5718C58.1174 68.5718 58.8819 68.0197 59.12 67.1746C59.54 65.6829 60.2658 63.8744 61.1433 62.339C61.5532 61.6522 62.1144 61.0138 62.2835 60.6374C63.0692 59.6614 63.9127 59.0174 64.7355 59.0174C64.7452 59.0174 64.7552 59.0178 64.7649 59.0178C65.9415 59.0398 67.1836 59.7382 68.0764 60.3957C67.1237 61.2272 66.4718 61.9091 66.2843 62.1099C65.5631 62.8816 65.5995 64.0954 66.3647 64.8228C66.7328 65.1727 67.2027 65.3459 67.672 65.3459C68.1783 65.3459 68.6836 65.1441 69.0586 64.7442C70.5773 63.125 74.4568 59.8573 76.776 60.0902C77.8514 60.1988 78.5945 60.4299 79.1039 60.6677C77.9325 61.6186 77.2959 62.478 77.2335 62.5642C76.6166 63.4173 76.802 64.6063 77.6442 65.2342C78.486 65.862 79.6772 65.6818 80.3062 64.8378C80.4122 64.6957 82.9557 61.3591 87.4802 61.8896C88.5944 62.0202 89.7883 63.0342 90.8416 64.7453C93.4159 68.9273 94.3322 75.637 92.8835 79.7031C92.2448 81.4958 91.8275 81.477 90.8246 81.4319C90.7088 81.427 90.5889 81.4218 90.4666 81.419C90.33 75.9806 89.4508 70.9383 89.3977 70.6401C89.2127 69.5963 88.2215 68.9018 87.1866 69.0875C86.1504 69.2737 85.4604 70.2713 85.6451 71.3154C85.6621 71.4132 87.361 81.1568 86.3538 87.6253C85.2857 94.4859 85.0413 98.9654 84.9678 99.8282C84.8781 100.885 85.6554 101.815 86.7045 101.906C86.7596 101.91 86.8147 101.913 86.8695 101.913C87.8482 101.913 88.6813 101.157 88.7663 100.156C88.7839 99.9463 89.0727 94.9493 90.1203 88.2206C90.2673 87.2761 90.3626 86.2788 90.4194 85.2598C90.4981 85.2623 90.5823 85.2661 90.6554 85.2692C92.0286 85.3303 94.8836 85.4582 96.4719 81.0007C98.2939 75.8871 97.2434 67.8573 94.0813 62.7203C92.3779 59.9533 90.2475 58.3466 87.9203 58.0743Z" fill="#FCC537"/>
</svg>
