<svg width="96" height="164" viewBox="0 0 96 164" fill="none" xmlns="http://www.w3.org/2000/svg">
<path fill-rule="evenodd" clip-rule="evenodd" d="M90.3982 68.6116C89.1975 66.8253 87.4302 64.9008 85.0858 64.1361C84.1261 63.823 81.0309 62.6494 81.4917 60.689C81.5793 60.3159 82.308 59.633 83.593 59.3524C83.8236 59.3021 84.2104 59.2394 84.7027 59.2394C86.023 59.2394 88.1003 59.6912 89.9491 62.0465C91.7235 64.307 91.2553 66.77 90.3982 68.6116M85.7489 76.0159C85.0268 78.1063 83.4854 79.7894 81.4073 80.7554L61.5066 90.0084C57.2312 91.9961 52.0637 90.3299 49.9877 86.2943L18.954 25.9678C17.9939 24.1018 17.8431 21.9788 18.5298 19.9895C19.2515 17.8995 20.7932 16.2159 22.8709 15.2499L42.7721 5.99731C47.0471 4.00963 52.2145 5.67545 54.291 9.71147L66.1173 32.7012C65.1032 33.5533 64.3982 34.6414 64.0916 35.8633C63.6445 37.645 63.9162 39.4375 64.8556 40.9111C65.5885 42.0603 67.082 43.5536 70.038 44.1412C70.9487 44.3223 71.635 44.56 72.1448 44.7907C71.9071 45.1691 71.6936 45.5689 71.5183 46.0001C70.4057 48.7351 70.173 52.4942 75.3812 54.8714C76.8934 55.5618 78.1863 56.1188 79.1452 56.5249C78.0762 57.3737 77.323 58.4581 77.0413 59.6568C76.1481 63.4564 78.684 66.8252 83.6595 68.4481C84.367 68.6791 85.0334 69.2218 85.6275 69.884L85.3247 70.0376C86.2848 71.9039 86.4352 74.0269 85.7489 76.0159M32.923 64.7161C32.9014 64.7735 32.8735 64.8387 32.8403 64.9088C32.6525 64.1046 32.4552 63.0132 32.2516 61.7934L33.3762 63.9792C33.1843 64.188 33.0281 64.4347 32.923 64.7161M69.2182 21.6371C71.2111 18.7949 72.1039 19.1836 72.8916 19.5277C74.4072 20.1888 73.9593 21.725 73.7861 22.1797C72.718 24.9836 70.9107 28.4667 69.9718 30.2167L67.2448 24.9155C67.6536 24.1208 68.3258 22.9097 69.2182 21.6371M84.7757 42.6669C81.5884 41.1979 78.4837 40.8793 75.9407 41.7797C74.9943 41.0498 73.4209 40.1849 70.9353 39.6905C69.8505 39.4747 69.0832 39.0571 68.7167 38.4823C68.3773 37.9504 68.4259 37.3612 68.5265 36.9605C68.5867 36.7199 68.7948 36.2578 69.5115 35.8645C70.5472 35.2963 73.1363 34.6204 78.8422 36.4819C82.9012 37.8056 84.3279 40.4684 84.7757 42.6669M84.145 54.7048C83.7437 54.0005 83.1483 53.2858 82.28 52.916L81.7403 52.6883C80.7985 52.2921 79.2219 51.629 77.29 50.7472C75.506 49.9331 75.0619 49.4066 75.7557 47.7003C76.0847 46.8915 76.6398 46.3555 77.452 46.0617C78.9909 45.5046 81.2123 45.8921 83.5459 47.1234C87.3743 49.1437 88.7902 51.8382 87.7844 55.1451C86.607 54.7791 85.3814 54.6268 84.145 54.7048M91.824 57.4307C93.5344 53.0538 92.6752 48.9646 89.4766 45.8228C89.8721 41.6951 88.4089 34.8251 80.2681 32.1694C78.2797 31.5207 76.4513 31.0949 74.7811 30.8828C75.8023 28.9137 77.1513 26.1717 78.0603 23.7862C79.3782 20.3275 77.9777 16.7887 74.7296 15.3717C69.6091 13.1377 66.492 17.583 65.4679 19.0434C65.2174 19.4003 64.9839 19.7519 64.7641 20.0939L58.3607 7.64628C55.1771 1.45795 47.3154 -1.12682 40.8351 1.88626L20.9336 11.1393C17.7233 12.6318 15.3345 15.252 14.2069 18.5177C13.1151 21.6814 13.3556 25.0609 14.8845 28.0331L24.2896 46.3155C23.7096 46.0526 23.0844 45.8211 22.4055 45.6305C19.3544 44.7738 16.7001 45.2199 15.1242 46.8544C13.3062 48.7401 13.1101 51.726 14.5247 55.9832C16.1467 60.8639 15.7935 62.559 15.1529 65.6364C14.6951 67.835 14.1255 70.5708 14.0607 75.1147C13.9859 80.3495 14.7865 84.473 15.9161 87.6738C16.4429 90.6964 17.2647 98.043 14.2156 103.843C11.7487 108.537 3.98558 126.148 0.641579 133.802C0.139294 134.953 0.673154 136.287 1.83186 136.785C2.98932 137.283 4.33249 136.758 4.83436 135.609C8.14512 128.033 15.9011 110.445 18.2667 105.944C19.9651 102.713 20.6864 99.1777 20.912 95.9522C21.7183 96.7527 22.29 97.1422 22.3768 97.1991C22.7674 97.4566 23.2098 97.58 23.6481 97.58C24.3889 97.58 25.1164 97.2264 25.5547 96.5699C26.2526 95.5259 25.9768 94.1246 24.9248 93.4313C24.7566 93.3146 22.1778 91.4589 20.3727 86.6269C20.2181 85.786 20.0893 85.2623 20.0653 85.1678L19.8945 85.2103C19.1105 82.6235 18.5709 79.3282 18.6303 75.1791C18.6893 71.0672 19.1882 68.6701 19.6282 66.5554C20.3216 63.225 20.8696 60.594 18.8646 54.5604C17.8829 51.6059 18.1479 50.2809 18.425 49.9933C18.71 49.6983 19.8118 49.619 21.1629 49.9983C22.5929 50.3998 25.9419 51.3397 26.9963 57.8858C27.1118 58.6055 27.2194 59.2826 27.3204 59.9185C27.8363 63.1655 28.1774 65.3104 28.6224 66.8071C29.3208 69.1571 30.5966 70.3562 32.4142 70.371C33.9174 70.3921 35.0258 69.5961 35.8015 68.6933L45.9182 88.3592C48.1999 92.7942 52.8825 95.3782 57.7387 95.3778C59.659 95.3778 61.6079 94.9734 63.4442 94.1196L69.841 91.1453C66.2481 95.6538 61.3258 101.214 56.9091 104.065C53.0503 106.557 51.9918 106.69 49.1421 106.176C47.8339 105.939 46.5796 106.863 46.4566 108.21C46.3478 109.405 47.2589 110.454 48.4475 110.664C49.2788 110.81 50.0291 110.903 50.7367 110.938L25.7807 161.358L29.882 163.36C29.882 163.36 33.7698 155.505 35.7136 151.578C42.6429 137.579 56.5015 109.58 56.5015 109.58C57.3723 109.133 58.3191 108.569 59.4002 107.871C67.7076 102.506 77.0188 89.3248 78.5639 87.0899L83.3453 84.8666C86.5556 83.3741 88.9444 80.7538 90.072 77.4882C90.2436 76.9914 90.3782 76.4892 90.4841 75.9842L91.819 74.5878C94.4343 71.852 98.1621 65.1268 93.5535 59.2554C93.0196 58.5754 92.4397 57.9663 91.824 57.4307Z" fill="#FCC537"/>
</svg>
