<svg width="48" height="48" viewBox="0 0 48 48" fill="none" xmlns="http://www.w3.org/2000/svg">
<path fill-rule="evenodd" clip-rule="evenodd" d="M22.4295 6.41427C22.9962 6.36104 23.5586 6.33513 24.1173 6.33513C33.2638 6.33513 41.102 13.3222 41.9725 22.6077C42.4201 27.3807 40.9819 32.0421 37.9236 35.7335C34.8645 39.4244 30.5518 41.7035 25.7788 42.1511C21.0101 42.5986 16.3455 41.1608 12.6537 38.1016C8.96231 35.0434 6.68324 30.7301 6.23572 25.9576C5.31241 16.1049 12.5769 7.33807 22.4295 6.41427M9.21847 42.2477C13.443 45.748 18.6446 47.6155 24.0628 47.6155C24.7989 47.6155 25.5393 47.5813 26.282 47.5115C32.4862 46.9298 38.0931 43.967 42.0691 39.1684C46.0456 34.3693 47.9151 28.31 47.333 22.1053V22.1049C46.1321 9.29679 34.7373 -0.146401 21.9268 1.05348C9.11867 2.25431 -0.325954 13.6515 0.875355 26.4596C1.45653 32.6648 4.41988 38.2712 9.21847 42.2477" fill="#FCC537"/>
</svg>
