<svg width="114" height="114" viewBox="0 0 114 114" fill="none" xmlns="http://www.w3.org/2000/svg">
<ellipse cx="57.1756" cy="56.6819" rx="56.4583" ry="56.4727" fill="#2D2B2C"/>
<mask id="mask0_4605_1502" style="mask-type:alpha" maskUnits="userSpaceOnUse" x="0" y="0" width="114" height="114">
<ellipse cx="57.1756" cy="56.6819" rx="56.4583" ry="56.4727" fill="white"/>
</mask>
<g mask="url(#mask0_4605_1502)">
<path fill-rule="evenodd" clip-rule="evenodd" d="M75.5618 36.2135C76.9838 31.261 77.5979 25.3245 73.5848 22.8386C69.1203 20.0735 65.0214 21.1719 61.4013 26.102C58.2292 30.4212 54.4515 41.4383 51.1745 51.6458L50.985 52.235C50.7392 53 50.5154 53.749 50.3055 54.4868C49.7138 54.2783 48.846 53.7924 48.1038 52.9021C47.226 51.8483 46.3334 49.9736 47.066 47.0238L47.1099 46.8475L52.3583 -18.1975C52.5295 -20.2376 54.1918 -21.832 56.2247 -21.9063L81.8887 -22.8436C83.051 -22.8866 84.1435 -22.4412 84.9499 -21.5894C85.7559 -20.738 86.1457 -19.6235 86.0459 -18.4372L81.6785 37.9199C81.6749 37.9637 81.6757 38.0071 81.6749 38.0504C80.2273 37.1195 78.3037 36.2336 76.1826 36.1942C75.9724 36.1898 75.7657 36.1974 75.5618 36.2135M95.8925 12.7536C96.1015 14.2455 96.5297 17.2997 87.557 18.874L88.1215 11.5865C88.1834 11.5757 88.2448 11.564 88.3063 11.5476C89.8867 11.1291 93.664 10.609 95.2537 11.6729C95.6355 11.9279 95.8202 12.2411 95.8925 12.7536M92.7927 28.0602C93.2487 28.3438 93.4917 28.7028 93.6062 29.261C93.8149 30.2811 93.6864 31.0831 93.2008 31.7851C92.5034 32.7939 90.7286 34.1196 86.3041 35.0401L86.8711 27.7237C88.6115 27.3972 91.391 27.1883 92.7927 28.0602M90.828 -3.57959C90.8643 -3.5832 90.901 -3.58561 90.9373 -3.58882C92.5174 -3.72256 94.2044 -3.6326 95.1675 -3.01373C95.5825 -2.74707 95.8012 -2.40731 95.8993 -1.88563C95.954 -1.47881 95.9847 -1.11897 95.9975 -0.79448C95.9815 0.0693642 95.711 0.57739 95.478 0.905097C94.5539 2.20588 92.2788 3.22916 88.7129 3.95687L89.2803 -3.36312C89.7048 -3.44144 90.1808 -3.51212 90.682 -3.56433C90.7311 -3.56955 90.7789 -3.57517 90.828 -3.57959M102.761 39.526C100.476 39.2585 98.4934 39.5705 96.8228 40.1493C96.0419 39.3147 94.6694 38.3208 92.3277 37.7706C94.3514 36.8565 95.8361 35.7079 96.8036 34.3084C97.9903 32.5919 98.3609 30.5935 97.9049 28.3687C97.5478 26.6277 96.5782 25.2213 95.0999 24.3021C93.4293 23.2631 91.3234 22.9924 89.4521 23.0238C93.9185 22.1406 101.309 19.7672 100.238 12.1359C99.992 10.3793 99.1087 8.94683 97.6834 7.99343C96.9273 7.48781 96.0619 7.15529 95.1598 6.94405C98.3079 5.70671 100.456 3.56778 100.382 -0.747826C100.389 -1.30565 100.346 -1.88436 100.247 -2.48355C100.244 -2.50885 100.242 -2.53254 100.239 -2.55824C100.237 -2.57029 100.234 -2.58154 100.232 -2.59359C100.229 -2.61085 100.228 -2.62732 100.225 -2.64419C100.221 -2.66587 100.215 -2.68595 100.211 -2.70724C99.9386 -4.39517 99.0732 -5.77587 97.691 -6.70237C95.3413 -8.27785 91.9358 -8.19432 89.6312 -7.8887L90.4208 -18.0789C90.6235 -20.493 89.7876 -22.8833 88.1274 -24.6371C86.4671 -26.3909 84.1398 -27.3463 81.7294 -27.2583L56.0657 -26.321C51.8172 -26.1656 48.3435 -22.8335 47.9844 -18.5625L47.6488 -14.4047C47.2291 -14.9199 46.7595 -15.3886 46.232 -15.783C44.6599 -16.9577 42.775 -17.3565 40.78 -16.9364C33.5761 -15.4183 33.4628 -11.0999 33.3315 -6.09876C33.3056 -5.11765 33.2764 -4.00521 33.201 -2.81848C32.796 3.56698 29.4692 10.4797 25.4624 13.2612C22.9419 15.011 12.6908 18.2178 -5.00602 22.7924L-6.59204 23.2037C-7.7655 23.5097 -8.47013 24.7153 -8.1657 25.8964C-7.90954 26.8912 -7.01897 27.5514 -6.04302 27.551C-5.86067 27.551 -5.67554 27.5281 -5.4908 27.4799L-3.91435 27.0711C8.85485 23.7703 24.0172 19.6306 27.9546 16.8977C33.1244 13.309 37.0833 5.31676 37.5813 -2.53736C37.6619 -3.80602 37.6922 -4.96223 37.7189 -5.9819C37.8486 -10.9204 37.8721 -11.8103 41.6794 -12.6123C42.4511 -12.775 43.0472 -12.6597 43.6117 -12.2388C45.4487 -10.8694 46.459 -6.72004 46.6645 -4.42409C46.682 -4.22007 46.7291 -4.0261 46.797 -3.84297L42.7643 46.1363C42.5548 47.0299 42.4455 47.9094 42.4231 48.7676C39.1761 49.1467 31.3261 50.1515 24.2862 51.7395C15.418 53.7402 -10.357 60.5578 -10.616 60.6265C-11.7882 60.9369 -12.4885 62.1446 -12.1804 63.3245C-11.9211 64.316 -11.0321 64.9718 -10.0594 64.9718C-9.87462 64.9718 -9.68669 64.9485 -9.49995 64.8987C-9.2414 64.8305 16.4558 58.0334 25.2458 56.0507C32.1936 54.4828 40.1887 53.4756 43.1788 53.1282C43.6975 54.4093 44.474 55.5687 45.4986 56.5531C46.6194 57.6302 47.9565 58.3924 49.244 58.7647C46.9941 69.4392 48.45 76.8986 49.3821 81.6644L49.4778 82.156C50.2264 86.0089 51.0192 87.8394 51.6556 89.3105C52.3666 90.9526 52.8358 92.0374 52.9396 95.8895C53.0226 98.9835 53.5209 111.277 53.5421 111.799C53.5903 112.987 54.5627 113.918 55.7334 113.918C55.7633 113.918 55.794 113.917 55.8243 113.916C57.0353 113.866 57.9769 112.838 57.9275 111.619C57.9223 111.491 57.4092 98.8337 57.327 95.7702C57.2005 91.0595 56.4955 89.4318 55.6795 87.5462C55.0994 86.2057 54.4418 84.6868 53.785 81.3082L53.6885 80.8114C52.5924 75.207 50.9366 66.7381 55.1612 53.5949L55.3511 53.0041C57.1031 47.5463 61.7579 33.0489 64.9307 28.7277C67.7564 24.8796 69.5491 25.5257 71.2848 26.6008C73.4374 27.9341 71.6766 35.0184 69.4446 40.1958C66.911 43.5833 65.5982 48.0098 65.3796 48.7913C65.0508 49.9648 65.7291 51.1833 66.8946 51.5154C67.0941 51.572 67.2948 51.5989 67.4927 51.5989C68.4491 51.5989 69.3293 50.964 69.6034 49.9921C70.087 48.2765 70.9225 46.1966 71.9328 44.4307C72.4047 43.6408 73.0508 42.9066 73.2455 42.4737C74.15 41.3512 75.1212 40.6107 76.0684 40.6107C76.0796 40.6107 76.0912 40.6111 76.1023 40.6111C77.4569 40.6364 78.8869 41.4396 79.9148 42.1958C78.8179 43.152 78.0674 43.9364 77.8515 44.1673C77.0212 45.0548 77.0631 46.4508 77.9441 47.2873C78.3678 47.6897 78.9089 47.8889 79.4491 47.8889C80.0321 47.8889 80.6138 47.6568 81.0455 47.197C82.794 45.3347 87.2604 41.5765 89.9305 41.8444C91.1686 41.9693 92.024 42.2352 92.6105 42.5087C91.2619 43.6022 90.529 44.5906 90.4571 44.6898C89.7469 45.6709 89.9604 47.0383 90.93 47.7604C91.8991 48.4825 93.2705 48.2753 93.9947 47.3046C94.1168 47.1411 97.045 43.3038 102.254 43.9139C103.537 44.0641 104.911 45.2303 106.124 47.1982C109.088 52.0077 110.143 59.7245 108.475 64.4008C107.739 66.4626 107.259 66.4409 106.104 66.3891C105.971 66.3835 105.833 66.3774 105.692 66.3742C105.535 60.1197 104.523 54.3206 104.462 53.9776C104.249 52.7772 103.107 51.9784 101.916 52.1921C100.723 52.4061 99.9286 53.5535 100.141 54.7543C100.161 54.8667 102.117 66.0726 100.957 73.5119C99.7275 81.4021 97.7277 104.807 97.6431 105.8C97.5398 107.015 98.4348 108.085 99.6425 108.189C99.706 108.195 99.7694 108.197 99.8324 108.197C100.959 108.197 101.918 107.328 102.016 106.177C102.037 105.936 104.087 81.9351 105.294 74.1966C105.463 73.1103 105.572 71.9633 105.638 70.7914C105.728 70.7942 105.825 70.7987 105.91 70.8023C107.49 70.8726 110.777 71.0195 112.606 65.8931C114.704 60.0121 113.494 50.7772 109.854 44.8693C107.893 41.687 105.44 39.8392 102.761 39.526Z" fill="#FCC537"/>
</g>
</svg>
