<svg width="134" height="166" viewBox="0 0 134 166" fill="none" xmlns="http://www.w3.org/2000/svg">
<circle cx="67.0444" cy="98.7934" r="66.4077" fill="#2D2B2C"/>
<mask id="mask0_5247_2294" style="mask-type:alpha" maskUnits="userSpaceOnUse" x="0" y="32" width="134" height="134">
<circle cx="67.0444" cy="98.7934" r="66.4077" fill="white"/>
</mask>
<g mask="url(#mask0_5247_2294)">
<path fill-rule="evenodd" clip-rule="evenodd" d="M88.6709 74.7241C90.3435 68.9003 91.0658 61.9194 86.3454 58.9962C81.0943 55.7447 76.273 57.0363 72.0149 62.8337C68.2839 67.9128 63.8404 80.8681 59.986 92.8714L59.763 93.5642C59.4739 94.4638 59.2107 95.3446 58.9638 96.2121C58.2678 95.967 57.247 95.3956 56.3741 94.3486C55.3416 93.1094 54.2918 90.9049 55.1534 87.4362L55.2051 87.2289L61.3784 10.7408C61.5798 8.34178 63.5349 6.46693 65.9261 6.37957L96.1128 5.27733C97.4799 5.22679 98.7649 5.75052 99.7134 6.75217C100.661 7.75335 101.12 9.06385 101.003 10.4589L95.8655 76.7307C95.8613 76.7822 95.8622 76.8332 95.8613 76.8842C94.1586 75.7895 91.896 74.7477 89.4012 74.7014C89.1538 74.6962 88.9107 74.7052 88.6709 74.7241ZM112.584 47.1369C112.83 48.8914 113.334 52.4829 102.78 54.3341L103.444 45.7646C103.517 45.7518 103.589 45.7381 103.661 45.7188C105.52 45.2267 109.963 44.6151 111.833 45.8661C112.282 46.166 112.499 46.5343 112.584 47.1369ZM108.938 65.1364C109.475 65.4698 109.761 65.892 109.895 66.5485C110.141 67.748 109.99 68.6911 109.418 69.5166C108.598 70.7029 106.511 72.2618 101.306 73.3442L101.973 64.7407C104.02 64.3568 107.29 64.1112 108.938 65.1364ZM106.627 27.9304C106.67 27.9261 106.713 27.9233 106.756 27.9195C108.614 27.7622 110.599 27.868 111.732 28.5958C112.22 28.9093 112.477 29.3089 112.592 29.9223C112.657 30.4007 112.693 30.8239 112.708 31.2054C112.689 32.2213 112.371 32.8187 112.097 33.204C111.01 34.7337 108.334 35.937 104.14 36.7927L104.807 28.1849C105.306 28.0928 105.866 28.0097 106.456 27.9483C106.513 27.9422 106.57 27.9356 106.627 27.9304ZM120.663 78.6193C117.976 78.3048 115.644 78.6717 113.679 79.3522C112.76 78.3709 111.146 77.2021 108.391 76.5551C110.772 75.4802 112.518 74.1296 113.656 72.4838C115.052 70.4654 115.488 68.1154 114.951 65.4992C114.531 63.4519 113.391 61.7981 111.652 60.7171C109.687 59.4954 107.21 59.1771 105.009 59.2139C110.262 58.1754 118.956 55.3844 117.696 46.4107C117.406 44.345 116.367 42.6605 114.691 41.5394C113.802 40.9448 112.784 40.5538 111.723 40.3054C115.425 38.8504 117.953 36.3351 117.865 31.2603C117.874 30.6043 117.822 29.9238 117.707 29.2192C117.702 29.1895 117.701 29.1616 117.697 29.1314C117.695 29.1172 117.691 29.104 117.689 29.0898C117.685 29.0695 117.684 29.0502 117.68 29.0303C117.676 29.0048 117.668 28.9812 117.664 28.9562C117.343 26.9713 116.326 25.3477 114.7 24.2582C111.936 22.4056 107.93 22.5038 105.22 22.8632L106.148 10.8802C106.387 8.04149 105.404 5.23064 103.451 3.1683C101.498 1.10597 98.7605 -0.0175175 95.9254 0.085906L65.7391 1.18815C60.7419 1.37091 56.656 5.2892 56.2337 10.3116L55.839 15.2009C55.3452 14.5949 54.7929 14.0438 54.1724 13.5801C52.3233 12.1987 50.1063 11.7298 47.7597 12.2238C39.2863 14.0089 39.153 19.087 38.9986 24.968C38.9681 26.1217 38.9338 27.4299 38.8451 28.8254C38.3687 36.3342 34.4556 44.4631 29.7428 47.7339C26.7781 49.7915 14.7205 53.5625 -6.09499 58.9419L-7.96052 59.4255C-9.34077 59.7854 -10.1696 61.2031 -9.81149 62.592C-9.51019 63.7617 -8.46268 64.5381 -7.31474 64.5376C-7.10027 64.5376 -6.8825 64.5107 -6.66521 64.4541L-4.81095 63.9733C10.2085 60.0919 28.0429 55.2239 32.6741 52.0102C38.755 47.7901 43.4115 38.3918 43.9972 29.1559C44.092 27.6641 44.1277 26.3045 44.1591 25.1054C44.3117 19.2981 44.3394 18.2516 48.8175 17.3085C49.7252 17.1173 50.4264 17.2528 51.0904 17.7477C53.2512 19.3581 54.4395 24.2374 54.6812 26.9373C54.7018 27.1772 54.7572 27.4053 54.837 27.6206L50.0936 86.3926C49.8472 87.4434 49.7186 88.4776 49.6924 89.4868C45.8731 89.9326 36.6398 91.1142 28.3592 92.9815C17.9282 95.3342 -12.389 103.351 -12.6935 103.432C-14.0724 103.797 -14.896 105.217 -14.5337 106.605C-14.2287 107.771 -13.183 108.542 -12.0389 108.542C-11.8216 108.542 -11.6005 108.514 -11.3809 108.456C-11.0768 108.376 19.1489 100.383 29.4879 98.0511C37.6601 96.2074 47.0642 95.023 50.5812 94.6145C51.1913 96.121 52.1046 97.4844 53.3098 98.6419C54.6281 99.9085 56.2008 100.805 57.7153 101.243C55.0688 113.795 56.7813 122.567 57.8777 128.171L57.9903 128.749C58.8707 133.28 59.8033 135.432 60.5518 137.162C61.3881 139.093 61.94 140.369 62.0621 144.899C62.1597 148.537 62.7458 162.994 62.7707 163.607C62.8275 165.004 63.9712 166.099 65.3482 166.099C65.3834 166.099 65.4195 166.098 65.4552 166.096C66.8796 166.038 67.9871 164.828 67.929 163.395C67.9229 163.245 67.3193 148.361 67.2226 144.758C67.0739 139.219 66.2446 137.305 65.2848 135.088C64.6025 133.511 63.829 131.725 63.0565 127.752L62.943 127.168C61.6538 120.578 59.7061 110.619 64.6752 95.1633L64.8986 94.4686C66.9594 88.0507 72.4344 71.0028 76.1664 65.9213C79.49 61.3962 81.5987 62.1561 83.6402 63.4203C86.1721 64.9882 84.101 73.3187 81.4757 79.407C78.4956 83.3905 76.9515 88.5957 76.6943 89.5147C76.3076 90.8946 77.1054 92.3274 78.4763 92.718C78.711 92.7845 78.947 92.8162 79.1798 92.8162C80.3048 92.8162 81.3401 92.0695 81.6625 90.9267C82.2313 88.9092 83.214 86.4634 84.4023 84.3869C84.9574 83.4581 85.7174 82.5947 85.9464 82.0856C87.0103 80.7657 88.1526 79.8949 89.2668 79.8949C89.2799 79.8949 89.2935 79.8953 89.3067 79.8953C90.9 79.9251 92.582 80.8696 93.791 81.7588C92.5008 82.8833 91.618 83.8056 91.3641 84.0771C90.3875 85.1208 90.4368 86.7624 91.473 87.7461C91.9714 88.2193 92.6078 88.4535 93.2433 88.4535C93.9289 88.4535 94.6132 88.1805 95.121 87.6398C97.1775 85.45 102.431 81.0306 105.572 81.3456C107.028 81.4925 108.034 81.8051 108.724 82.1267C107.138 83.4127 106.276 84.5749 106.191 84.6915C105.356 85.8453 105.607 87.4533 106.747 88.3024C107.887 89.1515 109.5 88.9078 110.352 87.7664C110.496 87.5742 113.94 83.0618 120.067 83.7791C121.576 83.9558 123.193 85.3272 124.619 87.6412C128.105 93.2969 129.346 102.371 127.384 107.87C126.519 110.295 125.954 110.269 124.596 110.208C124.439 110.202 124.277 110.195 124.111 110.191C123.926 102.836 122.735 96.0166 122.664 95.6133C122.413 94.2018 121.071 93.2625 119.669 93.5137C118.266 93.7654 117.332 95.1146 117.582 96.5267C117.605 96.6589 119.905 109.836 118.542 118.584C117.095 127.863 114.743 155.386 114.644 156.552C114.522 157.982 115.575 159.24 116.995 159.362C117.07 159.369 117.145 159.372 117.219 159.372C118.544 159.372 119.672 158.35 119.787 156.996C119.811 156.712 122.223 128.489 123.642 119.389C123.841 118.112 123.97 116.763 124.047 115.385C124.154 115.388 124.268 115.394 124.367 115.398C126.226 115.481 130.092 115.653 132.243 109.625C134.71 102.709 133.288 91.85 129.006 84.9026C126.699 81.1605 123.814 78.9877 120.663 78.6193Z" fill="#FCC537"/>
</g>
<path fill-rule="evenodd" clip-rule="evenodd" d="M88.8015 74.6044C90.4693 68.7899 91.1894 61.8203 86.4828 58.9017C81.2469 55.6555 76.4396 56.945 72.1939 62.7331C68.4736 67.804 64.0431 80.7386 60.1998 92.7226L59.9775 93.4143C59.6893 94.3125 59.4267 95.1918 59.1806 96.058C58.4866 95.8133 57.4688 95.2428 56.5984 94.1975C55.5689 92.9603 54.5221 90.7593 55.3813 87.2962L55.4328 87.0892L61.5882 10.7237C61.789 8.32854 63.7384 6.45669 66.1227 6.36947L96.2218 5.26899C97.5849 5.21854 98.8662 5.74143 99.8119 6.74148C100.757 7.74105 101.214 9.04945 101.097 10.4423L95.9752 76.6078C95.971 76.6592 95.9719 76.7101 95.971 76.761C94.2732 75.6681 92.0172 74.628 89.5296 74.5818C89.283 74.5766 89.0406 74.5856 88.8015 74.6044ZM112.646 47.0614C112.891 48.813 113.393 52.3988 102.87 54.247L103.532 45.6913C103.604 45.6785 103.677 45.6648 103.749 45.6455C105.602 45.1542 110.032 44.5436 111.897 45.7926C112.344 46.092 112.561 46.4598 112.646 47.0614ZM109.01 65.0321C109.545 65.365 109.83 65.7865 109.964 66.4419C110.209 67.6395 110.058 68.581 109.489 69.4052C108.671 70.5896 106.589 72.146 101.4 73.2267L102.065 64.637C104.106 64.2536 107.366 64.0085 109.01 65.0321ZM106.706 27.8858C106.748 27.8815 106.791 27.8787 106.834 27.8749C108.687 27.7179 110.665 27.8235 111.795 28.5501C112.282 28.8632 112.538 29.2621 112.653 29.8745C112.717 30.3522 112.753 30.7746 112.768 31.1556C112.75 32.1698 112.432 32.7662 112.159 33.151C111.075 34.6781 108.407 35.8795 104.225 36.7339L104.891 28.1399C105.388 28.048 105.947 27.965 106.534 27.9037C106.592 27.8976 106.648 27.891 106.706 27.8858ZM120.7 78.4934C118.021 78.1794 115.695 78.5457 113.736 79.2252C112.82 78.2454 111.211 77.0784 108.464 76.4325C110.838 75.3594 112.579 74.0109 113.714 72.3677C115.105 70.3525 115.54 68.0064 115.005 65.3943C114.586 63.3503 113.449 61.6992 111.716 60.6199C109.756 59.4001 107.286 59.0824 105.092 59.1191C110.33 58.0823 118.998 55.2958 117.742 46.3364C117.453 44.2741 116.417 42.5922 114.746 41.4729C113.859 40.8793 112.844 40.4889 111.786 40.2409C115.478 38.7882 117.998 36.277 117.91 31.2103C117.919 30.5554 117.868 29.876 117.753 29.1725C117.748 29.1428 117.747 29.115 117.743 29.0848C117.74 29.0707 117.737 29.0575 117.735 29.0433C117.731 29.023 117.73 29.0037 117.726 28.9839C117.722 28.9584 117.714 28.9349 117.71 28.9099C117.39 26.9282 116.375 25.3072 114.754 24.2194C111.999 22.3698 108.005 22.4678 105.302 22.8266L106.228 10.8629C106.466 8.02872 105.485 5.22238 103.538 3.16335C101.591 1.10433 98.8614 -0.0173622 96.0345 0.0858955L65.9358 1.18637C60.9531 1.36884 56.8791 5.28084 56.4579 10.2952L56.0644 15.1766C55.5721 14.5717 55.0213 14.0214 54.4027 13.5584C52.559 12.1793 50.3484 11.7111 48.0086 12.2043C39.5597 13.9866 39.4268 19.0566 39.2729 24.9281C39.2425 26.08 39.2083 27.386 39.1199 28.7793C38.6449 36.2761 34.7431 44.3919 30.0439 47.6575C27.0879 49.7118 28.349 55.1355 32.9668 51.9269C39.03 47.7136 43.673 38.3304 44.257 29.1093C44.3516 27.6199 44.3871 26.2624 44.4185 25.0653C44.5706 19.2673 44.5982 18.2225 49.0634 17.2809C49.9684 17.0899 50.6675 17.2253 51.3297 17.7194C53.4841 19.3272 54.669 24.1987 54.91 26.8942C54.9305 27.1338 54.9858 27.3615 55.0653 27.5765L50.3357 86.2542C50.09 87.3033 49.9618 88.3359 49.9356 89.3435C46.1274 89.7886 36.9209 90.9682 28.6644 92.8325C18.2637 95.1815 4.65534 98.8031 4.35164 98.8837C2.9768 99.2482 2.15555 100.666 2.5168 102.051C2.82097 103.215 3.86357 103.985 5.00444 103.985C5.2211 103.985 5.4415 103.958 5.66051 103.9C5.96374 103.819 19.4809 100.222 29.7898 97.894C37.9383 96.0533 47.3151 94.8708 50.8219 94.463C51.4303 95.967 52.3409 97.3282 53.5426 98.4839C54.8571 99.7484 56.4252 100.643 57.9353 101.08C55.2965 113.613 57.004 122.37 58.0972 127.966L58.2095 128.543C59.0874 133.066 60.0172 135.215 60.7636 136.942C61.5975 138.87 62.1478 140.144 62.2694 144.666C62.3668 148.299 62.9512 162.732 62.976 163.345C63.0327 164.74 68.1773 164.564 68.1193 163.134C68.1132 162.984 67.5114 148.123 67.415 144.526C67.2667 138.996 66.4398 137.085 65.4829 134.871C64.8025 133.297 64.0313 131.514 63.261 127.547L63.1478 126.964C61.8623 120.384 59.9203 110.442 64.875 95.0108L65.0977 94.3173C67.1525 87.9096 72.6116 70.8891 76.3328 65.8158C79.6468 61.2979 81.7493 62.0565 83.7849 63.3187C86.3095 64.8841 84.2444 73.2013 81.6267 79.2798C78.6552 83.2569 77.1157 88.4537 76.8592 89.3713C76.4736 90.749 77.2692 92.1795 78.636 92.5694C78.87 92.6359 79.1054 92.6675 79.3375 92.6675C80.4592 92.6675 81.4915 91.9221 81.813 90.7811C82.3801 88.7668 83.36 86.3249 84.5449 84.2518C85.0983 83.3244 85.8561 82.4624 86.0844 81.9542C87.1453 80.6363 88.2843 79.7669 89.3952 79.7669C89.4083 79.7669 89.4219 79.7674 89.435 79.7674C91.0237 79.7971 92.7008 80.7401 93.9062 81.6279C92.6199 82.7505 91.7396 83.6714 91.4865 83.9425C90.5127 84.9845 90.5618 86.6234 91.595 87.6055C92.092 88.078 92.7265 88.3118 93.3601 88.3118C94.0438 88.3118 94.7261 88.0393 95.2324 87.4994C97.283 85.3131 102.521 80.9008 105.653 81.2153C107.105 81.362 108.108 81.6741 108.796 81.9952C107.214 83.2791 106.355 84.4394 106.27 84.5559C105.438 85.7077 105.688 87.3132 106.825 88.1609C107.962 89.0087 109.57 88.7654 110.419 87.6258C110.563 87.4339 113.997 82.9288 120.106 83.645C121.61 83.8213 123.222 85.1905 124.645 87.5009C128.121 93.1475 129.358 102.207 127.402 107.697C126.539 110.118 125.976 110.093 124.622 110.032C124.465 110.025 124.303 110.018 124.138 110.014C123.954 102.671 122.767 95.8628 122.695 95.4602C122.445 94.0509 121.107 93.1131 119.71 93.3639C118.31 93.6152 117.379 94.9623 117.628 96.3721C117.651 96.5041 119.945 109.66 118.585 118.394C117.143 127.658 116.813 133.706 116.714 134.871C116.592 136.298 117.642 137.554 119.059 137.677C119.133 137.683 119.207 137.686 119.281 137.686C120.603 137.686 121.728 136.666 121.842 135.314C121.866 135.031 122.256 128.283 123.671 119.198C123.869 117.923 123.998 116.576 124.075 115.2C124.181 115.204 124.295 115.209 124.393 115.213C126.247 115.296 130.102 115.468 132.247 109.449C134.707 102.545 133.289 91.7028 129.019 84.7666C126.719 81.0305 123.843 78.8612 120.7 78.4934Z" fill="#FCC537"/>
<path fill-rule="evenodd" clip-rule="evenodd" d="M90.7224 27.283C89.409 26.6439 87.7949 27.1297 87.1165 28.3679L82.0731 37.5797L72.3823 35.1621C71.1336 34.8506 69.8285 35.4231 69.2771 36.5236L63.712 47.6301C63.0808 48.8903 63.6526 50.3941 64.9889 50.9891C65.3583 51.1533 65.7471 51.2313 66.1301 51.2313C67.1335 51.2313 68.0951 50.6973 68.552 49.7853L73.1658 40.5772L82.7811 42.9765C83.9948 43.2793 85.2683 42.7466 85.844 41.6947L91.8733 30.6823C92.5512 29.4441 92.0359 27.9225 90.7224 27.283Z" fill="#FCC537"/>
</svg>
