<svg width="1440" height="800" viewBox="0 0 1440 800" fill="none" xmlns="http://www.w3.org/2000/svg">
<g clip-path="url(#clip0_4901_1416)">
<path d="M1533 14.9843C1502.08 0.46625 1460.16 -23.4207 1412.95 56.4287C1365.73 136.278 1343.85 136.3 1290.62 82.86C1237.4 29.4204 1203.17 34.6956 1182.49 122.833C1161.81 210.97 1119.5 254.421 1097.72 211.904C1075.95 169.387 1059.7 218.238 1034.28 166.387C1008.85 114.537 989.103 51.2796 949.884 122.833C910.666 194.386 898.161 122.833 877.097 122.833C856.033 122.833 844.889 205.785 830.648 253.496C816.407 301.206 775.275 307.42 757.69 324.012C740.106 340.604 746.699 446.379 706.29 440.157C665.881 433.935 669.998 462.971 646.621 479.563C623.243 496.155 613.248 479.171 588.064 422.854" stroke="#FF6036" stroke-width="24"/>
<path d="M617.619 476.826C616.858 475.747 588.846 423.807 588.063 422.854C548.243 374.392 541.908 498.317 498.371 610.201C483.207 649.168 444.08 646.837 406.408 625.631C368.736 604.425 356.612 689.533 341.973 724.507C328.583 756.498 296.044 735.309 294.729 733.87C279.313 716.998 269.02 695.702 251.021 675.127C233.022 654.552 219.045 629.451 191.285 657.844C163.525 686.238 159.171 562.931 136.652 562.931C114.133 562.931 109.018 637.804 96.7791 657.844C84.5407 677.884 71.0444 648.673 59.5781 670.796C48.1118 692.92 47.4616 786.232 18.8583 783.763C-9.74497 781.294 -6.83046 792.816 -23.3782 799.4C-39.926 805.984 -43.1355 756.604 -66.0001 737.675" stroke="#F9653E" stroke-width="24"/>
</g>
<defs>
<clipPath id="clip0_4901_1416">
<rect width="1599" height="800" fill="white" transform="translate(-66)"/>
</clipPath>
</defs>
</svg>
