<svg width="188" height="170" viewBox="0 0 188 170" fill="none" xmlns="http://www.w3.org/2000/svg">
<circle cx="121.132" cy="103.582" r="61.7853" stroke="#FCC537" stroke-width="9"/>
<circle cx="109.483" cy="94.4853" r="66.4077" fill="#2D2B2C"/>
<mask id="mask0_4763_933" style="mask-type:alpha" maskUnits="userSpaceOnUse" x="43" y="28" width="133" height="133">
<circle cx="109.483" cy="94.4853" r="66.4077" fill="white"/>
</mask>
<g mask="url(#mask0_4763_933)">
<path fill-rule="evenodd" clip-rule="evenodd" d="M49.2621 75.9852C48.6794 75.3802 43.2039 69.6902 39.5675 66.0184C40.1597 65.2197 41.043 64.3398 41.922 64.2518C45.6573 63.8788 47.7608 64.422 48.7473 66.0155C49.3739 67.0284 50.7524 68.6936 52.4161 70.5711C52.5882 71.3683 53.1278 72.0737 53.9327 72.4271C54.0116 72.4616 54.0909 72.4912 54.1708 72.517C55.8733 74.3773 57.6895 76.2936 59.2396 77.9057C57.5069 77.6896 55.9722 77.4806 54.8103 77.2993C53.3831 77.076 51.421 76.5997 49.2621 75.9852ZM25.3296 70.0637C25.0543 70.1737 24.7881 70.2957 24.5271 70.4234C24.0487 68.8313 23.8627 67.0356 24.9664 66.2173C28.2887 63.7559 32.0937 66.0887 33.2791 67.1958C34.1595 68.0179 36.1712 70.0523 38.314 72.2449C36.794 71.6247 35.5131 71.0369 34.6571 70.5429C31.9614 68.9868 28.4741 68.8074 25.3296 70.0637ZM63.8185 68.4961C66.0601 69.4578 66.9157 70.2889 69.1999 72.5113C70.1802 73.4644 71.3999 74.6514 73.0307 76.1277C74.5387 77.4925 75.8115 78.6254 76.8559 79.5326C74.5502 79.459 70.9554 79.1673 67.2278 78.7966C67.1035 78.5298 66.942 78.2759 66.723 78.0544C64.3834 75.6867 61.1911 72.3716 58.4739 69.4243C59.4838 68.3201 61.1887 67.3694 63.8185 68.4961ZM137.276 72.9771C133.616 71.6955 131.733 69.7682 129.126 67.1002C125.41 63.2982 120.786 58.5666 109.291 53.7757C104.525 51.7892 101.807 51.1909 99.4079 50.663C96.3313 49.9858 93.9013 49.4506 87.4278 45.5559C81.6033 42.051 77.349 42.6622 73.2041 47.5994C71.8333 49.2321 71.2698 51.3674 71.5747 53.7748C72.1817 58.5729 76.069 63.6349 79.5954 66.1552C82.2381 68.0442 84.8057 71.3311 86.2099 73.2899C84.8802 74.7595 83.4932 76.1373 82.2725 77.2229C81.5522 76.6485 79.9663 75.3123 76.5584 72.2268C74.9974 70.8136 73.8144 69.6635 72.8647 68.7391C70.4711 66.4115 69.0267 65.0065 65.8893 63.6612C61.1776 61.6407 57.4007 63.1519 54.9808 65.5129C54.1496 64.5359 53.5259 63.7444 53.2176 63.2466C50.0649 58.1511 43.5412 58.8034 41.399 59.0176C38.7884 59.2787 36.8927 60.9559 35.7127 62.4097C32.4032 60.0296 26.7575 58.3433 21.8369 61.9903C17.6672 65.0806 18.6561 70.5257 20.2998 74.1789C19.915 74.8116 19.6106 75.4859 19.4007 76.1942C17.7561 81.7474 19.8137 87.0906 24.9045 90.4861C28.0175 92.5625 32.5849 94.3856 39.3777 96.4965C39.4843 96.6854 39.6066 96.8676 39.7639 97.0316C40.2696 97.5581 52.2999 109.973 65.6876 113.113C70.2531 114.184 85.8084 114.899 93.7316 114.122C101.303 113.379 118.888 114.645 125.161 115.586C128.181 116.039 137.218 118.055 145.958 120.003C155.284 122.084 164.929 124.234 169.285 124.961C169.432 124.985 169.577 124.997 169.721 124.997C170.982 124.997 172.096 124.085 172.31 122.799C172.549 121.366 171.582 120.011 170.15 119.772C165.934 119.068 156.36 116.934 147.101 114.869C137.867 112.809 129.144 110.865 125.941 110.384C119.278 109.384 101.299 108.094 93.2193 108.886C85.3443 109.658 70.6355 108.87 66.8873 107.991C61.0667 106.626 55.3684 103.11 51.0586 99.8704C51.473 99.9842 51.9173 100.077 52.3166 100.216C63.8139 104.21 66.2311 105.405 66.2655 105.432H67.7897C69.8909 105.432 71.0079 102.951 69.6151 101.378C69.2289 101.05 68.7624 99.2654 53.7046 95.1421C40.1252 91.4234 31.9783 88.8826 27.821 86.1088C24.7042 84.0305 23.4725 80.9612 24.4418 77.6887C24.5723 77.2482 24.8127 76.8259 25.1387 76.4395C25.2558 76.3362 25.3585 76.2214 25.4532 76.1014C25.9397 75.6332 26.5621 75.2353 27.2785 74.9494C28.9155 74.2951 30.7361 74.3525 32.03 75.0995C36.5749 77.7231 48.8122 81.6857 53.9986 82.4968C57.7563 83.084 75.7091 85.2829 79.766 84.7033C83.6437 84.1491 89.2923 77.856 91.5407 75.1765L92.7771 73.7031L91.7486 72.0776C91.5736 71.8016 87.4154 65.2791 82.651 61.8746C80.1384 60.0788 77.1831 56.2185 76.7907 53.1139C76.6139 51.7165 77.077 51.1646 77.23 50.9829C79.8382 47.8754 81.3151 48.0164 84.7187 50.0637C91.9302 54.4032 94.8721 55.0507 98.2785 55.8006C100.462 56.2812 102.937 56.8259 107.269 58.6317C117.776 63.0108 121.808 67.1375 125.367 70.7782C128.118 73.5941 130.717 76.254 135.539 77.9426C146.396 81.7445 166.348 85.3814 173.782 86.4565C175.219 86.6645 176.553 85.6679 176.761 84.2299C176.968 82.7923 175.972 81.4581 174.535 81.2505C167.258 80.1979 147.773 76.6533 137.276 72.9771Z" fill="#FCC537"/>
</g>
<path fill-rule="evenodd" clip-rule="evenodd" d="M49.215 75.5568C48.6303 74.9653 43.135 69.4016 39.4856 65.8113C40.0799 65.0304 40.9664 64.17 41.8485 64.084C45.5973 63.7192 47.7083 64.2505 48.6984 65.8085C49.3273 66.7989 50.7107 68.4271 52.3805 70.263C52.5532 71.0425 53.0947 71.7322 53.9025 72.0778C53.9817 72.1114 54.0613 72.1404 54.1414 72.1657C55.85 73.9847 57.6728 75.8584 59.2284 77.4347C57.4896 77.2234 55.9493 77.019 54.7832 76.8418C53.3509 76.6234 51.3818 76.1577 49.215 75.5568ZM25.426 69.8495C25.1469 69.9604 24.877 70.0835 24.6125 70.2123C24.1275 68.6059 23.939 66.794 25.0577 65.9684C28.4256 63.4848 32.2828 65.8386 33.4844 66.9557C34.3768 67.7851 36.4161 69.8379 38.5882 72.0503C37.0475 71.4245 35.749 70.8314 34.8812 70.333C32.1486 68.7628 28.6136 68.5818 25.426 69.8495ZM64.4468 68.0752C66.6356 69.0472 67.4709 69.8872 69.7012 72.1333C70.6584 73.0965 71.8493 74.2962 73.4416 75.7882C74.914 77.1676 76.1568 78.3126 77.1765 79.2295C74.9252 79.1551 71.4153 78.8603 67.7757 78.4857C67.6543 78.216 67.4966 77.9593 67.2829 77.7355C64.9985 75.3426 61.8815 71.9921 59.2284 69.0134C60.2145 67.8974 61.8792 66.9365 64.4468 68.0752ZM137.585 73.1088C133.915 71.8214 132.027 69.8856 129.413 67.2057C125.688 63.3869 121.052 58.6343 109.527 53.8221C104.748 51.8267 102.023 51.2258 99.618 50.6955C96.5334 50.0153 94.0971 49.4778 87.6067 45.5658C81.767 42.0453 77.5016 42.6592 73.3459 47.6184C71.9715 49.2583 71.4065 51.4031 71.7122 53.8212C72.3208 58.6405 76.2182 63.7251 79.7538 66.2565C82.4034 68.1539 84.9777 71.4554 86.3856 73.4229C85.0525 74.8991 83.6618 76.283 82.4379 77.3734C81.7157 76.7964 80.1257 75.4543 76.7089 72.3551C75.1438 70.9357 73.9578 69.7804 73.0056 68.8519C70.6057 66.514 69.1576 65.1027 66.012 63.7515C61.288 61.722 57.5013 63.2399 55.075 65.6114C54.2417 64.6301 53.6163 63.8351 53.3072 63.335C50.1464 58.2169 43.6056 58.8721 41.4578 59.0873C38.8404 59.3495 36.9398 61.0341 35.7566 62.4944C32.4386 60.1037 26.7782 58.41 21.8447 62.0731C17.6641 65.1772 18.6556 70.6465 20.3036 74.3159C19.9178 74.9514 19.6126 75.6287 19.4022 76.3401C17.7532 81.918 19.8162 87.285 24.9203 90.6955C28.0414 92.7812 32.6207 94.6123 39.4312 96.7325C39.5381 96.9223 39.6608 97.1053 39.8184 97.2701C40.3254 97.7989 52.3871 110.269 65.8098 113.422C70.3872 114.498 85.9831 115.217 93.9269 114.436C101.518 113.69 119.149 114.961 125.438 115.907C128.466 116.362 137.527 118.386 146.289 120.344C155.64 122.433 160.307 123.333 164.675 124.063C164.822 124.088 164.968 124.1 165.112 124.1C166.377 124.1 167.493 123.184 167.708 121.891C167.948 120.452 166.111 120.064 164.675 119.824C160.448 119.118 156.718 117.26 147.436 115.187C138.177 113.118 129.432 111.165 126.22 110.682C119.54 109.677 101.514 108.381 93.4132 109.177C85.5178 109.953 70.7706 109.161 67.0126 108.278C61.1768 106.907 55.4637 103.376 51.1426 100.121C51.5581 100.236 52.0035 100.329 52.4039 100.468C63.9312 104.481 66.3547 105.681 66.3892 105.707H67.9118C70.0222 105.707 71.145 103.217 69.7475 101.636C69.3603 101.306 68.8926 99.5138 53.7955 95.3722C40.1807 91.637 32.0126 89.0848 27.8444 86.2988C24.7195 84.2112 23.4846 81.1283 24.4564 77.8412C24.5872 77.3988 24.8283 76.9747 25.1551 76.5865C25.2725 76.4828 25.3755 76.3675 25.4704 76.2469C25.9583 75.7767 26.5822 75.377 27.3005 75.0898C28.9418 74.4326 30.7671 74.4903 32.0643 75.2406C36.6211 77.8758 48.8903 81.856 54.0902 82.6707C57.8578 83.2606 75.8574 85.4692 79.9249 84.887C83.8128 84.3303 89.476 78.0093 91.7302 75.3179L92.97 73.838L91.9387 72.2052C91.7633 71.9281 87.5942 65.3765 82.8174 61.9569C80.2982 60.1532 77.3353 56.2758 76.9418 53.1573C76.7645 51.7537 77.2289 51.1994 77.3822 51.0169C79.9973 47.8955 81.478 48.0372 84.8905 50.0936C92.1208 54.4523 95.0703 55.1027 98.4857 55.8559C100.675 56.3387 103.156 56.8858 107.499 58.6996C118.034 63.0982 122.077 67.2432 125.644 70.9001C128.403 73.7284 131.009 76.4002 135.843 78.0963C146.729 81.9151 161.844 84.3645 169.298 85.4444C170.738 85.6533 172.076 84.6523 172.284 83.2078C172.492 81.7639 170.738 81.6296 169.298 81.4211C162.002 80.3638 148.109 76.8013 137.585 73.1088Z" fill="#FCC537"/>
<path fill-rule="evenodd" clip-rule="evenodd" d="M37.8104 11.1062C38.3771 11.0529 38.9396 11.027 39.4983 11.027C48.6447 11.027 56.483 18.0141 57.3535 27.2996C57.8011 32.0726 56.3629 36.734 53.3046 40.4254C50.2455 44.1163 45.9327 46.3954 41.1598 46.843C36.3911 47.2905 31.7265 45.8527 28.0347 42.7935C24.3433 39.7353 22.0642 35.422 21.6167 30.6495C20.6934 20.7968 27.9579 12.03 37.8104 11.1062ZM24.5994 46.9396C28.824 50.4399 34.0255 52.3074 39.4438 52.3074C40.1799 52.3074 40.9202 52.2732 41.663 52.2034C47.8672 51.6217 53.4741 48.6589 57.4501 43.8603C61.4266 39.0612 63.2961 33.0019 62.7139 26.7972V26.7968C61.5131 13.9887 50.1182 4.54549 37.3078 5.74538C24.4997 6.94621 15.055 18.3434 16.2563 31.1515C16.8375 37.3567 19.8009 42.9631 24.5994 46.9396Z" fill="#FCC537"/>
<path fill-rule="evenodd" clip-rule="evenodd" d="M31.7986 27.0488C32.1815 27.7189 32.6953 28.292 33.3402 28.7687C33.985 29.2454 34.7374 29.6469 35.5982 29.9744C36.4586 30.3018 37.3926 30.6174 38.4012 30.9206C39.4093 31.2247 40.1278 31.5797 40.5556 31.987C40.9844 32.3948 41.2353 32.9874 41.3084 33.7659C41.3744 34.4649 41.2329 35.0324 40.8845 35.4672C40.535 35.9025 40.0236 36.1511 39.3505 36.2138C38.4285 36.2998 37.6895 36.0731 37.1341 35.5337C36.5786 34.9943 36.2478 34.1627 36.1417 33.0397L31.1327 33.5064C31.3254 35.5456 32.0572 37.1348 33.3292 38.2735C34.4482 39.2758 35.9204 39.8456 37.7445 39.9853L37.9686 42.3653C38.0671 43.4099 39.0073 44.1845 40.058 44.0866L40.6823 44.0287C41.7324 43.9303 42.5116 42.996 42.4131 41.9514L42.1794 39.4716C43.3906 39.0567 44.3614 38.4137 45.0913 37.5426C46.066 36.3782 46.4737 34.954 46.315 33.2692C46.2209 32.2741 45.9718 31.4377 45.5689 30.7595C45.165 30.0818 44.6401 29.5044 43.9958 29.0282C43.3509 28.5515 42.6005 28.1419 41.7434 27.7992C40.8864 27.4566 39.9782 27.1339 39.0202 26.8307C38.0623 26.5275 37.3544 26.1806 36.8979 25.7909C36.4414 25.4012 36.1785 24.8418 36.1102 24.1123C36.0418 23.3937 36.1699 22.8125 36.4926 22.3696C36.8157 21.9276 37.3052 21.6758 37.9586 21.6144C38.6923 21.5465 39.2827 21.7699 39.7315 22.2845C40.1794 22.7992 40.4523 23.5691 40.5484 24.5933L45.5727 24.1251C45.3963 22.2536 44.7328 20.7571 43.5823 19.637C42.6602 18.7388 41.5135 18.1756 40.1488 17.9351L39.9739 16.0808C39.8754 15.0362 38.9356 14.262 37.885 14.3599L37.2607 14.4179C36.2101 14.5158 35.4309 15.4506 35.5294 16.4947L35.6934 18.2307C34.322 18.6447 33.2173 19.3243 32.3894 20.2776C31.3617 21.4619 30.9258 22.8862 31.083 24.5514C31.1767 25.5466 31.4152 26.3787 31.7986 27.0488Z" fill="#FCC537"/>
<path fill-rule="evenodd" clip-rule="evenodd" d="M12.6714 4.9752L18.1547 8.83675C18.6453 9.18236 19.2098 9.34793 19.7692 9.34793C20.6371 9.34793 21.4924 8.94846 22.0357 8.19939C22.9284 6.96657 22.6391 5.25349 21.3887 4.37276L15.9059 0.511212C14.6541 -0.369518 12.9172 -0.0837543 12.025 1.14907C11.1318 2.38139 11.4211 4.09447 12.6714 4.9752Z" fill="#FCC537"/>
<path fill-rule="evenodd" clip-rule="evenodd" d="M13.2329 12.4994L4.1169 6.11521C2.92939 5.28268 1.29537 5.57891 0.469069 6.77634C-0.357233 7.97377 -0.0632141 9.61963 1.12573 10.4517L10.2417 16.8359C10.6973 17.1556 11.2186 17.3088 11.7347 17.3088C12.5643 17.3088 13.3802 16.9132 13.8896 16.1747C14.7154 14.9773 14.4218 13.3319 13.2329 12.4994Z" fill="#FCC537"/>
</svg>
