<svg width="144" height="225" viewBox="0 0 144 225" fill="none" xmlns="http://www.w3.org/2000/svg">
<circle cx="77.3635" cy="158.065" r="61.7853" stroke="#FCC537" stroke-width="9"/>
<circle cx="66.4077" cy="148.968" r="66.4077" fill="#2D2B2C"/>
<mask id="mask0_4763_932" style="mask-type:alpha" maskUnits="userSpaceOnUse" x="0" y="82" width="133" height="134">
<circle cx="66.4077" cy="148.968" r="66.4077" fill="white"/>
</mask>
<g mask="url(#mask0_4763_932)">
<path fill-rule="evenodd" clip-rule="evenodd" d="M115.499 103.843C114.093 101.74 112.023 99.4745 109.278 98.5744C108.154 98.2057 104.53 96.8243 105.069 94.5165C105.172 94.0774 106.025 93.2735 107.53 92.9432C107.8 92.884 108.253 92.8102 108.829 92.8102C110.376 92.8102 112.808 93.342 114.973 96.1146C117.051 98.7755 116.503 101.675 115.499 103.843ZM110.054 112.559C109.209 115.02 107.404 117.001 104.97 118.138L81.6663 129.03C76.6597 131.37 70.6085 129.409 68.1775 124.658L31.8365 53.6446C30.7122 51.4481 30.5356 48.949 31.3398 46.6072C32.1848 44.147 33.9902 42.1652 36.4233 41.028L59.7278 30.1363C64.734 27.7965 70.7851 29.7574 73.2167 34.5085L87.0656 61.5709C85.878 62.574 85.0524 63.8549 84.6934 65.2931C84.1699 67.3906 84.4881 69.5006 85.5881 71.2352C86.4462 72.588 88.1952 74.3459 91.6567 75.0376C92.7231 75.2508 93.5268 75.5306 94.1238 75.8021C93.8455 76.2475 93.5954 76.7182 93.3901 77.2258C92.0873 80.4453 91.8148 84.8704 97.9137 87.6687C99.6845 88.4814 101.199 89.1371 102.321 89.6151C101.07 90.6142 100.188 91.8908 99.8577 93.3018C98.8118 97.7745 101.781 101.74 107.608 103.651C108.436 103.923 109.217 104.561 109.912 105.341L109.558 105.522C110.682 107.719 110.858 110.218 110.054 112.559ZM48.1942 99.2575C48.1689 99.325 48.1363 99.4017 48.0974 99.4843C47.8775 98.5376 47.6464 97.2528 47.408 95.817L48.725 98.3899C48.5002 98.6357 48.3173 98.9262 48.1942 99.2575ZM90.6962 48.5467C93.0299 45.201 94.0754 45.6585 94.9979 46.0637C96.7726 46.8418 96.2482 48.6502 96.0453 49.1855C94.7945 52.4861 92.6782 56.5862 91.5787 58.6462L88.3853 52.4059C88.864 51.4704 89.6512 50.0448 90.6962 48.5467ZM108.915 73.3019C105.182 71.5727 101.546 71.1977 98.5685 72.2576C97.4602 71.3983 95.6178 70.3802 92.7071 69.7983C91.4368 69.5442 90.5382 69.0527 90.1091 68.376C89.7117 67.7499 89.7686 67.0563 89.8863 66.5846C89.9569 66.3014 90.2006 65.7574 91.0398 65.2945C92.2527 64.6256 95.2846 63.83 101.966 66.0212C106.719 67.5794 108.39 70.7139 108.915 73.3019ZM108.176 87.4725C107.706 86.6434 107.009 85.8021 105.992 85.3668L105.36 85.0987C104.257 84.6324 102.411 83.8518 100.149 82.8138C98.0595 81.8554 97.5394 81.2356 98.3519 79.2271C98.7372 78.2751 99.3871 77.6441 100.338 77.2982C102.14 76.6425 104.742 77.0986 107.474 78.548C111.957 80.9262 113.615 84.0981 112.438 87.9908C111.059 87.56 109.624 87.3807 108.176 87.4725ZM119.194 92.8292C118.568 92.0287 117.889 91.3118 117.168 90.6813C119.171 85.5291 118.165 80.7154 114.419 77.017C114.883 72.1581 113.169 64.071 103.636 60.9448C101.308 60.1813 99.1665 59.68 97.2108 59.4303C98.4066 57.1124 99.9863 53.8846 101.051 51.0766C102.594 47.0051 100.954 42.8394 97.1505 41.1714C91.1543 38.5416 87.504 43.7744 86.3048 45.4935C86.0114 45.9136 85.738 46.3275 85.4807 46.7302L77.9821 32.0774C74.2541 24.7927 65.0479 21.7501 57.4594 25.2969L34.1543 36.1891C30.3951 37.9461 27.5977 41.0305 26.2773 44.8746C24.9988 48.5988 25.2805 52.577 27.0708 56.0758L38.0843 77.5969C37.4051 77.2875 36.673 77.015 35.878 76.7906C32.3051 75.7822 29.1968 76.3073 27.3515 78.2313C25.2226 80.4511 24.9929 83.966 26.6495 88.9773C28.5488 94.7226 28.1353 96.7181 27.3851 100.341C26.8489 102.929 26.1819 106.149 26.1061 111.498C26.0185 117.66 26.956 122.514 28.2788 126.282C28.8957 129.84 29.858 138.488 26.2875 145.316C23.3986 150.841 10.0971 181.366 6.18122 190.376C5.59303 191.731 6.21819 193.301 7.57505 193.888C8.93046 194.474 10.5033 193.856 11.091 192.503C14.968 183.586 28.2613 153.087 31.0314 147.789C33.0203 143.985 33.8648 139.824 34.129 136.027C35.0733 136.969 35.7428 137.428 35.8444 137.495C36.3018 137.798 36.8199 137.943 37.3331 137.943C38.2006 137.943 39.0525 137.527 39.5657 136.754C40.383 135.525 40.06 133.876 38.8282 133.06C38.6311 132.922 35.6114 130.738 33.4975 125.05C33.3165 124.06 33.1657 123.443 33.1375 123.332L32.9376 123.382C32.0195 120.337 31.3876 116.458 31.4571 111.574C31.5262 106.734 32.1105 103.912 32.6257 101.422C33.4377 97.502 34.0794 94.405 31.7315 87.3025C30.5819 83.8246 30.8923 82.2649 31.2168 81.9263C31.5505 81.579 32.8407 81.4858 34.4229 81.9322C36.0974 82.4048 40.0191 83.5113 41.2539 91.2171C41.3891 92.0642 41.5151 92.8613 41.6334 93.6098C42.2376 97.4321 42.637 99.957 43.1581 101.719C43.9759 104.485 45.4699 105.897 47.5984 105.914C49.3586 105.939 50.6566 105.002 51.5649 103.939L63.4118 127.089C66.0837 132.31 71.5671 135.351 77.2538 135.351C79.5025 135.351 81.7847 134.875 83.935 133.87L91.4258 130.369C87.2185 135.676 81.4543 142.221 76.2823 145.578C71.7636 148.511 70.524 148.667 67.1871 148.062C65.6551 147.783 64.1863 148.871 64.0423 150.457C63.9148 151.863 64.9817 153.098 66.3736 153.345C67.3471 153.517 68.2258 153.626 69.0543 153.668L39.8304 213.02L44.6332 215.376L75.805 152.069C76.8247 151.543 77.9335 150.879 79.1994 150.058C88.9275 143.742 99.8311 128.226 101.64 125.595L107.24 122.978C110.999 121.221 113.796 118.136 115.117 114.292C115.318 113.707 115.475 113.116 115.599 112.522L117.162 110.878C120.225 107.657 124.59 99.7408 119.194 92.8292Z" fill="#FCC537"/>
<path fill-rule="evenodd" clip-rule="evenodd" d="M78.9381 75.8151C78.1976 75.2603 77.3715 74.8662 76.4584 74.6329C75.5458 74.3995 74.5471 74.285 73.4624 74.2879C72.3778 74.2917 71.2471 74.3384 70.0696 74.4279C68.8925 74.5174 67.9696 74.4515 67.2995 74.2301C66.6298 74.0083 66.096 73.5199 65.6972 72.7645C65.3042 72.0192 65.1849 71.3384 65.3403 70.7211C65.4953 70.1042 65.9152 69.6202 66.6 69.2709C67.3669 68.8787 68.109 68.8624 68.8256 69.2218C69.5417 69.5822 70.1801 70.2924 70.7402 71.3543L75.9979 68.6675C74.9753 66.7275 73.589 65.4043 71.8401 64.6975C70.4377 64.1307 68.9395 64.0219 67.3484 64.3558L66.3825 62.5251C65.7856 61.3934 64.3568 60.9478 63.2071 61.5353L62.7364 61.7764C61.5867 62.3634 61.1341 63.7703 61.7309 64.902L62.6318 66.6101C61.3242 67.6522 60.4243 68.8633 59.9473 70.25C59.3548 71.9721 59.5132 73.6956 60.4229 75.421C60.9669 76.4521 61.5955 77.2451 62.3097 77.8003C63.0238 78.3556 63.8377 78.7496 64.7508 78.983C65.6639 79.2164 66.6611 79.3227 67.7423 79.301C68.8241 79.2799 69.9806 79.2135 71.2119 79.1023C72.4437 78.9917 73.3832 79.0619 74.0299 79.3145C74.6766 79.5676 75.2129 80.0974 75.6381 80.9033C76.0204 81.6284 76.1182 82.301 75.9324 82.9213C75.7457 83.541 75.2999 84.0313 74.594 84.3917C73.6301 84.8844 72.7258 84.9614 71.8811 84.6212C71.0374 84.2815 70.3086 83.5299 69.6947 82.366L64.4522 85.0451C65.5666 87.1583 67.0688 88.5517 68.958 89.2258C70.62 89.8186 72.4745 89.7931 74.5207 89.1517L75.774 91.5287C76.3709 92.6603 77.8002 93.1054 78.9498 92.5179L79.4206 92.2773C80.5703 91.6898 81.0224 90.2834 80.4256 89.1517L79.118 86.6719C80.252 85.6985 81.0229 84.5841 81.4296 83.3288C81.9736 81.651 81.785 79.9395 80.864 78.1939C80.3205 77.1628 79.6787 76.3703 78.9381 75.8151Z" fill="#FCC537"/>
</g>
<path fill-rule="evenodd" clip-rule="evenodd" d="M114.917 104.084C113.515 101.986 111.451 99.7252 108.713 98.8271C107.592 98.4592 103.977 97.0807 104.515 94.778C104.618 94.3398 105.469 93.5377 106.969 93.2081C107.239 93.1489 107.69 93.0753 108.265 93.0753C109.807 93.0753 112.233 93.606 114.392 96.3726C116.465 99.0277 115.918 101.921 114.917 104.084ZM109.487 112.781C108.644 115.237 106.844 117.214 104.417 118.348L81.1751 129.217C76.1819 131.552 70.147 129.594 67.7224 124.854L31.4789 53.9941C30.3576 51.8024 30.1815 49.3087 30.9835 46.972C31.8263 44.517 33.6269 42.5395 36.0534 41.4048L59.2954 30.5367C64.2882 28.2019 70.3231 30.1586 72.7481 34.8993L86.5598 61.9033C85.3755 62.9042 84.5521 64.1823 84.194 65.6175C83.6719 67.7104 83.9893 69.8158 85.0863 71.5467C85.9422 72.8965 87.6865 74.6506 91.1387 75.3408C92.2022 75.5536 93.0038 75.8328 93.5991 76.1037C93.3216 76.5482 93.0722 77.0178 92.8675 77.5243C91.5681 80.7369 91.2964 85.1524 97.3789 87.9447C99.145 88.7555 100.655 89.4099 101.775 89.8868C100.526 90.8838 99.6467 92.1576 99.3177 93.5656C98.2745 98.0286 101.236 101.986 107.047 103.892C107.873 104.163 108.652 104.801 109.345 105.579L108.992 105.759C110.113 107.951 110.289 110.445 109.487 112.781ZM47.7929 99.5083C47.7677 99.5757 47.7352 99.6523 47.6964 99.7347C47.4771 98.79 47.2466 97.508 47.0088 96.0753L48.3223 98.6427C48.0981 98.8879 47.9157 99.1778 47.7929 99.5083ZM90.1812 48.9073C92.5087 45.5688 93.5514 46.0254 94.4714 46.4296C96.2414 47.2061 95.7183 49.0106 95.516 49.5447C94.2686 52.8381 92.1579 56.9294 91.0614 58.985L87.8765 52.7582C88.354 51.8247 89.139 50.4021 90.1812 48.9073ZM108.351 73.6091C104.628 71.8836 101.002 71.5094 98.0323 72.567C96.927 71.7096 95.0896 70.6937 92.1866 70.113C90.9197 69.8595 90.0236 69.369 89.5956 68.6938C89.1992 68.0691 89.256 67.3769 89.3734 66.9063C89.4438 66.6237 89.6869 66.0809 90.5238 65.619C91.7334 64.9516 94.7572 64.1576 101.421 66.3441C106.161 67.899 107.828 71.0267 108.351 73.6091ZM107.614 87.749C107.145 86.9216 106.45 86.0821 105.436 85.6478L104.806 85.3803C103.706 84.915 101.864 84.1361 99.6081 83.1003C97.5247 82.144 97.006 81.5256 97.8163 79.5214C98.2006 78.5714 98.8488 77.9418 99.7974 77.5967C101.595 76.9423 104.189 77.3975 106.914 78.8438C111.385 81.2168 113.039 84.3818 111.864 88.2661C110.489 87.8362 109.058 87.6573 107.614 87.749ZM116.582 90.9508C118.58 85.8097 117.576 81.0064 113.841 77.316C114.303 72.4677 112.594 64.3981 103.086 61.2786C100.764 60.5167 98.6286 60.0165 96.6781 59.7674C97.8707 57.4544 99.4462 54.2337 100.508 51.4317C102.047 47.369 100.411 43.2123 96.618 41.5479C90.6379 38.9238 86.9974 44.1453 85.8014 45.8607C85.5088 46.2799 85.2361 46.6929 84.9794 47.0947L77.501 32.4736C73.783 25.2047 64.6015 22.1686 57.0333 25.7078L33.7908 36.5764C30.0416 38.3296 27.2517 41.4073 25.9349 45.2432C24.6598 48.9593 24.9407 52.9289 26.7262 56.4201L37.7102 77.8947C37.0329 77.586 36.3027 77.3141 35.5098 77.0901C31.9465 76.0839 28.8466 76.6079 27.0062 78.5277C24.883 80.7427 24.654 84.25 26.3061 89.2505C28.2003 94.9834 27.7879 96.9745 27.0397 100.589C26.505 103.172 25.8398 106.385 25.7641 111.723C25.6768 117.871 26.6117 122.715 27.931 126.475C28.5462 130.025 29.506 138.654 25.9451 145.468C23.064 150.98 13.9976 171.666 10.0922 180.657C9.50564 182.009 10.1291 183.576 11.4823 184.161C12.8341 184.746 14.4028 184.129 14.9889 182.779C18.8555 173.881 27.9135 153.222 30.6763 147.935C32.6598 144.14 33.5021 139.987 33.7655 136.198C34.7073 137.139 35.3749 137.596 35.4764 137.663C35.9324 137.966 36.4492 138.111 36.9611 138.111C37.8262 138.111 38.6758 137.695 39.1877 136.924C40.0028 135.698 39.6806 134.052 38.4521 133.237C38.2556 133.1 35.2439 130.921 33.1357 125.245C32.9553 124.257 32.8048 123.642 32.7767 123.531L32.5773 123.581C31.6617 120.542 31.0314 116.672 31.1008 111.798C31.1697 106.968 31.7524 104.153 32.2663 101.669C33.0761 97.7568 33.716 94.6664 31.3745 87.5793C30.2279 84.1089 30.5375 82.5526 30.8611 82.2147C31.194 81.8682 32.4807 81.7751 34.0586 82.2206C35.7287 82.6922 39.6399 83.7963 40.8713 91.4854C41.0062 92.3307 41.1319 93.1261 41.2498 93.873C41.8524 97.687 42.2507 100.206 42.7704 101.964C43.586 104.725 45.0761 106.133 47.1988 106.151C48.9543 106.175 50.2488 105.24 51.1546 104.18L62.9698 127.28C65.6345 132.489 71.1032 135.524 76.7747 135.524C79.0173 135.524 81.2934 135.049 83.438 134.046L90.9086 130.552C86.7126 135.848 80.9639 142.379 75.8058 145.728C71.2992 148.655 70.0629 148.811 66.7349 148.207C65.207 147.929 63.7422 149.015 63.5986 150.597C63.4715 152 64.5355 153.232 65.9237 153.479C66.8946 153.65 67.7708 153.76 68.5971 153.801L39.4516 213.025L44.2415 215.376C44.2415 215.376 48.7819 206.15 51.0521 201.537C59.1446 185.093 75.3298 152.205 75.3298 152.205C76.3468 151.681 77.4525 151.018 78.715 150.199C88.4171 143.897 99.2914 128.414 101.096 125.789L106.68 123.177C110.429 121.424 113.219 118.346 114.536 114.511C114.736 113.927 114.894 113.337 115.017 112.744L116.576 111.104C119.631 107.89 123.984 99.9907 118.602 93.0941C117.978 92.2953 117.301 91.5799 116.582 90.9508Z" fill="#FCC537"/>
<path fill-rule="evenodd" clip-rule="evenodd" d="M78.8313 75.5197C78.0808 74.9665 77.2435 74.5736 76.3181 74.3409C75.3931 74.1082 74.381 73.994 73.2816 73.9969C72.1823 74.0008 71.0364 74.0473 69.8429 74.1365C68.65 74.2258 67.7146 74.16 67.0354 73.9394C66.3567 73.7182 65.8157 73.2312 65.4114 72.478C65.0131 71.7349 64.8922 71.0561 65.0498 70.4405C65.2068 69.8255 65.6324 69.3429 66.3265 68.9946C67.1038 68.6036 67.8558 68.5873 68.5821 68.9456C69.3079 69.305 69.9549 70.0131 70.5227 71.0719L75.8514 68.393C74.815 66.4586 73.41 65.1393 71.6374 64.4345C70.216 63.8694 68.6975 63.761 67.085 64.0939L66.106 62.2685C65.5011 61.1401 64.053 60.6958 62.8878 61.2816L62.4107 61.522C61.2455 62.1073 60.7867 63.5101 61.3916 64.6384L62.3047 66.3416C60.9794 67.3807 60.0674 68.5882 59.5838 69.9709C58.9834 71.6879 59.1439 73.4064 60.0659 75.1267C60.6173 76.1548 61.2544 76.9455 61.9782 77.4991C62.702 78.0527 63.5269 78.4457 64.4523 78.6783C65.3777 78.911 66.3884 79.017 67.4843 78.9954C68.5806 78.9743 69.7528 78.9081 71.0007 78.7973C72.2492 78.687 73.2014 78.757 73.8568 79.0089C74.5123 79.2612 75.0557 79.7894 75.4867 80.593C75.8742 81.316 75.9733 81.9867 75.785 82.6051C75.5957 83.223 75.1439 83.7119 74.4285 84.0712C73.4516 84.5625 72.535 84.6392 71.679 84.3C70.8239 83.9613 70.0852 83.212 69.463 82.0515L64.1496 84.7227C65.2792 86.8298 66.8016 88.2191 68.7164 88.8913C70.4008 89.4823 72.2804 89.4569 74.3542 88.8174L75.6245 91.1873C76.2294 92.3157 77.678 92.7595 78.8432 92.1737L79.3203 91.9338C80.4855 91.3481 80.9438 89.9457 80.3389 88.8174L79.0136 86.3447C80.163 85.3742 80.9443 84.2631 81.3565 83.0114C81.9079 81.3385 81.7166 79.6321 80.7833 77.8915C80.2324 76.8634 79.5819 76.0733 78.8313 75.5197Z" fill="#FCC537"/>
<path fill-rule="evenodd" clip-rule="evenodd" d="M47.2253 19.2584C47.6866 20.1387 48.5727 20.64 49.4886 20.64C49.8954 20.64 50.3081 20.5409 50.692 20.3327C51.9411 19.6544 52.4131 18.0746 51.7473 16.803L47.899 9.45751C47.2337 8.18687 45.6818 7.70593 44.4323 8.3837C43.1837 9.06147 42.7113 10.6418 43.377 11.913L47.2253 19.2584Z" fill="#FCC537"/>
<path fill-rule="evenodd" clip-rule="evenodd" d="M61.7393 17.0506C61.7815 17.0506 61.8238 17.0496 61.8661 17.0482C63.4501 16.9834 64.679 15.7237 64.6101 14.2344L64.0708 2.58162C64.0019 1.09228 62.6644 -0.0594538 61.0778 0.00237742C59.4933 0.067153 58.2649 1.32684 58.3338 2.8157L58.8726 14.4689C58.9399 15.918 60.2106 17.0506 61.7393 17.0506Z" fill="#FCC537"/>
<path fill-rule="evenodd" clip-rule="evenodd" d="M74.4665 19.7428C75.1986 19.7428 75.9278 19.4585 76.4561 18.8998L80.9763 14.1208C81.9653 13.0755 81.8758 11.466 80.7779 10.5249C79.6799 9.58429 77.988 9.669 76.9995 10.7142L72.4788 15.4937C71.4903 16.5385 71.5794 18.1485 72.6778 19.0891C73.1891 19.527 73.8288 19.7428 74.4665 19.7428Z" fill="#FCC537"/>
</svg>
