<svg width="127" height="82" viewBox="0 0 127 82" fill="none" xmlns="http://www.w3.org/2000/svg">
<path d="M49.6997 11.3965V22.3438H43.9107V11.3965H49.6997ZM48.9946 71.9961V81.9785H43.2056V71.9961H48.9946ZM53.0767 59.8242C53.0767 58.4141 52.8169 57.2142 52.2974 56.2246C51.8026 55.235 50.9862 54.3568 49.8482 53.5898C48.7349 52.8229 47.2258 52.0807 45.3208 51.3633C42.1047 50.1263 39.272 48.8151 36.8228 47.4297C34.3983 46.0195 32.5057 44.2754 31.145 42.1973C29.7844 40.0944 29.104 37.4349 29.104 34.2188C29.104 31.151 29.8338 28.4915 31.2935 26.2402C32.7531 23.9889 34.7694 22.2572 37.3423 21.0449C39.9399 19.8079 42.9582 19.1895 46.397 19.1895C49.0194 19.1895 51.3944 19.5853 53.522 20.377C55.6496 21.1439 57.4803 22.2819 59.0142 23.791C60.548 25.2754 61.7232 27.0938 62.5396 29.2461C63.356 31.3984 63.7642 33.86 63.7642 36.6309H53.1138C53.1138 35.1465 52.953 33.8353 52.6314 32.6973C52.3097 31.5592 51.8397 30.6068 51.2212 29.8398C50.6274 29.0729 49.91 28.5039 49.0689 28.1328C48.2277 27.737 47.3 27.5391 46.2857 27.5391C44.7765 27.5391 43.5396 27.8359 42.5747 28.4297C41.6099 29.0234 40.9048 29.8275 40.4595 30.8418C40.0389 31.8314 39.8286 32.9694 39.8286 34.2559C39.8286 35.5176 40.0513 36.6185 40.4966 37.5586C40.9666 38.4987 41.7707 39.3646 42.9087 40.1562C44.0467 40.9232 45.6053 41.7148 47.5845 42.5312C50.8006 43.7682 53.6209 45.1042 56.0454 46.5391C58.4699 47.974 60.3625 49.7305 61.7232 51.8086C63.0838 53.8867 63.7642 56.5339 63.7642 59.75C63.7642 62.9414 63.022 65.6628 61.5376 67.9141C60.0532 70.1406 57.9751 71.8477 55.3032 73.0352C52.6314 74.1979 49.5389 74.7793 46.0259 74.7793C43.7498 74.7793 41.4862 74.4824 39.2349 73.8887C36.9836 73.2702 34.9426 72.2806 33.1118 70.9199C31.2811 69.5592 29.8215 67.7533 28.7329 65.502C27.6444 63.2259 27.1001 60.4303 27.1001 57.1152H37.7876C37.7876 58.9212 38.0226 60.4303 38.4927 61.6426C38.9627 62.8301 39.5812 63.7826 40.3482 64.5C41.1398 65.1927 42.0304 65.6875 43.02 65.9844C44.0096 66.2812 45.0116 66.4297 46.0259 66.4297C47.6092 66.4297 48.908 66.1452 49.9224 65.5762C50.9614 65.0072 51.7407 64.2279 52.2603 63.2383C52.8045 62.224 53.0767 61.0859 53.0767 59.8242ZM108.751 42.2344V51.5859C108.751 55.6432 108.319 59.1439 107.453 62.0879C106.587 65.0072 105.337 67.4069 103.705 69.2871C102.097 71.1426 100.179 72.5156 97.9526 73.4062C95.7261 74.2969 93.2521 74.7422 90.5308 74.7422C88.3537 74.7422 86.325 74.4701 84.4448 73.9258C82.5646 73.3568 80.87 72.4785 79.3608 71.291C77.8765 70.1035 76.59 68.6068 75.5015 66.8008C74.4377 64.9701 73.6213 62.793 73.0522 60.2695C72.4832 57.7461 72.1987 54.8516 72.1987 51.5859V42.2344C72.1987 38.1771 72.6317 34.7012 73.4976 31.8066C74.3882 28.8874 75.6375 26.5 77.2456 24.6445C78.8784 22.7891 80.8081 21.4284 83.0347 20.5625C85.2612 19.6719 87.7352 19.2266 90.4565 19.2266C92.6336 19.2266 94.6499 19.5111 96.5054 20.0801C98.3856 20.6243 100.08 21.4779 101.589 22.6406C103.098 23.8034 104.385 25.3001 105.449 27.1309C106.513 28.9368 107.329 31.1016 107.898 33.625C108.467 36.1237 108.751 38.9935 108.751 42.2344ZM98.0269 52.9961V40.7871C98.0269 38.8327 97.9155 37.1257 97.6929 35.666C97.495 34.2064 97.1857 32.9694 96.7651 31.9551C96.3446 30.916 95.825 30.0749 95.2065 29.4316C94.588 28.7884 93.883 28.3184 93.0913 28.0215C92.2996 27.7246 91.4214 27.5762 90.4565 27.5762C89.2443 27.5762 88.1681 27.8112 87.228 28.2812C86.3127 28.7513 85.5334 29.5059 84.8901 30.5449C84.2469 31.5592 83.7521 32.9199 83.4058 34.627C83.0841 36.3092 82.9233 38.3626 82.9233 40.7871V52.9961C82.9233 54.9505 83.0223 56.6699 83.2202 58.1543C83.4429 59.6387 83.7645 60.9128 84.1851 61.9766C84.6304 63.0156 85.1499 63.8691 85.7436 64.5371C86.3621 65.1803 87.0672 65.6504 87.8589 65.9473C88.6753 66.2441 89.5659 66.3926 90.5308 66.3926C91.7183 66.3926 92.7697 66.1576 93.6851 65.6875C94.6252 65.1927 95.4168 64.4258 96.0601 63.3867C96.728 62.3229 97.2228 60.9375 97.5444 59.2305C97.866 57.5234 98.0269 55.4453 98.0269 52.9961Z" fill="#FCC537"/>
<path d="M47.6997 2.39648V13.3438H41.9107V2.39648H47.6997ZM46.9946 62.9961V72.9785H41.2056V62.9961H46.9946ZM51.0767 50.8242C51.0767 49.4141 50.8169 48.2142 50.2974 47.2246C49.8026 46.235 48.9862 45.3568 47.8482 44.5898C46.7349 43.8229 45.2258 43.0807 43.3208 42.3633C40.1047 41.1263 37.272 39.8151 34.8228 38.4297C32.3983 37.0195 30.5057 35.2754 29.145 33.1973C27.7844 31.0944 27.104 28.4349 27.104 25.2188C27.104 22.151 27.8338 19.4915 29.2935 17.2402C30.7531 14.9889 32.7694 13.2572 35.3423 12.0449C37.9399 10.8079 40.9582 10.1895 44.397 10.1895C47.0194 10.1895 49.3944 10.5853 51.522 11.377C53.6496 12.1439 55.4803 13.2819 57.0142 14.791C58.548 16.2754 59.7232 18.0938 60.5396 20.2461C61.356 22.3984 61.7642 24.86 61.7642 27.6309H51.1138C51.1138 26.1465 50.953 24.8353 50.6314 23.6973C50.3097 22.5592 49.8397 21.6068 49.2212 20.8398C48.6274 20.0729 47.91 19.5039 47.0689 19.1328C46.2277 18.737 45.3 18.5391 44.2857 18.5391C42.7765 18.5391 41.5396 18.8359 40.5747 19.4297C39.6099 20.0234 38.9048 20.8275 38.4595 21.8418C38.0389 22.8314 37.8286 23.9694 37.8286 25.2559C37.8286 26.5176 38.0513 27.6185 38.4966 28.5586C38.9666 29.4987 39.7707 30.3646 40.9087 31.1562C42.0467 31.9232 43.6053 32.7148 45.5845 33.5312C48.8006 34.7682 51.6209 36.1042 54.0454 37.5391C56.4699 38.974 58.3625 40.7305 59.7232 42.8086C61.0838 44.8867 61.7642 47.5339 61.7642 50.75C61.7642 53.9414 61.022 56.6628 59.5376 58.9141C58.0532 61.1406 55.9751 62.8477 53.3032 64.0352C50.6314 65.1979 47.5389 65.7793 44.0259 65.7793C41.7498 65.7793 39.4862 65.4824 37.2349 64.8887C34.9836 64.2702 32.9426 63.2806 31.1118 61.9199C29.2811 60.5592 27.8215 58.7533 26.7329 56.502C25.6444 54.2259 25.1001 51.4303 25.1001 48.1152H35.7876C35.7876 49.9212 36.0226 51.4303 36.4927 52.6426C36.9627 53.8301 37.5812 54.7826 38.3482 55.5C39.1398 56.1927 40.0304 56.6875 41.02 56.9844C42.0096 57.2812 43.0116 57.4297 44.0259 57.4297C45.6092 57.4297 46.908 57.1452 47.9224 56.5762C48.9614 56.0072 49.7407 55.2279 50.2603 54.2383C50.8045 53.224 51.0767 52.0859 51.0767 50.8242ZM106.751 33.2344V42.5859C106.751 46.6432 106.319 50.1439 105.453 53.0879C104.587 56.0072 103.337 58.4069 101.705 60.2871C100.097 62.1426 98.1792 63.5156 95.9526 64.4062C93.7261 65.2969 91.2521 65.7422 88.5308 65.7422C86.3537 65.7422 84.325 65.4701 82.4448 64.9258C80.5646 64.3568 78.87 63.4785 77.3608 62.291C75.8765 61.1035 74.59 59.6068 73.5015 57.8008C72.4377 55.9701 71.6213 53.793 71.0522 51.2695C70.4832 48.7461 70.1987 45.8516 70.1987 42.5859V33.2344C70.1987 29.1771 70.6317 25.7012 71.4976 22.8066C72.3882 19.8874 73.6375 17.5 75.2456 15.6445C76.8784 13.7891 78.8081 12.4284 81.0347 11.5625C83.2612 10.6719 85.7352 10.2266 88.4565 10.2266C90.6336 10.2266 92.6499 10.5111 94.5054 11.0801C96.3856 11.6243 98.0802 12.4779 99.5894 13.6406C101.098 14.8034 102.385 16.3001 103.449 18.1309C104.513 19.9368 105.329 22.1016 105.898 24.625C106.467 27.1237 106.751 29.9935 106.751 33.2344ZM96.0269 43.9961V31.7871C96.0269 29.8327 95.9155 28.1257 95.6929 26.666C95.495 25.2064 95.1857 23.9694 94.7651 22.9551C94.3446 21.916 93.825 21.0749 93.2065 20.4316C92.588 19.7884 91.883 19.3184 91.0913 19.0215C90.2996 18.7246 89.4214 18.5762 88.4565 18.5762C87.2443 18.5762 86.1681 18.8112 85.228 19.2812C84.3127 19.7513 83.5334 20.5059 82.8901 21.5449C82.2469 22.5592 81.7521 23.9199 81.4058 25.627C81.0841 27.3092 80.9233 29.3626 80.9233 31.7871V43.9961C80.9233 45.9505 81.0223 47.6699 81.2202 49.1543C81.4429 50.6387 81.7645 51.9128 82.1851 52.9766C82.6304 54.0156 83.1499 54.8691 83.7436 55.5371C84.3621 56.1803 85.0672 56.6504 85.8589 56.9473C86.6753 57.2441 87.5659 57.3926 88.5308 57.3926C89.7183 57.3926 90.7697 57.1576 91.6851 56.6875C92.6252 56.1927 93.4168 55.4258 94.0601 54.3867C94.728 53.3229 95.2228 51.9375 95.5444 50.2305C95.866 48.5234 96.0269 46.4453 96.0269 43.9961Z" fill="#2D2B2C"/>
<path d="M41.1997 0.396484V11.3438H35.4107V0.396484H41.1997ZM40.4946 60.9961V70.9785H34.7056V60.9961H40.4946ZM44.5767 48.8242C44.5767 47.4141 44.3169 46.2142 43.7974 45.2246C43.3026 44.235 42.4862 43.3568 41.3482 42.5898C40.2349 41.8229 38.7258 41.0807 36.8208 40.3633C33.6047 39.1263 30.772 37.8151 28.3228 36.4297C25.8983 35.0195 24.0057 33.2754 22.645 31.1973C21.2844 29.0944 20.604 26.4349 20.604 23.2188C20.604 20.151 21.3338 17.4915 22.7935 15.2402C24.2531 12.9889 26.2694 11.2572 28.8423 10.0449C31.4399 8.80794 34.4582 8.18945 37.897 8.18945C40.5194 8.18945 42.8944 8.58529 45.022 9.37695C47.1496 10.1439 48.9803 11.2819 50.5142 12.791C52.048 14.2754 53.2232 16.0938 54.0396 18.2461C54.856 20.3984 55.2642 22.86 55.2642 25.6309H44.6138C44.6138 24.1465 44.453 22.8353 44.1314 21.6973C43.8097 20.5592 43.3397 19.6068 42.7212 18.8398C42.1274 18.0729 41.41 17.5039 40.5689 17.1328C39.7277 16.737 38.8 16.5391 37.7857 16.5391C36.2765 16.5391 35.0396 16.8359 34.0747 17.4297C33.1099 18.0234 32.4048 18.8275 31.9595 19.8418C31.5389 20.8314 31.3286 21.9694 31.3286 23.2559C31.3286 24.5176 31.5513 25.6185 31.9966 26.5586C32.4666 27.4987 33.2707 28.3646 34.4087 29.1562C35.5467 29.9232 37.1053 30.7148 39.0845 31.5312C42.3006 32.7682 45.1209 34.1042 47.5454 35.5391C49.9699 36.974 51.8625 38.7305 53.2232 40.8086C54.5838 42.8867 55.2642 45.5339 55.2642 48.75C55.2642 51.9414 54.522 54.6628 53.0376 56.9141C51.5532 59.1406 49.4751 60.8477 46.8032 62.0352C44.1314 63.1979 41.0389 63.7793 37.5259 63.7793C35.2498 63.7793 32.9862 63.4824 30.7349 62.8887C28.4836 62.2702 26.4426 61.2806 24.6118 59.9199C22.7811 58.5592 21.3215 56.7533 20.2329 54.502C19.1444 52.2259 18.6001 49.4303 18.6001 46.1152H29.2876C29.2876 47.9212 29.5226 49.4303 29.9927 50.6426C30.4627 51.8301 31.0812 52.7826 31.8482 53.5C32.6398 54.1927 33.5304 54.6875 34.52 54.9844C35.5096 55.2812 36.5116 55.4297 37.5259 55.4297C39.1092 55.4297 40.408 55.1452 41.4224 54.5762C42.4614 54.0072 43.2407 53.2279 43.7603 52.2383C44.3045 51.224 44.5767 50.0859 44.5767 48.8242ZM100.251 31.2344V40.5859C100.251 44.6432 99.8185 48.1439 98.9526 51.0879C98.0867 54.0072 96.8374 56.4069 95.2046 58.2871C93.5965 60.1426 91.6792 61.5156 89.4526 62.4062C87.2261 63.2969 84.7521 63.7422 82.0308 63.7422C79.8537 63.7422 77.825 63.4701 75.9448 62.9258C74.0646 62.3568 72.37 61.4785 70.8608 60.291C69.3765 59.1035 68.09 57.6068 67.0015 55.8008C65.9377 53.9701 65.1213 51.793 64.5522 49.2695C63.9832 46.7461 63.6987 43.8516 63.6987 40.5859V31.2344C63.6987 27.1771 64.1317 23.7012 64.9976 20.8066C65.8882 17.8874 67.1375 15.5 68.7456 13.6445C70.3784 11.7891 72.3081 10.4284 74.5347 9.5625C76.7612 8.67188 79.2352 8.22656 81.9565 8.22656C84.1336 8.22656 86.1499 8.51107 88.0054 9.08008C89.8856 9.62435 91.5802 10.4779 93.0894 11.6406C94.5985 12.8034 95.8849 14.3001 96.9487 16.1309C98.0125 17.9368 98.8289 20.1016 99.3979 22.625C99.967 25.1237 100.251 27.9935 100.251 31.2344ZM89.5269 41.9961V29.7871C89.5269 27.8327 89.4155 26.1257 89.1929 24.666C88.995 23.2064 88.6857 21.9694 88.2651 20.9551C87.8446 19.916 87.325 19.0749 86.7065 18.4316C86.088 17.7884 85.383 17.3184 84.5913 17.0215C83.7996 16.7246 82.9214 16.5762 81.9565 16.5762C80.7443 16.5762 79.6681 16.8112 78.728 17.2812C77.8127 17.7513 77.0334 18.5059 76.3901 19.5449C75.7469 20.5592 75.2521 21.9199 74.9058 23.627C74.5841 25.3092 74.4233 27.3626 74.4233 29.7871V41.9961C74.4233 43.9505 74.5223 45.6699 74.7202 47.1543C74.9429 48.6387 75.2645 49.9128 75.6851 50.9766C76.1304 52.0156 76.6499 52.8691 77.2436 53.5371C77.8621 54.1803 78.5672 54.6504 79.3589 54.9473C80.1753 55.2441 81.0659 55.3926 82.0308 55.3926C83.2183 55.3926 84.2697 55.1576 85.1851 54.6875C86.1252 54.1927 86.9168 53.4258 87.5601 52.3867C88.228 51.3229 88.7228 49.9375 89.0444 48.2305C89.366 46.5234 89.5269 44.4453 89.5269 41.9961Z" fill="white"/>
<path d="M41.1997 0.396484V11.3438H35.4107V0.396484H41.1997ZM40.4946 60.9961V70.9785H34.7056V60.9961H40.4946ZM44.5767 48.8242C44.5767 47.4141 44.3169 46.2142 43.7974 45.2246C43.3026 44.235 42.4862 43.3568 41.3482 42.5898C40.2349 41.8229 38.7258 41.0807 36.8208 40.3633C33.6047 39.1263 30.772 37.8151 28.3228 36.4297C25.8983 35.0195 24.0057 33.2754 22.645 31.1973C21.2844 29.0944 20.604 26.4349 20.604 23.2188C20.604 20.151 21.3338 17.4915 22.7935 15.2402C24.2531 12.9889 26.2694 11.2572 28.8423 10.0449C31.4399 8.80794 34.4582 8.18945 37.897 8.18945C40.5194 8.18945 42.8944 8.58529 45.022 9.37695C47.1496 10.1439 48.9803 11.2819 50.5142 12.791C52.048 14.2754 53.2232 16.0938 54.0396 18.2461C54.856 20.3984 55.2642 22.86 55.2642 25.6309H44.6138C44.6138 24.1465 44.453 22.8353 44.1314 21.6973C43.8097 20.5592 43.3397 19.6068 42.7212 18.8398C42.1274 18.0729 41.41 17.5039 40.5689 17.1328C39.7277 16.737 38.8 16.5391 37.7857 16.5391C36.2765 16.5391 35.0396 16.8359 34.0747 17.4297C33.1099 18.0234 32.4048 18.8275 31.9595 19.8418C31.5389 20.8314 31.3286 21.9694 31.3286 23.2559C31.3286 24.5176 31.5513 25.6185 31.9966 26.5586C32.4666 27.4987 33.2707 28.3646 34.4087 29.1562C35.5467 29.9232 37.1053 30.7148 39.0845 31.5312C42.3006 32.7682 45.1209 34.1042 47.5454 35.5391C49.9699 36.974 51.8625 38.7305 53.2232 40.8086C54.5838 42.8867 55.2642 45.5339 55.2642 48.75C55.2642 51.9414 54.522 54.6628 53.0376 56.9141C51.5532 59.1406 49.4751 60.8477 46.8032 62.0352C44.1314 63.1979 41.0389 63.7793 37.5259 63.7793C35.2498 63.7793 32.9862 63.4824 30.7349 62.8887C28.4836 62.2702 26.4426 61.2806 24.6118 59.9199C22.7811 58.5592 21.3215 56.7533 20.2329 54.502C19.1444 52.2259 18.6001 49.4303 18.6001 46.1152H29.2876C29.2876 47.9212 29.5226 49.4303 29.9927 50.6426C30.4627 51.8301 31.0812 52.7826 31.8482 53.5C32.6398 54.1927 33.5304 54.6875 34.52 54.9844C35.5096 55.2812 36.5116 55.4297 37.5259 55.4297C39.1092 55.4297 40.408 55.1452 41.4224 54.5762C42.4614 54.0072 43.2407 53.2279 43.7603 52.2383C44.3045 51.224 44.5767 50.0859 44.5767 48.8242ZM100.251 31.2344V40.5859C100.251 44.6432 99.8185 48.1439 98.9526 51.0879C98.0867 54.0072 96.8374 56.4069 95.2046 58.2871C93.5965 60.1426 91.6792 61.5156 89.4526 62.4062C87.2261 63.2969 84.7521 63.7422 82.0308 63.7422C79.8537 63.7422 77.825 63.4701 75.9448 62.9258C74.0646 62.3568 72.37 61.4785 70.8608 60.291C69.3765 59.1035 68.09 57.6068 67.0015 55.8008C65.9377 53.9701 65.1213 51.793 64.5522 49.2695C63.9832 46.7461 63.6987 43.8516 63.6987 40.5859V31.2344C63.6987 27.1771 64.1317 23.7012 64.9976 20.8066C65.8882 17.8874 67.1375 15.5 68.7456 13.6445C70.3784 11.7891 72.3081 10.4284 74.5347 9.5625C76.7612 8.67188 79.2352 8.22656 81.9565 8.22656C84.1336 8.22656 86.1499 8.51107 88.0054 9.08008C89.8856 9.62435 91.5802 10.4779 93.0894 11.6406C94.5985 12.8034 95.8849 14.3001 96.9487 16.1309C98.0125 17.9368 98.8289 20.1016 99.3979 22.625C99.967 25.1237 100.251 27.9935 100.251 31.2344ZM89.5269 41.9961V29.7871C89.5269 27.8327 89.4155 26.1257 89.1929 24.666C88.995 23.2064 88.6857 21.9694 88.2651 20.9551C87.8446 19.916 87.325 19.0749 86.7065 18.4316C86.088 17.7884 85.383 17.3184 84.5913 17.0215C83.7996 16.7246 82.9214 16.5762 81.9565 16.5762C80.7443 16.5762 79.6681 16.8112 78.728 17.2812C77.8127 17.7513 77.0334 18.5059 76.3901 19.5449C75.7469 20.5592 75.2521 21.9199 74.9058 23.627C74.5841 25.3092 74.4233 27.3626 74.4233 29.7871V41.9961C74.4233 43.9505 74.5223 45.6699 74.7202 47.1543C74.9429 48.6387 75.2645 49.9128 75.6851 50.9766C76.1304 52.0156 76.6499 52.8691 77.2436 53.5371C77.8621 54.1803 78.5672 54.6504 79.3589 54.9473C80.1753 55.2441 81.0659 55.3926 82.0308 55.3926C83.2183 55.3926 84.2697 55.1576 85.1851 54.6875C86.1252 54.1927 86.9168 53.4258 87.5601 52.3867C88.228 51.3229 88.7228 49.9375 89.0444 48.2305C89.366 46.5234 89.5269 44.4453 89.5269 41.9961Z" fill="white"/>
</svg>
